{
.appVersion = "1192";
classes = (
{
automatic = 1;

glyphs = (
{
color = 3;
glyphname = A;
lastChange = "2019-04-05 05:20:06 +0000";
layers = (
{
anchors = (
{
name = bottom;
position = "{578, 0}";
},
{
name = ogonek;
position = "{1102, 20}";
},
{
name = top;
position = "{796, 1486}";
}
);
layerId = "0C3FD5EE-D923-4A4A-8FDE-164881635915";
paths = (
{
closed = 1;
nodes = (
"24 92 LINE",
"-112 70 LINE",
"-120 0 LINE",
"345 0 LINE",
"351 70 LINE",
"171 94 LINE",
"337 447 LINE",
"909 447 LINE",
"968 92 LINE",
"790 70 LINE",
"786 0 LINE",
"1288 0 LINE",
"1292 70 LINE",
"1129 96 LINE",
"874 1498 LINE",
"713 1498 LINE"
);
},
{
closed = 1;
nodes = (
"779 1246 LINE",
"893 545 LINE",
"384 545 LINE",
"766 1365 LINE"
);
}
);
width = 1322;
},
{
anchors = (
{
name = bottom;
position = "{551, 0}";
},
{
name = ogonek;
position = "{1110, 20}";
},
{
name = top;
position = "{788, 1486}";
}
);
layerId = "27298932-82AF-4578-9425-6304FDB19058";
paths = (
{
closed = 1;
nodes = (
"-13 131 LINE",
"-149 103 LINE",
"-157 0 LINE",
"387 0 LINE",
"395 103 LINE",
"211 131 LINE",
"328 407 LINE",
"805 407 LINE",
"846 131 LINE",
"691 103 LINE",
"687 0 LINE",
"1354 0 LINE",
"1360 103 LINE",
"1204 133 LINE",
"961 1490 LINE",
"629 1490 LINE"
);
},
{
closed = 1;
nodes = (
"708 1095 LINE",
"786 554 LINE",
"390 554 LINE",
"700 1281 LINE"
);
}
);
width = 1320;
}
);
leftKerningGroup = A;
rightKerningGroup = A;
unicode = 0041;
},
{
glyphname = AE;
lastChange = "2019-04-05 05:20:06 +0000";
layers = (
{
anchors = (
{
name = top;
position = "{1145, 1486}";
}
);
layerId = "0C3FD5EE-D923-4A4A-8FDE-164881635915";
paths = (
{
closed = 1;
nodes = (
"1658 0 LINE",
"1728 301 LINE",
"1642 324 LINE",
"1547 113 LINE",
"977 94 LINE",
"1053 715 LINE",
"1486 702 LINE",
"1498 837 LINE",
"1061 816 LINE",
"1137 1398 LINE",
"1599 1387 LINE",
"1631 1196 LINE",
"1719 1196 LINE",
"1728 1486 LINE",
"417 1486 LINE",
"407 1406 LINE",
"710 1387 LINE",
"13 92 LINE",
"-149 70 LINE",
"-161 0 LINE",
"386 0 LINE",
"392 70 LINE",
"172 94 LINE",
"370 483 LINE",
"863 483 LINE",
"815 92 LINE",
"686 70 LINE",
"677 0 LINE"
);
},
{
closed = 1;
nodes = (
"970 1381 LINE",
"873 582 LINE",
"420 582 LINE",
"831 1387 LINE"
);
}
);
width = 1787;
},
{
anchors = (
{
name = top;
position = "{1127, 1486}";
}
);
layerId = "27298932-82AF-4578-9425-6304FDB19058";
paths = (
{
closed = 1;
nodes = (
"1844 0 LINE",
"1912 439 LINE",
"1708 454 LINE",
"1594 164 LINE",
"1139 131 LINE",
"1215 697 LINE",
"1643 665 LINE",
"1676 886 LINE",
"1232 847 LINE",
"1305 1371 LINE",
"1639 1345 LINE",
"1673 1128 LINE",
"1885 1128 LINE",
"1920 1486 LINE",
"401 1486 LINE",
"385 1371 LINE",
"671 1345 LINE",
"-38 131 LINE",
"-193 103 LINE",
"-201 0 LINE",
"411 0 LINE",
"417 103 LINE",
"232 131 LINE",
"376 408 LINE",
"841 408 LINE",
"804 131 LINE",
"649 103 LINE",
"635 0 LINE"
);
},
{
closed = 1;
nodes = (
"966 1370 LINE",
"860 555 LINE",
"453 555 LINE",
"880 1371 LINE"
);
}
);
width = 1958;
}
);
leftKerningGroup = A;
rightKerningGroup = E;
unicode = 00C6;
},
{
color = 3;
glyphname = B;
lastChange = "2019-04-05 05:20:06 +0000";
layers = (
{
anchors = (
{
name = bottom;
position = "{518, 0}";
},
{
name = top;
position = "{708, 1486}";
}
);
layerId = "0C3FD5EE-D923-4A4A-8FDE-164881635915";
paths = (
{
closed = 1;
nodes = (
"198 1486 LINE",
"190 1406 LINE",
"322 1386 LINE",
"160 94 LINE",
"14 70 LINE",
"6 0 LINE",
"224 0 LINE SMOOTH",
"292 0 OFFCURVE",
"410 -14 OFFCURVE",
"486 -14 CURVE SMOOTH",
"842 -14 OFFCURVE",
"1148 124 OFFCURVE",
"1142 478 CURVE SMOOTH",
"1140 650 OFFCURVE",
"1004 768 OFFCURVE",
"838 788 CURVE",
"1034 842 OFFCURVE",
"1154 976 OFFCURVE",
"1150 1190 CURVE SMOOTH",
"1148 1356 OFFCURVE",
"1022 1500 OFFCURVE",
"716 1500 CURVE SMOOTH",
"616 1500 OFFCURVE",
"528 1488 OFFCURVE",
"438 1486 CURVE"
);
},
{
closed = 1;
nodes = (
"394 714 LINE",
"446 716 OFFCURVE",
"526 718 OFFCURVE",
"658 718 CURVE SMOOTH",
"860 718 OFFCURVE",
"972 634 OFFCURVE",
"974 460 CURVE SMOOTH",
"978 182 OFFCURVE",
"778 84 OFFCURVE",
"520 84 CURVE SMOOTH",
"478 84 OFFCURVE",
"358 90 OFFCURVE",
"318 102 CURVE"
);
},
{
closed = 1;
nodes = (
"480 1396 LINE",
"532 1402 OFFCURVE",
"640 1408 OFFCURVE",
"680 1408 CURVE SMOOTH",
"900 1408 OFFCURVE",
"992 1326 OFFCURVE",
"994 1170 CURVE SMOOTH",
"998 932 OFFCURVE",
"836 820 OFFCURVE",
"632 820 CURVE SMOOTH",
"562 820 OFFCURVE",
"476 818 OFFCURVE",
"408 820 CURVE"
);
}
);
width = 1234;
},
{
anchors = (
{
name = bottom;
position = "{571, 0}";
},
{
name = top;
position = "{792, 1486}";
}
);
layerId = "27298932-82AF-4578-9425-6304FDB19058";
paths = (
{
closed = 1;
nodes = (
"177 1486 LINE",
"165 1379 LINE",
"307 1355 LINE",
"143 131 LINE",
"7 103 LINE",
"-1 0 LINE",
"286 0 LINE SMOOTH",
"374 0 OFFCURVE",
"503 -20 OFFCURVE",
"597 -20 CURVE SMOOTH",
"1061 -20 OFFCURVE",
"1309 122 OFFCURVE",
"1309 488 CURVE SMOOTH",
"1309 646 OFFCURVE",
"1175 789 OFFCURVE",
"953 784 CURVE",
"1201 844 OFFCURVE",
"1325 968 OFFCURVE",
"1317 1182 CURVE SMOOTH",
"1311 1342 OFFCURVE",
"1232 1502 OFFCURVE",
"852 1502 CURVE SMOOTH",
"725 1502 OFFCURVE",
"617 1488 OFFCURVE",
"504 1486 CURVE"
);
},
{
closed = 1;
nodes = (
"542 699 LINE",
"566 701 OFFCURVE",
"592 703 OFFCURVE",
"668 703 CURVE SMOOTH",
"870 703 OFFCURVE",
"951 622 OFFCURVE",
"957 456 CURVE SMOOTH",
"967 211 OFFCURVE",
"854 101 OFFCURVE",
"639 101 CURVE SMOOTH",
"597 101 OFFCURVE",
"515 111 OFFCURVE",
"464 125 CURVE"
);
},
{
closed = 1;
nodes = (
"631 1367 LINE",
"676 1377 OFFCURVE",
"745 1379 OFFCURVE",
"775 1379 CURVE SMOOTH",
"918 1379 OFFCURVE",
"994 1301 OFFCURVE",
"1000 1156 CURVE",
"1008 924 OFFCURVE",
"856 836 OFFCURVE",
"685 836 CURVE SMOOTH",
"636 836 OFFCURVE",
"602 834 OFFCURVE",
"559 836 CURVE"
);
}
);
width = 1378;
}
);
leftKerningGroup = H;
leftMetricsKey = H;
rightKerningGroup = B;
unicode = 0042;
},
{
color = 3;
glyphname = C;
lastChange = "2019-04-05 05:20:06 +0000";
layers = (
{
anchors = (
{
name = bottom;
position = "{628, 0}";
},
{
name = top;
position = "{834, 1486}";
}
);
layerId = "0C3FD5EE-D923-4A4A-8FDE-164881635915";
paths = (
{
closed = 1;
nodes = (
"1055 1086 LINE",
"1152 1086 LINE",
"1212 1442 LINE",
"1171 1456 LINE",
"1110 1472 OFFCURVE",
"1005 1502 OFFCURVE",
"827 1502 CURVE SMOOTH",
"430 1502 OFFCURVE",
"90 1150 OFFCURVE",
"100 613 CURVE SMOOTH",
"103 308 OFFCURVE",
"247 -16 OFFCURVE",
"613 -16 CURVE SMOOTH",
"819 -16 OFFCURVE",
"979 46 OFFCURVE",
"1055 72 CURVE",
"1095 393 LINE",
"997 393 LINE",
"977 321 OFFCURVE",
"955 246 OFFCURVE",
"934 176 CURVE",
"880 112 OFFCURVE",
"741 82 OFFCURVE",
"643 82 CURVE SMOOTH",
"374 82 OFFCURVE",
"273 361 OFFCURVE",
"269 629 CURVE SMOOTH",
"261 968 OFFCURVE",
"432 1406 OFFCURVE",
"808 1406 CURVE SMOOTH",
"944 1406 OFFCURVE",
"1004 1381 OFFCURVE",
"1047 1356 CURVE"
);
}
);
width = 1239;
},
{
anchors = (
{
name = bottom;
position = "{665, 0}";
},
{
name = top;
position = "{927, 1486}";
}
);
layerId = "27298932-82AF-4578-9425-6304FDB19058";
paths = (
{
closed = 1;
nodes = (
"1008 1059 LINE",
"1251 1059 LINE",
"1311 1450 LINE",
"1278 1458 LINE",
"1207 1474 OFFCURVE",
"1143 1504 OFFCURVE",
"927 1504 CURVE SMOOTH",
"407 1504 OFFCURVE",
"63 1179 OFFCURVE",
"63 622 CURVE SMOOTH",
"63 281 OFFCURVE",
"225 -16 OFFCURVE",
"664 -16 CURVE SMOOTH",
"952 -16 OFFCURVE",
"1085 71 OFFCURVE",
"1159 130 CURVE",
"1201 409 LINE",
"1008 409 LINE",
"988 334 OFFCURVE",
"964 254 OFFCURVE",
"930 213 CURVE",
"857 141 OFFCURVE",
"759 140 OFFCURVE",
"716 140 CURVE SMOOTH",
"527 140 OFFCURVE",
"448 314 OFFCURVE",
"438 642 CURVE SMOOTH",
"430 968 OFFCURVE",
"560 1379 OFFCURVE",
"874 1379 CURVE SMOOTH",
"911 1379 OFFCURVE",
"942 1372 OFFCURVE",
"970 1362 CURVE"
);
}
);
width = 1283;
}
);
leftKerningGroup = O;
rightKerningGroup = C;
unicode = 0043;
},
{
color = 3;
glyphname = D;
lastChange = "2019-04-05 05:37:06 +0000";
layers = (
{
anchors = (
{
name = bottom;
position = "{550, 0}";
},
{
name = top;
position = "{740, 1484}";
}
);
background = {
anchors = (
{
name = bottom;
position = "{654, 0}";
},
{
name = top;
position = "{842, 1486}";
}
);
paths = (
{
closed = 1;
nodes = (
"204 1406 LINE",
"326 1386 LINE",
"152 94 LINE",
"4 70 LINE",
"-4 0 LINE",
"450 0 LINE",
"456 70 LINE",
"310 94 LINE",
"398 706 LINE",
"1094 706 LINE",
"1010 94 LINE",
"844 70 LINE",
"838 0 LINE",
"1304 0 LINE",
"1310 70 LINE",
"1166 94 LINE",
"1338 1386 LINE",
"1474 1406 LINE",
"1484 1486 LINE",
"1054 1486 LINE",
"1044 1406 LINE",
"1182 1386 LINE",
"1108 810 LINE",
"410 810 LINE",
"486 1386 LINE",
"626 1406 LINE",
"634 1486 LINE",
"212 1486 LINE"
);
}
);
};
layerId = "0C3FD5EE-D923-4A4A-8FDE-164881635915";
paths = (
{
closed = 1;
nodes = (
"212 1486 LINE",
"204 1406 LINE",
"326 1386 LINE",
"152 94 LINE",
"4 70 LINE",
"-4 0 LINE",
"226 0 LINE SMOOTH",
"280 0 OFFCURVE",
"386 -6 OFFCURVE",
"430 -8 CURVE SMOOTH",
"460 -10 OFFCURVE",
"512 -14 OFFCURVE",
"538 -16 CURVE SMOOTH",
"1004 -52 OFFCURVE",
"1316 382 OFFCURVE",
"1310 900 CURVE",
"1306 1260 OFFCURVE",
"1146 1502 OFFCURVE",
"742 1502 CURVE SMOOTH",
"650 1502 OFFCURVE",
"556 1488 OFFCURVE",
"462 1486 CURVE"
);
},
{
closed = 1;
nodes = (
"486 1390 LINE",
"546 1398 OFFCURVE",
"638 1408 OFFCURVE",
"708 1408 CURVE SMOOTH",
"1022 1408 OFFCURVE",
"1140 1254 OFFCURVE",
"1146 886 CURVE",
"1150 494 OFFCURVE",
"972 98 OFFCURVE",
"582 80 CURVE",
"514 80 OFFCURVE",
"390 90 OFFCURVE",
"312 106 CURVE"
);
}
);
width = 1368;
},
{
anchors = (
{
name = bottom;
position = "{595, 0}";
},
{
name = top;
position = "{829, 1486}";
}
);
layerId = "27298932-82AF-4578-9425-6304FDB19058";
paths = (
{
closed = 1;
nodes = (
"179 1486 LINE",
"169 1378 LINE",
"307 1356 LINE",
"139 130 LINE",
"-13 102 LINE",
"-25 0 LINE",
"331 0 LINE",
"389 0 OFFCURVE",
"475 -4 OFFCURVE",
"519 -8 CURVE",
"537 -12 OFFCURVE",
"573 -16 OFFCURVE",
"591 -16 CURVE SMOOTH",
"1209 -16 OFFCURVE",
"1469 362 OFFCURVE",
"1469 900 CURVE SMOOTH",
"1469 1242 OFFCURVE",
"1303 1504 OFFCURVE",
"833 1502 CURVE SMOOTH",
"717 1502 OFFCURVE",
"595 1488 OFFCURVE",
"487 1486 CURVE"
);
},
{
closed = 1;
nodes = (
"643 1356 LINE",
"663 1366 OFFCURVE",
"723 1378 OFFCURVE",
"801 1378 CURVE SMOOTH",
"1011 1378 OFFCURVE",
"1107 1236 OFFCURVE",
"1107 866 CURVE SMOOTH",
"1107 532 OFFCURVE",
"975 108 OFFCURVE",
"615 108 CURVE SMOOTH",
"575 108 OFFCURVE",
"515 120 OFFCURVE",
"477 132 CURVE"
);
}
);
width = 1485;
}
);
leftKerningGroup = H;
leftMetricsKey = H;
rightKerningGroup = D;
unicode = 0044;
},
{
glyphname = Eth;
lastChange = "2019-04-05 05:37:06 +0000";
layers = (
{
layerId = "0C3FD5EE-D923-4A4A-8FDE-164881635915";
paths = (
{
closed = 1;
nodes = (
"210 1488 LINE",
"202 1408 LINE",
"334 1388 LINE",
"262 818 LINE",
"106 818 LINE",
"92 712 LINE",
"248 712 LINE",
"170 96 LINE",
"24 72 LINE",
"14 2 LINE",
"242 2 LINE SMOOTH",
"296 2 OFFCURVE",
"402 -4 OFFCURVE",
"446 -6 CURVE SMOOTH",
"476 -8 OFFCURVE",
"528 -12 OFFCURVE",
"554 -14 CURVE SMOOTH",
"1022 -48 OFFCURVE",
"1328 384 OFFCURVE",
"1322 902 CURVE",
"1320 1262 OFFCURVE",
"1158 1504 OFFCURVE",
"756 1504 CURVE SMOOTH",
"656 1504 OFFCURVE",
"562 1490 OFFCURVE",
"470 1488 CURVE"
);
},
{
closed = 1;
nodes = (
"406 712 LINE",
"818 712 LINE",
"830 818 LINE",
"420 818 LINE",
"492 1392 LINE",
"550 1400 OFFCURVE",
"644 1410 OFFCURVE",
"712 1410 CURVE SMOOTH",
"1030 1410 OFFCURVE",
"1154 1256 OFFCURVE",
"1160 888 CURVE",
"1162 496 OFFCURVE",
"984 100 OFFCURVE",
"594 82 CURVE",
"530 82 OFFCURVE",
"406 92 OFFCURVE",
"330 108 CURVE"
);
}
);
width = 1380;
},
{
layerId = "27298932-82AF-4578-9425-6304FDB19058";
paths = (
{
closed = 1;
nodes = (
"177 1488 LINE",
"167 1380 LINE",
"307 1358 LINE",
"239 850 LINE",
"107 850 LINE",
"81 686 LINE",
"217 686 LINE",
"143 132 LINE",
"-11 104 LINE",
"-23 2 LINE",
"307 2 LINE SMOOTH",
"369 2 OFFCURVE",
"471 -2 OFFCURVE",
"521 -6 CURVE",
"539 -10 OFFCURVE",
"575 -14 OFFCURVE",
"593 -14 CURVE SMOOTH",
"1211 -16 OFFCURVE",
"1467 364 OFFCURVE",
"1467 902 CURVE SMOOTH",
"1467 1244 OFFCURVE",
"1301 1506 OFFCURVE",
"831 1504 CURVE SMOOTH",
"711 1504 OFFCURVE",
"583 1488 OFFCURVE",
"467 1488 CURVE SMOOTH"
);
},
{
closed = 1;
nodes = (
"553 686 LINE",
"843 686 LINE",
"867 850 LINE",
"575 850 LINE",
"641 1358 LINE",
"661 1368 OFFCURVE",
"721 1380 OFFCURVE",
"799 1380 CURVE SMOOTH",
"1009 1380 OFFCURVE",
"1105 1238 OFFCURVE",
"1105 868 CURVE SMOOTH",
"1105 534 OFFCURVE",
"977 110 OFFCURVE",
"617 110 CURVE SMOOTH",
"577 110 OFFCURVE",
"517 122 OFFCURVE",
"479 134 CURVE"
);
}
);
width = 1483;
}
);
leftKerningGroup = H;
leftMetricsKey = D;
rightKerningGroup = D;
rightMetricsKey = D;
unicode = 00D0;
},
{
color = 3;
glyphname = E;
lastChange = "2019-04-05 05:20:06 +0000";
layers = (
{
anchors = (
{
name = bottom;
position = "{546, 0}";
},
{
name = btm;
position = "{638, -164}";
},
{
name = ogonek;
position = "{986, 20}";
},
{
name = top;
position = "{692, 1486}";
}
);
layerId = "0C3FD5EE-D923-4A4A-8FDE-164881635915";
paths = (
{
closed = 1;
nodes = (
"188 1406 LINE",
"322 1386 LINE",
"160 92 LINE",
"12 70 LINE",
"6 0 LINE",
"1026 0 LINE",
"1110 316 LINE",
"1024 342 LINE",
"916 114 LINE",
"318 96 LINE",
"402 716 LINE",
"870 702 LINE",
"878 830 LINE",
"410 822 LINE",
"486 1400 LINE",
"976 1388 LINE",
"1008 1180 LINE",
"1098 1180 LINE",
"1106 1486 LINE",
"198 1486 LINE"
);
}
);
width = 1190;
},
{
anchors = (
{
name = bottom;
position = "{599, 0}";
},
{
name = btm;
position = "{741, -164}";
},
{
name = ogonek;
position = "{1077, 20}";
},
{
name = top;
position = "{764, 1486}";
}
);
layerId = "27298932-82AF-4578-9425-6304FDB19058";
paths = (
{
closed = 1;
nodes = (
"165 1379 LINE",
"307 1355 LINE",
"140 130 LINE",
"-9 103 LINE",
"-23 0 LINE",
"1185 0 LINE",
"1256 440 LINE",
"1086 454 LINE",
"945 180 LINE",
"484 146 LINE",
"557 708 LINE",
"990 679 LINE",
"1026 902 LINE",
"577 859 LINE",
"645 1371 LINE",
"988 1345 LINE",
"1062 1128 LINE",
"1228 1128 LINE",
"1261 1486 LINE",
"177 1486 LINE"
);
}
);
width = 1328;
}
);
leftKerningGroup = H;
leftMetricsKey = H;
rightKerningGroup = E;
unicode = 0045;
},
{
color = 3;
glyphname = Ezh;
lastChange = "2019-04-05 05:20:06 +0000";
layers = (
{
anchors = (
{
name = top;
position = "{714, 1486}";
}
);
layerId = "0C3FD5EE-D923-4A4A-8FDE-164881635915";
paths = (
{
closed = 1;
nodes = (
"830 -12 OFFCURVE",
"1076 196 OFFCURVE",
"1076 492 CURVE",
"1076 733 OFFCURVE",
"920 842 OFFCURVE",
"731 842 CURVE SMOOTH",
"681 842 OFFCURVE",
"620 838 OFFCURVE",
"581 829 CURVE",
"1114 1404 LINE",
"1125 1486 LINE",
"266 1486 LINE",
"238 1140 LINE",
"332 1140 LINE",
"388 1361 LINE",
"933 1386 LINE",
"414 772 LINE",
"440 739 LINE SMOOTH",
"483 747 OFFCURVE",
"532 756 OFFCURVE",
"599 756 CURVE",
"795 754 OFFCURVE",
"907 654 OFFCURVE",
"907 488 CURVE",
"907 290 OFFCURVE",
"768 89 OFFCURVE",
"471 89 CURVE",
"298 89 OFFCURVE",
"230 135 OFFCURVE",
"214 143 CURVE SMOOTH",
"212 391 LINE",
"128 391 LINE",
"48 64 LINE SMOOTH",
"95 54 OFFCURVE",
"257 -12 OFFCURVE",
"441 -12 CURVE"
);
}
);
width = 1163;
},
{
anchors = (
{
name = top;
position = "{714, 1486}";
}
);
layerId = "27298932-82AF-4578-9425-6304FDB19058";
paths = (
{
closed = 1;
nodes = (
"886 -12 OFFCURVE",
"1113 227 OFFCURVE",
"1113 523 CURVE SMOOTH",
"1113 782 OFFCURVE",
"916 877 OFFCURVE",
"722 877 CURVE SMOOTH",
"701 877 OFFCURVE",
"678 877 OFFCURVE",
"658 875 CURVE",
"1153 1346 LINE",
"1172 1486 LINE",
"206 1486 LINE",
"153 1115 LINE",
"332 1115 LINE",
"396 1317 LINE",
"889 1330 LINE",
"389 797 LINE",
"446 726 LINE",
"470 729 OFFCURVE",
"493 731 OFFCURVE",
"515 731 CURVE SMOOTH",
"693 731 OFFCURVE",
"772 625 OFFCURVE",
"772 461 CURVE SMOOTH",
"772 284 OFFCURVE",
"642 129 OFFCURVE",
"484 129 CURVE SMOOTH",
"354 129 OFFCURVE",
"288 188 OFFCURVE",
"280 196 CURVE",
"245 431 LINE",
"95 431 LINE",
"25 64 LINE",
"75 54 OFFCURVE",
"210 -12 OFFCURVE",
"452 -12 CURVE SMOOTH"
);
}
);
width = 1172;
}
);
leftKerningGroup = Ezh;
rightKerningGroup = Ezh;
unicode = 01B7;
},
{
color = 3;
glyphname = F;
lastChange = "2019-04-05 05:20:06 +0000";
layers = (
{
anchors = (
{
name = btm;
position = "{568, -164}";
},
{
name = top;
position = "{714, 1486}";
}
);
layerId = "0C3FD5EE-D923-4A4A-8FDE-164881635915";
paths = (
{
closed = 1;
nodes = (
"196 1406 LINE",
"330 1386 LINE",
"150 94 LINE",
"4 70 LINE",
"-4 0 LINE",
"536 0 LINE",
"544 70 LINE",
"308 96 LINE",
"400 712 LINE",
"892 698 LINE",
"906 828 LINE",
"410 820 LINE",
"490 1398 LINE",
"1012 1384 LINE",
"1030 1180 LINE",
"1128 1180 LINE",
"1152 1486 LINE",
"208 1486 LINE"
);
}
);
width = 1126;
},
{
anchors = (
{
name = btm;
position = "{651, -164}";
},
{
name = top;
position = "{761, 1486}";
}
);
layerId = "27298932-82AF-4578-9425-6304FDB19058";
paths = (
{
closed = 1;
nodes = (
"163 1379 LINE",
"305 1355 LINE",
"138 130 LINE",
"4 102 LINE",
"-8 0 LINE",
"738 0 LINE",
"746 102 LINE",
"478 130 LINE",
"553 685 LINE",
"1012 648 LINE",
"1044 865 LINE",
"573 837 LINE",
"645 1369 LINE",
"999 1345 LINE",
"1026 1114 LINE",
"1239 1114 LINE",
"1278 1486 LINE",
"177 1486 LINE"
);
}
);
width = 1231;
}
);
leftKerningGroup = H;
leftMetricsKey = H;
rightKerningGroup = F;
unicode = 0046;
},
{
color = 3;
glyphname = G;
lastChange = "2019-04-05 05:20:06 +0000";
layers = (
{
anchors = (
{
name = bottom;
position = "{667, 0}";
},
{
name = top;
position = "{824, 1486}";
}
);
layerId = "0C3FD5EE-D923-4A4A-8FDE-164881635915";
paths = (
{
closed = 1;
nodes = (
"1213 708 LINE",
"776 708 LINE",
"766 615 LINE",
"1035 600 LINE",
"976 173 LINE",
"903 110 OFFCURVE",
"758 79 OFFCURVE",
"645 79 CURVE SMOOTH",
"378 79 OFFCURVE",
"272 362 OFFCURVE",
"268 631 CURVE",
"266 980 OFFCURVE",
"440 1408 OFFCURVE",
"811 1408 CURVE SMOOTH",
"973 1408 OFFCURVE",
"1044 1379 OFFCURVE",
"1096 1344 CURVE",
"1100 1146 LINE",
"1203 1146 LINE",
"1259 1436 LINE",
"1220 1448 LINE SMOOTH",
"1149 1468 OFFCURVE",
"1028 1502 OFFCURVE",
"828 1502 CURVE SMOOTH",
"434 1502 OFFCURVE",
"96 1154 OFFCURVE",
"102 612 CURVE SMOOTH",
"106 308 OFFCURVE",
"249 -16 OFFCURVE",
"602 -16 CURVE SMOOTH",
"757 -16 OFFCURVE",
"900 29 OFFCURVE",
"998 59 CURVE SMOOTH",
"1052 75 OFFCURVE",
"1087 87 OFFCURVE",
"1125 91 CURVE"
);
}
);
width = 1338;
},
{
anchors = (
{
name = bottom;
position = "{649, 0}";
},
{
name = top;
position = "{882, 1486}";
}
);
layerId = "27298932-82AF-4578-9425-6304FDB19058";
paths = (
{
closed = 1;
nodes = (
"1324 735 LINE",
"784 735 LINE",
"766 593 LINE",
"966 577 LINE",
"914 160 LINE",
"856 137 OFFCURVE",
"785 130 OFFCURVE",
"694 130 CURVE SMOOTH",
"508 130 OFFCURVE",
"425 358 OFFCURVE",
"425 642 CURVE SMOOTH",
"425 1038 OFFCURVE",
"525 1379 OFFCURVE",
"888 1379 CURVE SMOOTH",
"958 1379 OFFCURVE",
"1015 1363 OFFCURVE",
"1063 1336 CURVE",
"1073 1113 LINE",
"1303 1113 LINE",
"1366 1436 LINE",
"1307 1448 LINE",
"1222 1468 OFFCURVE",
"1127 1504 OFFCURVE",
"884 1504 CURVE SMOOTH",
"341 1504 OFFCURVE",
"57 1148 OFFCURVE",
"67 612 CURVE SMOOTH",
"73 281 OFFCURVE",
"233 -16 OFFCURVE",
"629 -16 CURVE SMOOTH",
"810 -16 OFFCURVE",
"939 20 OFFCURVE",
"1052 50 CURVE",
"1110 66 OFFCURVE",
"1194 78 OFFCURVE",
"1236 82 CURVE"
);
}
);
width = 1400;
}
);
leftKerningGroup = O;
rightKerningGroup = G;
unicode = 0047;
},
{
glyphname = Gstroke;
lastChange = "2019-04-05 05:20:06 +0000";
layers = (
{
anchors = (
{
name = bottom;
position = "{605, 0}";
},
{
name = top;
position = "{824, 1486}";
}
);
layerId = "0C3FD5EE-D923-4A4A-8FDE-164881635915";
paths = (
{
closed = 1;
nodes = (
"1213 708 LINE",
"776 708 LINE",
"766 615 LINE",
"1035 600 LINE",
"976 173 LINE",
"903 110 OFFCURVE",
"758 79 OFFCURVE",
"645 79 CURVE SMOOTH",
"378 79 OFFCURVE",
"272 362 OFFCURVE",
"268 631 CURVE",
"266 980 OFFCURVE",
"440 1408 OFFCURVE",
"811 1408 CURVE SMOOTH",
"973 1408 OFFCURVE",
"1044 1379 OFFCURVE",
"1096 1344 CURVE",
"1100 1146 LINE",
"1203 1146 LINE",
"1259 1436 LINE",
"1220 1448 LINE SMOOTH",
"1149 1468 OFFCURVE",
"1028 1502 OFFCURVE",
"828 1502 CURVE SMOOTH",
"434 1502 OFFCURVE",
"96 1154 OFFCURVE",
"102 612 CURVE SMOOTH",
"106 308 OFFCURVE",
"249 -16 OFFCURVE",
"602 -16 CURVE SMOOTH",
"757 -16 OFFCURVE",
"900 29 OFFCURVE",
"998 59 CURVE SMOOTH",
"1052 75 OFFCURVE",
"1087 87 OFFCURVE",
"1125 91 CURVE"
);
},
{
closed = 1;
nodes = (
"726 342 LINE",
"1342 342 LINE",
"1361 455 LINE",
"745 455 LINE"
);
}
);
width = 1338;
},
{
anchors = (
{
name = bottom;
position = "{647, 0}";
},
{
name = top;
position = "{882, 1486}";
}
);
layerId = "27298932-82AF-4578-9425-6304FDB19058";
paths = (
{
closed = 1;
nodes = (
"1324 735 LINE",
"784 735 LINE",
"766 593 LINE",
"966 577 LINE",
"914 160 LINE",
"856 137 OFFCURVE",
"785 130 OFFCURVE",
"694 130 CURVE SMOOTH",
"508 130 OFFCURVE",
"425 358 OFFCURVE",
"425 642 CURVE SMOOTH",
"425 1038 OFFCURVE",
"525 1379 OFFCURVE",
"888 1379 CURVE SMOOTH",
"958 1379 OFFCURVE",
"1015 1363 OFFCURVE",
"1063 1336 CURVE",
"1073 1113 LINE",
"1303 1113 LINE",
"1366 1436 LINE",
"1307 1448 LINE",
"1222 1468 OFFCURVE",
"1127 1504 OFFCURVE",
"884 1504 CURVE SMOOTH",
"341 1504 OFFCURVE",
"57 1148 OFFCURVE",
"67 612 CURVE SMOOTH",
"73 281 OFFCURVE",
"233 -16 OFFCURVE",
"629 -16 CURVE SMOOTH",
"810 -16 OFFCURVE",
"939 20 OFFCURVE",
"1052 50 CURVE",
"1110 66 OFFCURVE",
"1194 78 OFFCURVE",
"1236 82 CURVE"
);
},
{
closed = 1;
nodes = (
"697 309 LINE",
"1429 309 LINE",
"1465 471 LINE",
"730 471 LINE"
);
}
);
width = 1400;
}
);
leftKerningGroup = O;
leftMetricsKey = G;
widthMetricsKey = G;
rightKerningGroup = Gstroke;
unicode = 01E4;
},
{
color = 3;
glyphname = H;
lastChange = "2019-04-05 05:20:06 +0000";
layers = (
{
anchors = (
{
name = bottom;
position = "{654, 0}";
},
{
name = top;
position = "{842, 1486}";
}
);
background = {
paths = (
{
closed = 1;
nodes = (
"212 1486 LINE",
"204 1406 LINE",
"326 1386 LINE",
"152 94 LINE",
"4 70 LINE",
"-4 0 LINE",
"226 0 LINE SMOOTH",
"280 0 OFFCURVE",
"386 -6 OFFCURVE",
"430 -8 CURVE SMOOTH",
"460 -10 OFFCURVE",
"512 -14 OFFCURVE",
"538 -16 CURVE SMOOTH",
"1004 -52 OFFCURVE",
"1316 382 OFFCURVE",
"1310 900 CURVE",
"1306 1260 OFFCURVE",
"1146 1502 OFFCURVE",
"742 1502 CURVE SMOOTH",
"650 1502 OFFCURVE",
"556 1488 OFFCURVE",
"462 1486 CURVE"
);
},
{
closed = 1;
nodes = (
"486 1390 LINE",
"546 1398 OFFCURVE",
"638 1408 OFFCURVE",
"708 1408 CURVE SMOOTH",
"1022 1408 OFFCURVE",
"1140 1254 OFFCURVE",
"1146 886 CURVE",
"1150 494 OFFCURVE",
"972 98 OFFCURVE",
"582 80 CURVE",
"514 80 OFFCURVE",
"390 90 OFFCURVE",
"312 106 CURVE"
);
}
);
};
layerId = "0C3FD5EE-D923-4A4A-8FDE-164881635915";
paths = (
{
closed = 1;
nodes = (
"486 1386 LINE",
"626 1406 LINE",
"634 1486 LINE",
"212 1486 LINE",
"204 1406 LINE",
"326 1386 LINE",
"152 94 LINE",
"4 70 LINE",
"-4 0 LINE",
"450 0 LINE",
"456 70 LINE",
"310 94 LINE"
);
},
{
closed = 1;
nodes = (
"1010 94 LINE",
"844 70 LINE",
"838 0 LINE",
"1304 0 LINE",
"1310 70 LINE",
"1166 94 LINE",
"1338 1386 LINE",
"1474 1406 LINE",
"1484 1486 LINE",
"1054 1486 LINE",
"1044 1406 LINE",
"1182 1386 LINE"
);
},
{
closed = 1;
nodes = (
"380 706 LINE",
"1144 706 LINE",
"1144 810 LINE",
"380 810 LINE"
);
}
);
width = 1450;
},
{
anchors = (
{
name = bottom;
position = "{741, 0}";
},
{
name = top;
position = "{929, 1486}";
}
);
layerId = "27298932-82AF-4578-9425-6304FDB19058";
paths = (
{
closed = 1;
nodes = (
"643 1355 LINE",
"818 1379 LINE",
"830 1486 LINE",
"177 1486 LINE",
"163 1379 LINE",
"305 1355 LINE",
"138 130 LINE",
"2 102 LINE",
"-8 0 LINE",
"638 0 LINE",
"646 102 LINE",
"476 130 LINE"
);
},
{
closed = 1;
nodes = (
"1000 130 LINE",
"854 102 LINE",
"840 0 LINE",
"1480 0 LINE",
"1492 102 LINE",
"1340 130 LINE",
"1506 1356 LINE",
"1654 1378 LINE",
"1666 1486 LINE",
"1028 1486 LINE",
"1016 1378 LINE",
"1166 1356 LINE"
);
},
{
closed = 1;
nodes = (
"500 688 LINE",
"1162 688 LINE",
"1162 824 LINE",
"500 824 LINE"
);
}
);
width = 1602;
}
);
leftKerningGroup = H;
rightKerningGroup = H;
unicode = 0048;
},
{
color = 3;
glyphname = Hbar;
lastChange = "2019-04-05 05:20:06 +0000";
layers = (
{
background = {
anchors = (
{
name = bottom;
position = "{654, 0}";
},
{
name = top;
position = "{842, 1486}";
}
);
paths = (
{
closed = 1;
nodes = (
"500 1386 LINE",
"640 1406 LINE",
"648 1486 LINE",
"226 1486 LINE",
"218 1406 LINE",
"340 1386 LINE",
"166 94 LINE",
"18 70 LINE",
"10 0 LINE",
"464 0 LINE",
"470 70 LINE",
"324 94 LINE"
);
},
{
closed = 1;
nodes = (
"1024 94 LINE",
"858 70 LINE",
"852 0 LINE",
"1318 0 LINE",
"1324 70 LINE",
"1180 94 LINE",
"1352 1386 LINE",
"1488 1406 LINE",
"1498 1486 LINE",
"1068 1486 LINE",
"1058 1406 LINE",
"1196 1386 LINE"
);
},
{
closed = 1;
nodes = (
"394 706 LINE",
"1158 706 LINE",
"1158 810 LINE",
"394 810 LINE"
);
}
);
};
layerId = "0C3FD5EE-D923-4A4A-8FDE-164881635915";
paths = (
{
closed = 1;
nodes = (
"218 1406 LINE",
"338 1386 LINE",
"302 1104 LINE",
"94 1104 LINE",
"84 1000 LINE",
"288 1000 LINE",
"166 94 LINE",
"18 70 LINE",
"10 0 LINE",
"464 0 LINE",
"470 70 LINE",
"324 94 LINE",
"397 638 LINE",
"1095 638 LINE",
"1024 94 LINE",
"858 70 LINE",
"852 0 LINE",
"1318 0 LINE",
"1324 70 LINE",
"1180 94 LINE",
"1299 1000 LINE",
"1507 1000 LINE",
"1517 1104 LINE",
"1314 1104 LINE",
"1352 1386 LINE",
"1488 1406 LINE",
"1498 1486 LINE",
"1066 1486 LINE",
"1058 1406 LINE",
"1196 1386 LINE",
"1158 1104 LINE",
"462 1104 LINE",
"498 1386 LINE",
"640 1406 LINE",
"648 1486 LINE",
"228 1486 LINE"
);
},
{
closed = 1;
nodes = (
"1144 1000 LINE",
"1110 740 LINE",
"412 740 LINE",
"446 1000 LINE"
);
}
);
width = 1461;
},
{
background = {
anchors = (
{
name = bottom;
position = "{741, 0}";
},
{
name = top;
position = "{929, 1486}";
}
);
paths = (
{
closed = 1;
nodes = (
"642 1356 LINE",
"818 1378 LINE",
"830 1486 LINE",
"178 1486 LINE",
"164 1378 LINE",
"304 1356 LINE",
"138 130 LINE",
"2 102 LINE",
"-8 0 LINE",
"638 0 LINE",
"646 102 LINE",
"476 130 LINE"
);
},
{
closed = 1;
nodes = (
"1000 130 LINE",
"834 102 LINE",
"820 0 LINE",
"1480 0 LINE",
"1492 102 LINE",
"1340 130 LINE",
"1504 1356 LINE",
"1654 1378 LINE",
"1666 1486 LINE",
"1008 1486 LINE",
"996 1378 LINE",
"1166 1356 LINE"
);
},
{
closed = 1;
nodes = (
"500 688 LINE",
"1162 688 LINE",
"1162 824 LINE",
"500 824 LINE"
);
}
);
};
layerId = "27298932-82AF-4578-9425-6304FDB19058";
paths = (
{
closed = 1;
nodes = (
"164 1378 LINE",
"304 1356 LINE",
"270 1110 LINE",
"96 1110 LINE",
"78 973 LINE",
"252 972 LINE",
"138 130 LINE",
"5 103 LINE",
"-5 0 LINE",
"638 0 LINE",
"646 102 LINE",
"476 130 LINE",
"539 609 LINE",
"1064 608 LINE",
"1000 130 LINE",
"834 102 LINE",
"820 0 LINE",
"1480 0 LINE",
"1492 102 LINE",
"1340 130 LINE",
"1452 972 LINE",
"1634 972 LINE",
"1648 1110 LINE",
"1470 1110 LINE",
"1504 1356 LINE",
"1654 1378 LINE",
"1666 1486 LINE",
"1008 1486 LINE",
"996 1378 LINE",
"1166 1356 LINE",
"1130 1110 LINE",
"608 1110 LINE",
"642 1356 LINE",
"818 1378 LINE",
"830 1486 LINE",
"176 1486 LINE"
);
},
{
closed = 1;
nodes = (
"1114 972 LINE",
"1084 746 LINE",
"557 746 LINE",
"590 972 LINE"
);
}
);
width = 1599;
}
);
leftKerningGroup = H;
rightKerningGroup = H;
unicode = 0126;
},
{
color = 3;
glyphname = I;
lastChange = "2019-04-05 05:20:06 +0000";
layers = (
{
anchors = (
{
name = bottom;
position = "{246, 0}";
},
{
name = btm;
position = "{373, -164}";
},
{
name = ogonek;
position = "{348, 20}";
},
{
name = top;
position = "{438, 1486}";
},
{
name = topleft;
position = "{150, 1486}";
}
);
layerId = "0C3FD5EE-D923-4A4A-8FDE-164881635915";
paths = (
{
closed = 1;
nodes = (
"206 1406 LINE",
"340 1386 LINE",
"176 94 LINE",
"30 70 LINE",
"24 0 LINE",
"483 0 LINE",
"489 70 LINE",
"336 94 LINE",
"498 1386 LINE",
"647 1406 LINE",
"655 1486 LINE",
"216 1486 LINE"
);
}
);
width = 642;
},
{
anchors = (
{
name = bottom;
position = "{302, 0}";
},
{
name = btm;
position = "{482, -164}";
},
{
name = ogonek;
position = "{524, 20}";
},
{
name = top;
position = "{500, 1486}";
},
{
name = topleft;
position = "{173, 1486}";
}
);
layerId = "27298932-82AF-4578-9425-6304FDB19058";
paths = (
{
closed = 1;
nodes = (
"167 1379 LINE",
"309 1355 LINE",
"149 131 LINE",
"3 103 LINE",
"-11 0 LINE",
"651 0 LINE",
"657 103 LINE",
"487 131 LINE",
"647 1355 LINE",
"815 1379 LINE",
"826 1486 LINE",
"177 1486 LINE"
);
}
);
width = 772;
}
);
leftKerningGroup = I;
rightKerningGroup = I;
unicode = 0049;
},
{
color = 3;
glyphname = J;
lastChange = "2019-04-05 05:20:06 +0000";
layers = (
{
anchors = (
{
name = btm;
position = "{262, -164}";
},
{
name = top;
position = "{458, 1486}";
}
);
layerId = "0C3FD5EE-D923-4A4A-8FDE-164881635915";
paths = (
{
closed = 1;
nodes = (
"668 1406 LINE",
"677 1486 LINE",
"213 1486 LINE",
"202 1406 LINE",
"348 1388 LINE",
"300 962 OFFCURVE",
"248 406 OFFCURVE",
"182 88 CURVE SMOOTH",
"149 -70 OFFCURVE",
"-2 -219 OFFCURVE",
"-180 -266 CURVE",
"-151 -336 LINE",
"51 -302 OFFCURVE",
"255 -189 OFFCURVE",
"335 74 CURVE SMOOTH",
"364 166 OFFCURVE",
"430 738 OFFCURVE",
"502 1388 CURVE"
);
}
);
width = 648;
},
{
anchors = (
{
name = btm;
position = "{264, -164}";
},
{
name = top;
position = "{493, 1486}";
}
);
layerId = "27298932-82AF-4578-9425-6304FDB19058";
paths = (
{
closed = 1;
nodes = (
"761 1379 LINE",
"777 1486 LINE",
"162 1486 LINE",
"148 1379 LINE",
"290 1353 LINE",
"240 929 OFFCURVE",
"180 462 OFFCURVE",
"122 84 CURVE SMOOTH",
"102 -45 OFFCURVE",
"4 -168 OFFCURVE",
"-182 -233 CURVE",
"-131 -336 LINE",
"158 -298 OFFCURVE",
"368 -138 OFFCURVE",
"448 74 CURVE SMOOTH",
"482 166 OFFCURVE",
"556 804 OFFCURVE",
"624 1355 CURVE"
);
}
);
width = 702;
}
);
leftKerningGroup = J;
rightKerningGroup = J;
unicode = 004A;
},
{
color = 3;
glyphname = K;
lastChange = "2019-04-05 05:20:06 +0000";
layers = (
{
anchors = (
{
name = bottom;
position = "{658, 0}";
},
{
name = top;
position = "{802, 1486}";
}
);
layerId = "0C3FD5EE-D923-4A4A-8FDE-164881635915";
paths = (
{
closed = 1;
nodes = (
"1222 1388 LINE",
"1338 1406 LINE",
"1352 1486 LINE",
"946 1486 LINE",
"936 1406 LINE",
"1070 1386 LINE",
"378 626 LINE",
"484 1386 LINE",
"632 1406 LINE",
"642 1486 LINE",
"202 1486 LINE",
"192 1406 LINE",
"326 1386 LINE",
"150 94 LINE",
"4 70 LINE",
"-6 0 LINE",
"454 0 LINE",
"460 70 LINE",
"308 94 LINE",
"358 472 LINE",
"574 702 LINE",
"626 610 OFFCURVE",
"708 452 OFFCURVE",
"772 342 CURVE SMOOTH",
"850 202 OFFCURVE",
"942 4 OFFCURVE",
"988 0 CURVE",
"1220 0 LINE",
"1232 76 LINE",
"1112 108 LINE",
"1070 132 OFFCURVE",
"1030 210 OFFCURVE",
"912 404 CURVE",
"844 510 OFFCURVE",
"736 704 OFFCURVE",
"674 806 CURVE"
);
}
);
width = 1292;
},
{
anchors = (
{
name = bottom;
position = "{784, 0}";
},
{
name = top;
position = "{907, 1486}";
}
);
layerId = "27298932-82AF-4578-9425-6304FDB19058";
paths = (
{
closed = 1;
nodes = (
"1399 1355 LINE",
"1522 1379 LINE",
"1534 1486 LINE",
"1047 1486 LINE",
"1037 1381 LINE",
"1169 1355 LINE",
"549 700 LINE",
"637 1355 LINE",
"812 1379 LINE",
"824 1486 LINE",
"177 1486 LINE",
"165 1379 LINE",
"305 1355 LINE",
"145 131 LINE",
"3 103 LINE",
"-11 0 LINE",
"643 0 LINE",
"652 103 LINE",
"477 131 LINE",
"523 484 LINE",
"714 669 LINE",
"785 529 OFFCURVE",
"846 332 OFFCURVE",
"898 204 CURVE SMOOTH",
"961 49 OFFCURVE",
"981 6 OFFCURVE",
"1039 0 CURVE",
"1459 0 LINE",
"1471 103 LINE",
"1357 131 LINE",
"1311 157 OFFCURVE",
"1255 268 OFFCURVE",
"1162 452 CURVE SMOOTH",
"1108 556 OFFCURVE",
"1000 807 OFFCURVE",
"942 897 CURVE"
);
}
);
width = 1476;
}
);
leftKerningGroup = H;
leftMetricsKey = H;
rightKerningGroup = K;
unicode = 004B;
},
{
color = 3;
glyphname = L;
lastChange = "2019-04-05 05:20:06 +0000";
layers = (
{
anchors = (
{
name = bottom;
position = "{526, 0}";
},
{
name = car;
position = "{824, 1110}";
},
{
name = top;
position = "{438, 1486}";
}
);
layerId = "0C3FD5EE-D923-4A4A-8FDE-164881635915";
paths = (
{
closed = 1;
nodes = (
"192 1406 LINE",
"326 1386 LINE",
"150 94 LINE",
"4 70 LINE",
"-2 0 LINE",
"954 0 LINE",
"1052 428 LINE",
"960 446 LINE",
"828 102 LINE",
"308 94 LINE",
"484 1386 LINE",
"658 1406 LINE",
"664 1486 LINE",
"202 1486 LINE"
);
}
);
width = 1132;
},
{
anchors = (
{
name = bottom;
position = "{580, 0}";
},
{
name = car;
position = "{848, 1110}";
},
{
name = top;
position = "{508, 1486}";
}
);
layerId = "27298932-82AF-4578-9425-6304FDB19058";
paths = (
{
closed = 1;
nodes = (
"163 1379 LINE",
"305 1355 LINE",
"145 131 LINE",
"11 103 LINE",
"-1 0 LINE",
"1114 0 LINE",
"1215 560 LINE",
"1042 582 LINE",
"838 145 LINE",
"481 125 LINE",
"643 1355 LINE",
"821 1379 LINE",
"833 1486 LINE",
"177 1486 LINE"
);
}
);
width = 1247;
}
);
leftKerningGroup = H;
leftMetricsKey = H;
rightKerningGroup = L;
unicode = 004C;
},
{
glyphname = Lslash;
lastChange = "2019-04-05 05:20:06 +0000";
layers = (
{
layerId = "0C3FD5EE-D923-4A4A-8FDE-164881635915";
paths = (
{
closed = 1;
nodes = (
"207 1408 LINE",
"339 1388 LINE",
"263 777 LINE",
"339 879 LINE",
"41 752 LINE",
"71 652 LINE",
"328 757 LINE",
"266 808 LINE",
"177 96 LINE",
"32 72 LINE",
"26 2 LINE",
"982 2 LINE",
"1076 431 LINE",
"983 449 LINE",
"856 105 LINE",
"335 96 LINE",
"434 879 LINE",
"366 773 LINE",
"904 1002 LINE",
"869 1108 LINE",
"371 893 LINE",
"431 850 LINE",
"499 1388 LINE",
"671 1408 LINE",
"678 1488 LINE",
"215 1488 LINE"
);
}
);
width = 1146;
},
{
layerId = "27298932-82AF-4578-9425-6304FDB19058";
paths = (
{
closed = 1;
nodes = (
"154 1381 LINE",
"295 1357 LINE",
"210 708 LINE",
"355 895 LINE",
"-1 750 LINE",
"55 596 LINE",
"357 717 LINE",
"227 843 LINE",
"135 133 LINE",
"1 105 LINE",
"-11 2 LINE",
"1104 2 LINE",
"1206 562 LINE",
"1032 584 LINE",
"829 147 LINE",
"472 127 LINE",
"583 985 LINE",
"457 757 LINE",
"939 948 LINE",
"885 1112 LINE",
"455 939 LINE",
"566 854 LINE",
"634 1357 LINE",
"811 1381 LINE",
"823 1488 LINE",
"168 1488 LINE"
);
}
);
width = 1237;
}
);
leftKerningGroup = H;
rightKerningGroup = L;
unicode = 0141;
},
{
color = 3;
glyphname = M;
lastChange = "2019-04-05 05:20:06 +0000";
layers = (
{
anchors = (
{
name = bottom;
position = "{823, 0}";
},
{
name = top;
position = "{1019, 1486}";
}
);
layerId = "0C3FD5EE-D923-4A4A-8FDE-164881635915";
paths = (
{
closed = 1;
nodes = (
"870 238 LINE",
"838 465 LINE",
"661 1486 LINE",
"258 1486 LINE",
"248 1406 LINE",
"430 1386 LINE",
"110 94 LINE",
"-57 70 LINE",
"-65 0 LINE",
"427 0 LINE",
"434 70 LINE",
"242 94 LINE",
"450 1008 LINE",
"532 1401 LINE",
"597 1016 LINE",
"774 0 LINE",
"869 0 LINE",
"1338 1040 LINE",
"1491 1403 LINE",
"1462 992 LINE",
"1432 92 LINE",
"1250 70 LINE",
"1242 0 LINE",
"1750 0 LINE",
"1756 70 LINE",
"1590 94 LINE",
"1618 1386 LINE",
"1796 1406 LINE",
"1804 1486 LINE",
"1424 1486 LINE",
"1318 1220 OFFCURVE",
"1071 727 OFFCURVE",
"967 461 CURVE"
);
}
);
width = 1816;
},
{
anchors = (
{
name = bottom;
position = "{867, 0}";
},
{
name = top;
position = "{1121, 1486}";
}
);
layerId = "27298932-82AF-4578-9425-6304FDB19058";
paths = (
{
closed = 1;
nodes = (
"1015 490 LINE",
"995 658 LINE",
"894 1486 LINE",
"229 1486 LINE",
"213 1379 LINE",
"403 1355 LINE",
"85 131 LINE",
"-73 103 LINE",
"-85 0 LINE",
"511 0 LINE",
"521 103 LINE",
"302 131 LINE",
"506 979 LINE",
"590 1355 LINE",
"644 989 LINE",
"778 0 LINE",
"942 -2 LINE",
"1371 1013 LINE",
"1511 1356 LINE",
"1491 965 LINE",
"1436 131 LINE",
"1252 105 LINE",
"1244 0 LINE",
"1934 0 LINE",
"1942 103 LINE",
"1766 131 LINE",
"1804 1355 LINE",
"1976 1379 LINE",
"1990 1486 LINE",
"1395 1486 LINE",
"1287 1212 OFFCURVE",
"1178 931 OFFCURVE",
"1071 658 CURVE"
);
}
);
width = 2004;
}
);
leftKerningGroup = M;
rightKerningGroup = M;
unicode = 004D;
},
{
glyphname = N;
lastChange = "2019-04-05 05:37:00 +0000";
layers = (
{
anchors = (
{
name = bottom;
position = "{693, 0}";
},
{
name = top;
position = "{845, 1486}";
}
);
layerId = "0C3FD5EE-D923-4A4A-8FDE-164881635915";
paths = (
{
closed = 1;
nodes = (
"187 1406 LINE",
"329 1386 LINE",
"155 92 LINE",
"19 70 LINE",
"13 0 LINE",
"447 0 LINE",
"453 70 LINE",
"285 94 LINE",
"427 1328 LINE",
"505 1102 LINE",
"997 0 LINE",
"1153 0 LINE",
"1343 1386 LINE",
"1495 1406 LINE",
"1501 1486 LINE",
"1075 1486 LINE",
"1065 1406 LINE",
"1221 1388 LINE",
"1075 152 LINE",
"997 376 LINE",
"501 1486 LINE",
"199 1486 LINE"
);
}
);
width = 1443;
},
{
anchors = (
{
name = bottom;
position = "{724, 0}";
},
{
name = top;
position = "{928, 1486}";
}
);
layerId = "27298932-82AF-4578-9425-6304FDB19058";
paths = (
{
closed = 1;
nodes = (
"162 1378 LINE",
"308 1356 LINE",
"144 130 LINE",
"2 102 LINE",
"-6 0 LINE",
"510 0 LINE",
"520 102 LINE",
"346 130 LINE",
"470 1246 LINE",
"550 960 LINE",
"920 0 LINE",
"1278 0 LINE",
"1470 1356 LINE",
"1616 1378 LINE",
"1626 1486 LINE",
"1138 1486 LINE",
"1128 1378 LINE",
"1276 1356 LINE",
"1134 274 LINE",
"1062 518 LINE",
"710 1486 LINE",
"178 1486 LINE"
);
}
);
width = 1544;
}
);
leftKerningGroup = H;
leftMetricsKey = H;
rightKerningGroup = H;
unicode = 004E;
},
{
color = 3;
glyphname = Eng;
lastChange = "2019-04-05 05:20:06 +0000";
layers = (
{
background = {
anchors = (
{
name = bottom;
position = "{705, 0}";
},
{
name = top;
position = "{859, 1486}";
}
);
paths = (
{
closed = 1;
nodes = (
"200 1406 LINE",
"342 1386 LINE",
"172 92 LINE",
"36 70 LINE",
"30 0 LINE",
"464 0 LINE",
"470 70 LINE",
"302 94 LINE",
"440 1328 LINE",
"518 1102 LINE",
"1010 0 LINE",
"1164 0 LINE",
"1356 1386 LINE",
"1508 1406 LINE",
"1514 1486 LINE",
"1088 1486 LINE",
"1078 1406 LINE",
"1234 1388 LINE",
"1088 152 LINE",
"1010 376 LINE",
"514 1486 LINE",
"212 1486 LINE"
);
}
);
};
layerId = "0C3FD5EE-D923-4A4A-8FDE-164881635915";
paths = (
{
closed = 1;
nodes = (
"934 -348 OFFCURVE",
"1138 -184 OFFCURVE",
"1170 50 CURVE SMOOTH",
"1356 1386 LINE",
"1508 1406 LINE",
"1514 1486 LINE",
"1088 1486 LINE",
"1078 1406 LINE",
"1234 1388 LINE",
"1085 183 LINE",
"1012 380 LINE",
"514 1486 LINE",
"212 1486 LINE",
"200 1406 LINE",
"342 1386 LINE",
"172 92 LINE",
"36 70 LINE",
"30 0 LINE",
"464 0 LINE",
"470 70 LINE",
"302 94 LINE",
"440 1328 LINE",
"520 1098 LINE",
"1016 0 LINE",
"968 -184 OFFCURVE",
"840 -250 OFFCURVE",
"680 -292 CURVE",
"707 -363 LINE"
);
}
);
width = 1477;
},
{
background = {
anchors = (
{
name = bottom;
position = "{725, 0}";
},
{
name = top;
position = "{930, 1486}";
}
);
paths = (
{
closed = 1;
nodes = (
"164 1378 LINE",
"310 1356 LINE",
"146 130 LINE",
"4 102 LINE",
"-4 0 LINE",
"512 0 LINE",
"522 102 LINE",
"348 130 LINE",
"472 1246 LINE",
"552 960 LINE",
"912 0 LINE",
"1270 0 LINE",
"1478 1356 LINE",
"1618 1378 LINE",
"1628 1486 LINE",
"1140 1486 LINE",
"1130 1378 LINE",
"1278 1356 LINE",
"1136 274 LINE",
"1064 518 LINE",
"712 1486 LINE",
"180 1486 LINE"
);
}
);
};
layerId = "27298932-82AF-4578-9425-6304FDB19058";
paths = (
{
closed = 1;
nodes = (
"1061 -452 OFFCURVE",
"1232 -244 OFFCURVE",
"1284 94 CURVE SMOOTH",
"1478 1356 LINE",
"1618 1378 LINE",
"1628 1486 LINE",
"1140 1486 LINE",
"1130 1378 LINE",
"1278 1356 LINE",
"1136 348 LINE",
"1064 592 LINE",
"710 1486 LINE",
"180 1486 LINE",
"164 1378 LINE",
"310 1356 LINE",
"146 130 LINE",
"4 102 LINE",
"-4 0 LINE",
"512 0 LINE",
"522 102 LINE",
"348 130 LINE",
"472 1248 LINE",
"545 1007 LINE",
"978 0 LINE",
"988 -194 OFFCURVE",
"842 -331 OFFCURVE",
"715 -356 CURVE",
"760 -470 LINE"
);
}
);
width = 1524;
}
);
leftKerningGroup = H;
rightKerningGroup = H;
unicode = 014A;
},
{
color = 3;
glyphname = O;
lastChange = "2019-04-05 05:20:06 +0000";
layers = (
{
anchors = (
{
name = bottom;
position = "{599, 0}";
},
{
name = btm;
position = "{580, -166}";
},
{
name = center;
position = "{706, 744}";
},
{
name = ogonek;
position = "{783, 20}";
},
{
name = top;
position = "{802, 1486}";
},
{
name = topleft;
position = "{170, 1486}";
},
{
name = topright;
position = "{1139, 1486}";
}
);
layerId = "0C3FD5EE-D923-4A4A-8FDE-164881635915";
paths = (
{
closed = 1;
nodes = (
"391 1506 OFFCURVE",
"96 1121 OFFCURVE",
"104 605 CURVE SMOOTH",
"109 256 OFFCURVE",
"275 -20 OFFCURVE",
"598 -20 CURVE SMOOTH",
"998 -20 OFFCURVE",
"1285 374 OFFCURVE",
"1276 885 CURVE SMOOTH",
"1270 1223 OFFCURVE",
"1114 1506 OFFCURVE",
"785 1506 CURVE SMOOTH"
);
},
{
closed = 1;
nodes = (
"989 1407 OFFCURVE",
"1103 1184 OFFCURVE",
"1109 862 CURVE SMOOTH",
"1117 408 OFFCURVE",
"904 76 OFFCURVE",
"620 76 CURVE SMOOTH",
"397 76 OFFCURVE",
"269 299 OFFCURVE",
"265 626 CURVE SMOOTH",
"259 1080 OFFCURVE",
"476 1407 OFFCURVE",
"761 1407 CURVE SMOOTH"
);
}
);
width = 1330;
},
{
anchors = (
{
name = bottom;
position = "{640, 0}";
},
{
name = btm;
position = "{608, -166}";
},
{
name = center;
position = "{742, 744}";
},
{
name = ogonek;
position = "{856, 20}";
},
{
name = top;
position = "{838, 1486}";
},
{
name = topleft;
position = "{174, 1486}";
},
{
name = topright;
position = "{1256, 1486}";
}
);
layerId = "27298932-82AF-4578-9425-6304FDB19058";
paths = (
{
closed = 1;
nodes = (
"312 1506 OFFCURVE",
"68 1076 OFFCURVE",
"68 622 CURVE SMOOTH",
"68 258 OFFCURVE",
"228 -20 OFFCURVE",
"630 -20 CURVE SMOOTH",
"1178 -20 OFFCURVE",
"1400 428 OFFCURVE",
"1400 872 CURVE SMOOTH",
"1400 1208 OFFCURVE",
"1246 1506 OFFCURVE",
"836 1506 CURVE SMOOTH"
);
},
{
closed = 1;
nodes = (
"972 1384 OFFCURVE",
"1034 1188 OFFCURVE",
"1034 860 CURVE SMOOTH",
"1034 438 OFFCURVE",
"914 100 OFFCURVE",
"658 100 CURVE SMOOTH",
"468 100 OFFCURVE",
"432 380 OFFCURVE",
"432 634 CURVE SMOOTH",
"432 1014 OFFCURVE",
"566 1384 OFFCURVE",
"808 1384 CURVE SMOOTH"
);
}
);
width = 1416;
}
);
leftKerningGroup = O;
rightKerningGroup = O;
unicode = 004F;
},
{
glyphname = Ohorn;
lastChange = "2019-04-05 05:20:06 +0000";
layers = (
{
anchors = (
{
name = bottom;
position = "{600, 0}";
},
{
name = top;
position = "{784, 1486}";
}
);
layerId = "0C3FD5EE-D923-4A4A-8FDE-164881635915";
paths = (
{
closed = 1;
nodes = (
"107 256 OFFCURVE",
"275 -20 OFFCURVE",
"598 -20 CURVE SMOOTH",
"998 -20 OFFCURVE",
"1283 374 OFFCURVE",
"1276 885 CURVE SMOOTH",
"1272 1094 OFFCURVE",
"1212 1280 OFFCURVE",
"1088 1394 CURVE",
"1104 1306 LINE",
"1335 1321 OFFCURVE",
"1455 1488 OFFCURVE",
"1455 1686 CURVE SMOOTH",
"1455 1700 OFFCURVE",
"1453 1714 OFFCURVE",
"1450 1730 CURVE",
"1314 1730 LINE",
"1316 1722 OFFCURVE",
"1316 1709 OFFCURVE",
"1316 1695 CURVE SMOOTH",
"1316 1585 OFFCURVE",
"1246 1388 OFFCURVE",
"970 1414 CURVE",
"1010 1395 OFFCURVE",
"1057 1385 OFFCURVE",
"1074 1414 CURVE",
"988 1477 OFFCURVE",
"881 1506 OFFCURVE",
"785 1506 CURVE SMOOTH",
"391 1506 OFFCURVE",
"96 1121 OFFCURVE",
"104 605 CURVE SMOOTH"
);
},
{
closed = 1;
nodes = (
"259 1080 OFFCURVE",
"476 1407 OFFCURVE",
"761 1407 CURVE SMOOTH",
"1008 1407 OFFCURVE",
"1103 1184 OFFCURVE",
"1109 862 CURVE SMOOTH",
"1117 408 OFFCURVE",
"904 76 OFFCURVE",
"620 76 CURVE SMOOTH",
"397 76 OFFCURVE",
"269 299 OFFCURVE",
"265 626 CURVE SMOOTH"
);
}
);
width = 1319;
},
{
anchors = (
{
name = bottom;
position = "{640, 0}";
},
{
name = top;
position = "{824, 1486}";
}
);
layerId = "27298932-82AF-4578-9425-6304FDB19058";
paths = (
{
closed = 1;
nodes = (
"68 258 OFFCURVE",
"228 -20 OFFCURVE",
"630 -20 CURVE SMOOTH",
"1178 -20 OFFCURVE",
"1400 428 OFFCURVE",
"1400 872 CURVE SMOOTH",
"1400 1086 OFFCURVE",
"1338 1284 OFFCURVE",
"1186 1400 CURVE",
"1200 1268 LINE",
"1382 1282 OFFCURVE",
"1588 1432 OFFCURVE",
"1588 1688 CURVE SMOOTH",
"1588 1702 OFFCURVE",
"1586 1718 OFFCURVE",
"1582 1730 CURVE",
"1346 1730 LINE",
"1348 1716 OFFCURVE",
"1352 1700 OFFCURVE",
"1352 1672 CURVE SMOOTH",
"1352 1544 OFFCURVE",
"1242 1360 OFFCURVE",
"980 1408 CURVE",
"1020 1376 OFFCURVE",
"1110 1362 OFFCURVE",
"1174 1408 CURVE",
"1082 1468 OFFCURVE",
"968 1506 OFFCURVE",
"836 1506 CURVE SMOOTH",
"312 1506 OFFCURVE",
"68 1076 OFFCURVE",
"68 622 CURVE SMOOTH"
);
},
{
closed = 1;
nodes = (
"432 1014 OFFCURVE",
"566 1384 OFFCURVE",
"808 1384 CURVE SMOOTH",
"974 1384 OFFCURVE",
"1034 1188 OFFCURVE",
"1034 860 CURVE SMOOTH",
"1034 438 OFFCURVE",
"914 100 OFFCURVE",
"658 100 CURVE SMOOTH",
"468 100 OFFCURVE",
"432 380 OFFCURVE",
"432 634 CURVE SMOOTH"
);
}
);
width = 1452;
}
);
leftKerningGroup = O;
leftMetricsKey = O;
rightKerningGroup = O;
unicode = 01A0;
},
{
glyphname = Oslash;
lastChange = "2019-04-05 05:37:06 +0000";
layers = (
{
anchors = (
{
name = top;
position = "{783, 1486}";
}
);
layerId = "0C3FD5EE-D923-4A4A-8FDE-164881635915";
paths = (
{
closed = 1;
nodes = (
"1221 1618 LINE",
"1152 1653 LINE",
"1026 1444 LINE",
"959 1484 OFFCURVE",
"878 1508 OFFCURVE",
"785 1508 CURVE SMOOTH",
"391 1508 OFFCURVE",
"96 1123 OFFCURVE",
"104 607 CURVE SMOOTH",
"105 410 OFFCURVE",
"160 236 OFFCURVE",
"265 123 CURVE",
"118 -123 LINE",
"189 -160 LINE",
"328 67 LINE",
"400 12 OFFCURVE",
"491 -18 OFFCURVE",
"598 -18 CURVE SMOOTH",
"998 -18 OFFCURVE",
"1283 376 OFFCURVE",
"1276 887 CURVE SMOOTH",
"1272 1095 OFFCURVE",
"1212 1282 OFFCURVE",
"1089 1394 CURVE"
);
},
{
closed = 1;
nodes = (
"352 246 LINE",
"297 341 OFFCURVE",
"267 473 OFFCURVE",
"265 628 CURVE SMOOTH",
"259 1082 OFFCURVE",
"476 1409 OFFCURVE",
"761 1409 CURVE SMOOTH",
"841 1409 OFFCURVE",
"908 1379 OFFCURVE",
"959 1327 CURVE"
);
},
{
closed = 1;
nodes = (
"1006 1269 LINE",
"1071 1174 OFFCURVE",
"1107 1034 OFFCURVE",
"1109 864 CURVE SMOOTH",
"1117 410 OFFCURVE",
"904 78 OFFCURVE",
"620 78 CURVE SMOOTH",
"528 78 OFFCURVE",
"454 115 OFFCURVE",
"397 181 CURVE"
);
}
);
width = 1329;
},
{
anchors = (
{
name = top;
position = "{830, 1486}";
}
);
layerId = "27298932-82AF-4578-9425-6304FDB19058";
paths = (
{
closed = 1;
nodes = (
"1336 1586 LINE",
"1248 1640 LINE",
"1118 1446 LINE",
"1042 1486 OFFCURVE",
"948 1508 OFFCURVE",
"834 1508 CURVE SMOOTH",
"312 1508 OFFCURVE",
"68 1078 OFFCURVE",
"68 624 CURVE SMOOTH",
"68 410 OFFCURVE",
"124 228 OFFCURVE",
"248 112 CURVE",
"120 -74 LINE",
"206 -130 LINE",
"330 52 LINE",
"410 8 OFFCURVE",
"510 -18 OFFCURVE",
"630 -18 CURVE SMOOTH",
"1178 -18 OFFCURVE",
"1400 430 OFFCURVE",
"1400 874 CURVE SMOOTH",
"1400 1082 OFFCURVE",
"1340 1274 OFFCURVE",
"1200 1390 CURVE"
);
},
{
closed = 1;
nodes = (
"450 374 LINE",
"438 454 OFFCURVE",
"432 546 OFFCURVE",
"432 636 CURVE SMOOTH",
"432 1016 OFFCURVE",
"566 1386 OFFCURVE",
"808 1386 CURVE SMOOTH",
"890 1386 OFFCURVE",
"948 1336 OFFCURVE",
"984 1242 CURVE"
);
},
{
closed = 1;
nodes = (
"1012 1132 LINE",
"1028 1058 OFFCURVE",
"1034 966 OFFCURVE",
"1034 862 CURVE SMOOTH",
"1034 440 OFFCURVE",
"914 102 OFFCURVE",
"658 102 CURVE SMOOTH",
"568 102 OFFCURVE",
"512 164 OFFCURVE",
"480 258 CURVE"
);
}
);
width = 1415;
}
);
leftKerningGroup = O;
leftMetricsKey = O;
rightKerningGroup = O;
rightMetricsKey = O;
unicode = 00D8;
},
{
color = 3;
glyphname = OE;
lastChange = "2019-04-05 05:37:06 +0000";
layers = (
{
layerId = "0C3FD5EE-D923-4A4A-8FDE-164881635915";
paths = (
{
closed = 1;
nodes = (
"1089 0 LINE",
"1933 0 LINE",
"2003 301 LINE",
"1917 324 LINE",
"1824 114 LINE",
"1252 95 LINE",
"1330 716 LINE",
"1762 702 LINE",
"1773 838 LINE",
"1338 817 LINE",
"1414 1400 LINE",
"1876 1387 LINE",
"1910 1196 LINE",
"1998 1196 LINE",
"2005 1486 LINE",
"1268 1486 LINE",
"1227 1151 LINE",
"1164 1360 OFFCURVE",
"1019 1504 OFFCURVE",
"795 1504 CURVE SMOOTH",
"404 1504 OFFCURVE",
"94 1125 OFFCURVE",
"104 607 CURVE SMOOTH",
"109 217 OFFCURVE",
"307 -20 OFFCURVE",
"612 -20 CURVE SMOOTH",
"826 -20 OFFCURVE",
"1006 103 OFFCURVE",
"1124 297 CURVE"
);
},
{
closed = 1;
nodes = (
"1002 1405 OFFCURVE",
"1118 1220 OFFCURVE",
"1124 852 CURVE SMOOTH",
"1129 408 OFFCURVE",
"919 76 OFFCURVE",
"634 76 CURVE",
"383 77 OFFCURVE",
"272 307 OFFCURVE",
"266 674 CURVE SMOOTH",
"262 1087 OFFCURVE",
"487 1405 OFFCURVE",
"771 1405 CURVE SMOOTH"
);
}
);
width = 2085;
},
{
layerId = "27298932-82AF-4578-9425-6304FDB19058";
paths = (
{
closed = 1;
nodes = (
"1106 0 LINE",
"2136 0 LINE",
"2204 440 LINE",
"2000 454 LINE",
"1892 176 LINE",
"1436 142 LINE",
"1512 712 LINE",
"1940 676 LINE",
"1978 904 LINE",
"1530 858 LINE",
"1596 1370 LINE",
"1936 1346 LINE",
"1978 1128 LINE",
"2178 1128 LINE",
"2212 1486 LINE",
"1294 1486 LINE",
"1268 1290 LINE",
"1196 1420 OFFCURVE",
"1066 1506 OFFCURVE",
"844 1506 CURVE SMOOTH",
"310 1506 OFFCURVE",
"66 1076 OFFCURVE",
"68 622 CURVE SMOOTH",
"68 256 OFFCURVE",
"234 -20 OFFCURVE",
"642 -20 CURVE SMOOTH",
"858 -20 OFFCURVE",
"1016 52 OFFCURVE",
"1126 166 CURVE"
);
},
{
closed = 1;
nodes = (
"996 1384 OFFCURVE",
"1062 1190 OFFCURVE",
"1062 860 CURVE SMOOTH",
"1062 438 OFFCURVE",
"938 100 OFFCURVE",
"668 100 CURVE SMOOTH",
"460 100 OFFCURVE",
"424 380 OFFCURVE",
"422 636 CURVE SMOOTH",
"422 1014 OFFCURVE",
"564 1384 OFFCURVE",
"818 1384 CURVE SMOOTH"
);
}
);
width = 2276;
}
);
leftKerningGroup = O;
leftMetricsKey = O;
rightKerningGroup = E;
rightMetricsKey = E;
unicode = 0152;
},
{
color = 3;
glyphname = P;
lastChange = "2019-04-05 05:20:06 +0000";
layers = (
{
anchors = (
{
name = btm;
position = "{220, -166}";
},
{
name = top;
position = "{720, 1486}";
}
);
layerId = "0C3FD5EE-D923-4A4A-8FDE-164881635915";
paths = (
{
closed = 1;
nodes = (
"198 1486 LINE",
"190 1406 LINE",
"326 1386 LINE",
"152 94 LINE",
"14 70 LINE",
"6 0 LINE",
"498 0 LINE",
"504 70 LINE",
"312 94 LINE",
"372 538 LINE",
"408 536 OFFCURVE",
"482 530 OFFCURVE",
"568 530 CURVE SMOOTH",
"902 530 OFFCURVE",
"1180 738 OFFCURVE",
"1174 1122 CURVE SMOOTH",
"1170 1380 OFFCURVE",
"1012 1502 OFFCURVE",
"722 1502 CURVE SMOOTH",
"618 1502 OFFCURVE",
"532 1486 OFFCURVE",
"424 1486 CURVE SMOOTH"
);
},
{
closed = 1;
nodes = (
"486 1388 LINE",
"550 1398 OFFCURVE",
"636 1406 OFFCURVE",
"696 1408 CURVE SMOOTH",
"928 1414 OFFCURVE",
"1008 1306 OFFCURVE",
"1006 1110 CURVE SMOOTH",
"1002 796 OFFCURVE",
"864 628 OFFCURVE",
"574 626 CURVE SMOOTH",
"518 626 OFFCURVE",
"442 632 OFFCURVE",
"384 642 CURVE"
);
}
);
width = 1170;
},
{
anchors = (
{
name = btm;
position = "{278, -166}";
},
{
name = top;
position = "{798, 1486}";
}
);
layerId = "27298932-82AF-4578-9425-6304FDB19058";
paths = (
{
closed = 1;
nodes = (
"177 1486 LINE",
"163 1379 LINE",
"307 1355 LINE",
"138 130 LINE",
"-12 102 LINE",
"-22 0 LINE",
"710 0 LINE",
"716 102 LINE",
"478 130 LINE",
"528 508 LINE",
"554 504 OFFCURVE",
"591 503 OFFCURVE",
"650 503 CURVE SMOOTH",
"1082 503 OFFCURVE",
"1357 721 OFFCURVE",
"1345 1105 CURVE SMOOTH",
"1337 1363 OFFCURVE",
"1194 1502 OFFCURVE",
"802 1502 CURVE SMOOTH",
"702 1502 OFFCURVE",
"600 1486 OFFCURVE",
"483 1486 CURVE SMOOTH"
);
},
{
closed = 1;
nodes = (
"642 1370 LINE",
"676 1376 OFFCURVE",
"706 1378 OFFCURVE",
"732 1378 CURVE SMOOTH",
"890 1378 OFFCURVE",
"999 1298 OFFCURVE",
"999 1098 CURVE SMOOTH",
"997 819 OFFCURVE",
"870 634 OFFCURVE",
"660 630 CURVE SMOOTH",
"627 630 OFFCURVE",
"584 628 OFFCURVE",
"544 638 CURVE"
);
}
);
width = 1310;
}
);
leftKerningGroup = H;
leftMetricsKey = H;
rightKerningGroup = P;
unicode = 0050;
},
{
color = 3;
glyphname = Thorn;
lastChange = "2019-04-05 05:20:06 +0000";
layers = (
{
background = {
anchors = (
{
name = bottom;
position = "{654, 0}";
},
{
name = top;
position = "{842, 1486}";
}
);
paths = (
{
closed = 1;
nodes = (
"486 1386 LINE",
"626 1406 LINE",
"634 1486 LINE",
"212 1486 LINE",
"204 1406 LINE",
"326 1386 LINE",
"152 94 LINE",
"4 70 LINE",
"-4 0 LINE",
"450 0 LINE",
"456 70 LINE",
"310 94 LINE"
);
},
{
closed = 1;
nodes = (
"1010 94 LINE",
"844 70 LINE",
"838 0 LINE",
"1304 0 LINE",
"1310 70 LINE",
"1166 94 LINE",
"1338 1386 LINE",
"1474 1406 LINE",
"1484 1486 LINE",
"1054 1486 LINE",
"1044 1406 LINE",
"1182 1386 LINE"
);
},
{
closed = 1;
nodes = (
"380 706 LINE",
"1144 706 LINE",
"1144 810 LINE",
"380 810 LINE"
);
}
);
};
layerId = "0C3FD5EE-D923-4A4A-8FDE-164881635915";
paths = (
{
closed = 1;
nodes = (
"486 1386 LINE",
"632 1406 LINE",
"640 1486 LINE",
"212 1486 LINE",
"204 1406 LINE",
"326 1386 LINE",
"152 94 LINE",
"4 70 LINE",
"-4 0 LINE",
"456 0 LINE",
"462 70 LINE",
"310 94 LINE",
"342 316 LINE",
"378 312 OFFCURVE",
"452 308 OFFCURVE",
"564 308 CURVE SMOOTH",
"896 308 OFFCURVE",
"1146 506 OFFCURVE",
"1146 810 CURVE SMOOTH",
"1146 1044 OFFCURVE",
"992 1182 OFFCURVE",
"694 1182 CURVE SMOOTH",
"620 1182 OFFCURVE",
"528 1176 OFFCURVE",
"456 1164 CURVE"
);
},
{
closed = 1;
nodes = (
"442 1068 LINE",
"492 1078 OFFCURVE",
"592 1086 OFFCURVE",
"652 1086 CURVE SMOOTH",
"906 1086 OFFCURVE",
"982 980 OFFCURVE",
"986 778 CURVE",
"988 556 OFFCURVE",
"834 400 OFFCURVE",
"564 400 CURVE SMOOTH",
"484 400 OFFCURVE",
"412 404 OFFCURVE",
"354 412 CURVE"
);
}
);
width = 1186;
},
{
layerId = "27298932-82AF-4578-9425-6304FDB19058";
paths = (
{
closed = 1;
nodes = (
"638 1356 LINE",
"818 1379 LINE",
"830 1486 LINE",
"177 1486 LINE",
"163 1379 LINE",
"305 1355 LINE",
"138 130 LINE",
"0 102 LINE",
"-10 0 LINE",
"638 0 LINE",
"644 102 LINE",
"470 130 LINE",
"498 340 LINE",
"518 338 OFFCURVE",
"563 335 OFFCURVE",
"623 335 CURVE SMOOTH",
"1201 335 OFFCURVE",
"1305 603 OFFCURVE",
"1305 820 CURVE SMOOTH",
"1305 982 OFFCURVE",
"1204 1141 OFFCURVE",
"820 1141 CURVE SMOOTH",
"750 1141 OFFCURVE",
"672 1138 OFFCURVE",
"606 1134 CURVE"
);
},
{
closed = 1;
nodes = (
"588 1002 LINE",
"628 1010 OFFCURVE",
"687 1016 OFFCURVE",
"714 1016 CURVE SMOOTH",
"858 1016 OFFCURVE",
"946 939 OFFCURVE",
"950 793 CURVE SMOOTH",
"956 562 OFFCURVE",
"813 468 OFFCURVE",
"640 468 CURVE SMOOTH",
"595 468 OFFCURVE",
"554 468 OFFCURVE",
"516 468 CURVE"
);
}
);
width = 1279;
}
);
leftKerningGroup = H;
leftMetricsKey = H;
rightKerningGroup = D;
unicode = 00DE;
},
{
color = 3;
glyphname = Q;
lastChange = "2019-04-05 05:37:06 +0000";
layers = (
{
anchors = (
{
name = btm;
position = "{644, -164}";
},
{
name = top;
position = "{861, 1660}";
}
);
layerId = "0C3FD5EE-D923-4A4A-8FDE-164881635915";
paths = (
{
closed = 1;
nodes = (
"1179 -161 LINE",
"1121 -189 OFFCURVE",
"1024 -210 OFFCURVE",
"957 -210 CURVE SMOOTH",
"808 -210 OFFCURVE",
"669 -181 OFFCURVE",
"667 -13 CURVE",
"1028 27 OFFCURVE",
"1282 403 OFFCURVE",
"1275 887 CURVE SMOOTH",
"1269 1223 OFFCURVE",
"1115 1506 OFFCURVE",
"786 1506 CURVE SMOOTH",
"390 1506 OFFCURVE",
"97 1123 OFFCURVE",
"103 607 CURVE SMOOTH",
"108 268 OFFCURVE",
"264 1 OFFCURVE",
"566 -18 CURVE",
"528 -244 OFFCURVE",
"705 -355 OFFCURVE",
"904 -355 CURVE SMOOTH",
"1018 -355 OFFCURVE",
"1133 -309 OFFCURVE",
"1181 -271 CURVE"
);
},
{
closed = 1;
nodes = (
"988 1407 OFFCURVE",
"1104 1184 OFFCURVE",
"1110 862 CURVE SMOOTH",
"1117 410 OFFCURVE",
"905 77 OFFCURVE",
"619 77 CURVE SMOOTH",
"396 77 OFFCURVE",
"269 299 OFFCURVE",
"266 628 CURVE SMOOTH",
"260 1082 OFFCURVE",
"477 1407 OFFCURVE",
"760 1407 CURVE SMOOTH"
);
}
);
width = 1330;
},
{
anchors = (
{
name = btm;
position = "{692, -164}";
},
{
name = top;
position = "{927, 1660}";
}
);
layerId = "27298932-82AF-4578-9425-6304FDB19058";
paths = (
{
closed = 1;
nodes = (
"1365 -139 LINE",
"1282 -167 OFFCURVE",
"1143 -177 OFFCURVE",
"1085 -177 CURVE SMOOTH",
"925 -177 OFFCURVE",
"799 -163 OFFCURVE",
"801 -4 CURVE",
"1225 78 OFFCURVE",
"1401 476 OFFCURVE",
"1401 872 CURVE SMOOTH",
"1401 1208 OFFCURVE",
"1249 1504 OFFCURVE",
"837 1504 CURVE SMOOTH",
"314 1504 OFFCURVE",
"68 1074 OFFCURVE",
"68 622 CURVE SMOOTH",
"68 229 OFFCURVE",
"248 -19 OFFCURVE",
"643 -20 CURVE",
"583 -279 OFFCURVE",
"701 -426 OFFCURVE",
"990 -426 CURVE SMOOTH",
"1186 -426 OFFCURVE",
"1315 -358 OFFCURVE",
"1367 -318 CURVE"
);
},
{
closed = 1;
nodes = (
"974 1385 OFFCURVE",
"1035 1188 OFFCURVE",
"1036 860 CURVE SMOOTH",
"1036 439 OFFCURVE",
"917 97 OFFCURVE",
"662 97 CURVE SMOOTH",
"469 97 OFFCURVE",
"434 379 OFFCURVE",
"434 632 CURVE SMOOTH",
"433 1014 OFFCURVE",
"568 1385 OFFCURVE",
"811 1385 CURVE SMOOTH"
);
}
);
width = 1416;
}
);
leftKerningGroup = O;
leftMetricsKey = O;
widthMetricsKey = O;
rightKerningGroup = Q;
unicode = 0051;
},
{
color = 3;
glyphname = R;
lastChange = "2019-04-05 05:20:06 +0000";
layers = (
{
anchors = (
{
name = bottom;
position = "{648, 0}";
},
{
name = top;
position = "{734, 1486}";
}
);
layerId = "0C3FD5EE-D923-4A4A-8FDE-164881635915";
paths = (
{
closed = 1;
nodes = (
"198 1486 LINE",
"190 1406 LINE",
"322 1386 LINE",
"160 94 LINE",
"28 70 LINE",
"22 0 LINE",
"492 0 LINE",
"498 70 LINE",
"314 94 LINE",
"378 656 LINE",
"434 654 OFFCURVE",
"590 656 OFFCURVE",
"606 656 CURVE SMOOTH",
"694 654 OFFCURVE",
"792 430 OFFCURVE",
"870 244 CURVE SMOOTH",
"948 48 OFFCURVE",
"988 0 OFFCURVE",
"1020 0 CURVE SMOOTH",
"1190 0 LINE",
"1200 80 LINE",
"1102 80 OFFCURVE",
"1092 110 OFFCURVE",
"990 332 CURVE SMOOTH",
"948 414 OFFCURVE",
"862 630 OFFCURVE",
"772 670 CURVE",
"1012 732 OFFCURVE",
"1168 926 OFFCURVE",
"1164 1168 CURVE SMOOTH",
"1160 1398 OFFCURVE",
"1020 1502 OFFCURVE",
"694 1502 CURVE SMOOTH",
"606 1502 OFFCURVE",
"520 1486 OFFCURVE",
"436 1486 CURVE SMOOTH"
);
},
{
closed = 1;
nodes = (
"476 1392 LINE",
"530 1400 OFFCURVE",
"636 1408 OFFCURVE",
"666 1408 CURVE SMOOTH",
"918 1408 OFFCURVE",
"1000 1324 OFFCURVE",
"1004 1156 CURVE SMOOTH",
"1008 934 OFFCURVE",
"866 762 OFFCURVE",
"636 748 CURVE SMOOTH",
"598 746 OFFCURVE",
"440 748 OFFCURVE",
"390 750 CURVE"
);
}
);
width = 1266;
},
{
anchors = (
{
name = bottom;
position = "{714, 0}";
},
{
name = top;
position = "{771, 1486}";
}
);
background = {
anchors = (
{
name = bottom;
position = "{741, 0}";
},
{
name = top;
position = "{929, 1486}";
}
);
paths = (
{
closed = 1;
nodes = (
"642 1356 LINE",
"818 1378 LINE",
"830 1486 LINE",
"178 1486 LINE",
"164 1378 LINE",
"304 1356 LINE",
"138 130 LINE",
"2 102 LINE",
"-8 0 LINE",
"638 0 LINE",
"646 102 LINE",
"476 130 LINE"
);
},
{
closed = 1;
nodes = (
"1000 130 LINE",
"854 102 LINE",
"840 0 LINE",
"1480 0 LINE",
"1492 102 LINE",
"1340 130 LINE",
"1506 1356 LINE",
"1654 1378 LINE",
"1666 1486 LINE",
"1028 1486 LINE",
"1016 1378 LINE",
"1166 1356 LINE"
);
},
{
closed = 1;
nodes = (
"500 688 LINE",
"1162 688 LINE",
"1162 824 LINE",
"500 824 LINE"
);
}
);
};
layerId = "27298932-82AF-4578-9425-6304FDB19058";
paths = (
{
closed = 1;
nodes = (
"177 1486 LINE",
"164 1378 LINE",
"305 1355 LINE",
"138 130 LINE",
"2 102 LINE",
"-8 0 LINE",
"642 0 LINE",
"650 102 LINE",
"468 130 LINE",
"539 646 LINE",
"594 644 OFFCURVE",
"694 642 OFFCURVE",
"710 646 CURVE",
"752 600 OFFCURVE",
"802 376 OFFCURVE",
"860 196 CURVE SMOOTH",
"892 102 OFFCURVE",
"938 0 OFFCURVE",
"987 0 CURVE",
"1361 0 LINE",
"1373 103 LINE",
"1253 105 OFFCURVE",
"1228 224 OFFCURVE",
"1174 359 CURVE SMOOTH",
"1144 439 OFFCURVE",
"1052 640 OFFCURVE",
"984 668 CURVE",
"1202 716 OFFCURVE",
"1356 918 OFFCURVE",
"1356 1129 CURVE SMOOTH",
"1356 1363 OFFCURVE",
"1235 1502 OFFCURVE",
"834 1502 CURVE SMOOTH",
"663 1502 OFFCURVE",
"608 1486 OFFCURVE",
"479 1486 CURVE SMOOTH"
);
},
{
closed = 1;
nodes = (
"637 1371 LINE",
"681 1377 OFFCURVE",
"741 1379 OFFCURVE",
"763 1379 CURVE SMOOTH",
"913 1379 OFFCURVE",
"1004 1305 OFFCURVE",
"1010 1150 CURVE SMOOTH",
"1020 907 OFFCURVE",
"904 792 OFFCURVE",
"718 778 CURVE SMOOTH",
"692 776 OFFCURVE",
"591 777 OFFCURVE",
"557 781 CURVE"
);
}
);
width = 1421;
}
);
leftKerningGroup = H;
leftMetricsKey = H;
rightKerningGroup = R;
unicode = 0052;
},
{
color = 3;
glyphname = S;
lastChange = "2019-04-05 05:20:06 +0000";
layers = (
{
anchors = (
{
name = bottom;
position = "{452, 0}";
},
{
name = top;
position = "{658, 1486}";
}
);
layerId = "0C3FD5EE-D923-4A4A-8FDE-164881635915";
paths = (
{
closed = 1;
nodes = (
"880 1166 LINE",
"968 1166 LINE",
"1016 1422 LINE",
"962 1458 OFFCURVE",
"846 1502 OFFCURVE",
"658 1502 CURVE SMOOTH",
"406 1502 OFFCURVE",
"188 1348 OFFCURVE",
"190 1112 CURVE SMOOTH",
"192 892 OFFCURVE",
"376 776 OFFCURVE",
"528 682 CURVE SMOOTH",
"660 600 OFFCURVE",
"788 510 OFFCURVE",
"780 342 CURVE SMOOTH",
"772 154 OFFCURVE",
"590 72 OFFCURVE",
"434 72 CURVE SMOOTH",
"338 72 OFFCURVE",
"234 96 OFFCURVE",
"178 134 CURVE",
"170 338 LINE",
"76 338 LINE",
"30 64 LINE",
"78 28 OFFCURVE",
"248 -22 OFFCURVE",
"428 -22 CURVE SMOOTH",
"720 -22 OFFCURVE",
"942 148 OFFCURVE",
"940 416 CURVE SMOOTH",
"938 620 OFFCURVE",
"770 720 OFFCURVE",
"622 816 CURVE SMOOTH",
"486 904 OFFCURVE",
"340 988 OFFCURVE",
"342 1162 CURVE SMOOTH",
"344 1328 OFFCURVE",
"502 1408 OFFCURVE",
"644 1408 CURVE SMOOTH",
"750 1408 OFFCURVE",
"830 1386 OFFCURVE",
"872 1356 CURVE"
);
}
);
width = 1047;
},
{
anchors = (
{
name = bottom;
position = "{473, 0}";
},
{
name = top;
position = "{698, 1486}";
}
);
layerId = "27298932-82AF-4578-9425-6304FDB19058";
paths = (
{
closed = 1;
nodes = (
"870 1138 LINE",
"1060 1138 LINE",
"1110 1432 LINE",
"1050 1468 OFFCURVE",
"920 1504 OFFCURVE",
"708 1504 CURVE SMOOTH",
"390 1504 OFFCURVE",
"152 1352 OFFCURVE",
"152 1070 CURVE SMOOTH",
"152 866 OFFCURVE",
"298 730 OFFCURVE",
"470 620 CURVE SMOOTH",
"650 506 OFFCURVE",
"728 428 OFFCURVE",
"728 320 CURVE SMOOTH",
"728 190 OFFCURVE",
"658 102 OFFCURVE",
"464 102 CURVE SMOOTH",
"380 102 OFFCURVE",
"300 126 OFFCURVE",
"256 164 CURVE",
"244 382 LINE",
"56 382 LINE",
"-2 74 LINE",
"44 38 OFFCURVE",
"254 -22 OFFCURVE",
"470 -22 CURVE SMOOTH",
"860 -22 OFFCURVE",
"1052 194 OFFCURVE",
"1052 432 CURVE SMOOTH",
"1052 628 OFFCURVE",
"912 756 OFFCURVE",
"748 860 CURVE SMOOTH",
"558 980 OFFCURVE",
"460 1058 OFFCURVE",
"460 1184 CURVE SMOOTH",
"460 1304 OFFCURVE",
"542 1382 OFFCURVE",
"684 1382 CURVE SMOOTH",
"754 1382 OFFCURVE",
"814 1366 OFFCURVE",
"854 1334 CURVE"
);
}
);
width = 1116;
}
);
leftKerningGroup = S;
rightKerningGroup = S;
unicode = 0053;
},
{
color = 3;
glyphname = Germandbls;
lastChange = "2019-04-05 05:20:06 +0000";
layers = (
{
layerId = "0C3FD5EE-D923-4A4A-8FDE-164881635915";
paths = (
{
closed = 1;
nodes = (
"160 91 LINE",
"38 68 LINE",
"32 -11 LINE",
"308 -11 LINE",
"419 922 LINE SMOOTH",
"455 1228 OFFCURVE",
"615 1405 OFFCURVE",
"844 1403 CURVE",
"1019 1401 OFFCURVE",
"1094 1324 OFFCURVE",
"1118 1286 CURVE",
"805 839 LINE",
"801 812 LINE",
"927 769 OFFCURVE",
"1184 622 OFFCURVE",
"1184 400 CURVE SMOOTH",
"1184 234 OFFCURVE",
"1099 70 OFFCURVE",
"902 70 CURVE SMOOTH",
"802 70 OFFCURVE",
"708 105 OFFCURVE",
"682 146 CURVE",
"664 310 LINE",
"570 310 LINE",
"536 60 LINE",
"589 54 OFFCURVE",
"697 -21 OFFCURVE",
"885 -21 CURVE SMOOTH",
"1151 -21 OFFCURVE",
"1354 181 OFFCURVE",
"1354 444 CURVE SMOOTH",
"1354 705 OFFCURVE",
"1109 822 OFFCURVE",
"949 896 CURVE",
"1265 1331 LINE",
"1271 1379 LINE",
"1194 1437 OFFCURVE",
"1094 1493 OFFCURVE",
"874 1493 CURVE SMOOTH",
"532 1493 OFFCURVE",
"297 1225 OFFCURVE",
"257 891 CURVE SMOOTH"
);
}
);
width = 1428;
},
{
layerId = "27298932-82AF-4578-9425-6304FDB19058";
paths = (
{
closed = 1;
nodes = (
"69 131 LINE",
"-55 103 LINE",
"-65 0 LINE",
"397 0 LINE",
"526 945 LINE SMOOTH",
"564 1226 OFFCURVE",
"657 1390 OFFCURVE",
"877 1390 CURVE SMOOTH",
"1001 1390 OFFCURVE",
"1069 1285 OFFCURVE",
"1050 1191 CURVE",
"792 850 LINE",
"781 781 LINE",
"887 718 OFFCURVE",
"1062 593 OFFCURVE",
"1062 408 CURVE SMOOTH",
"1062 197 OFFCURVE",
"995 103 OFFCURVE",
"904 103 CURVE SMOOTH",
"839 103 OFFCURVE",
"799 127 OFFCURVE",
"781 179 CURVE",
"753 343 LINE",
"597 343 LINE",
"559 54 LINE",
"631 48 OFFCURVE",
"748 -6 OFFCURVE",
"896 -6 CURVE SMOOTH",
"1169 -6 OFFCURVE",
"1410 163 OFFCURVE",
"1410 467 CURVE SMOOTH",
"1410 727 OFFCURVE",
"1216 849 OFFCURVE",
"1031 900 CURVE",
"1345 1289 LINE",
"1355 1366 LINE",
"1310 1426 OFFCURVE",
"1187 1509 OFFCURVE",
"911 1509 CURVE SMOOTH",
"503 1509 OFFCURVE",
"215 1240 OFFCURVE",
"175 906 CURVE"
);
}
);
width = 1428;
}
);
leftKerningGroup = S;
rightKerningGroup = S;
unicode = 1E9E;
},
{
color = 3;
glyphname = Schwa;
lastChange = "2019-04-05 05:20:06 +0000";
layers = (
{
layerId = "0C3FD5EE-D923-4A4A-8FDE-164881635915";
paths = (
{
closed = 1;
nodes = (
"178 1139 LINE",
"264 1139 LINE",
"324 1311 LINE",
"379 1356 OFFCURVE",
"499 1413 OFFCURVE",
"677 1413 CURVE SMOOTH",
"889 1413 OFFCURVE",
"1040 1230 OFFCURVE",
"1039 890 CURVE SMOOTH",
"1039 842 OFFCURVE",
"1037 796 OFFCURVE",
"1033 752 CURVE",
"110 751 LINE",
"88 695 OFFCURVE",
"72 582 OFFCURVE",
"72 468 CURVE SMOOTH",
"72 156 OFFCURVE",
"224 -22 OFFCURVE",
"487 -22 CURVE SMOOTH",
"875 -22 OFFCURVE",
"1203 368 OFFCURVE",
"1203 904 CURVE SMOOTH",
"1203 1262 OFFCURVE",
"1027 1502 OFFCURVE",
"721 1502 CURVE SMOOTH",
"447 1502 OFFCURVE",
"334 1429 OFFCURVE",
"224 1423 CURVE"
);
},
{
closed = 1;
nodes = (
"1023 664 LINE",
"966 270 OFFCURVE",
"770 70 OFFCURVE",
"534 70 CURVE SMOOTH",
"328 70 OFFCURVE",
"229 251 OFFCURVE",
"229 442 CURVE SMOOTH",
"229 521 OFFCURVE",
"243 595 OFFCURVE",
"259 664 CURVE"
);
}
);
width = 1273;
},
{
layerId = "27298932-82AF-4578-9425-6304FDB19058";
paths = (
{
closed = 1;
nodes = (
"180 1090 LINE",
"359 1090 LINE",
"452 1291 LINE SMOOTH",
"485 1358 OFFCURVE",
"548 1391 OFFCURVE",
"659 1391 CURVE SMOOTH",
"873 1391 OFFCURVE",
"945 1141 OFFCURVE",
"930 791 CURVE",
"930 780 OFFCURVE",
"928 771 OFFCURVE",
"927 760 CURVE",
"114 760 LINE",
"94 706 OFFCURVE",
"68 582 OFFCURVE",
"68 468 CURVE SMOOTH",
"68 156 OFFCURVE",
"253 -22 OFFCURVE",
"558 -22 CURVE SMOOTH",
"944 -22 OFFCURVE",
"1274 368 OFFCURVE",
"1274 904 CURVE SMOOTH",
"1274 1264 OFFCURVE",
"1069 1502 OFFCURVE",
"765 1502 CURVE SMOOTH",
"401 1502 OFFCURVE",
"328 1414 OFFCURVE",
"224 1414 CURVE"
);
},
{
closed = 1;
nodes = (
"916 627 LINE",
"869 235 OFFCURVE",
"743 107 OFFCURVE",
"602 107 CURVE SMOOTH",
"446 107 OFFCURVE",
"397 235 OFFCURVE",
"397 434 CURVE SMOOTH",
"397 503 OFFCURVE",
"409 555 OFFCURVE",
"425 627 CURVE"
);
}
);
width = 1346;
}
);
leftKerningGroup = O;
rightKerningGroup = O;
unicode = 018F;
},
{
color = 3;
glyphname = T;
lastChange = "2019-04-05 05:20:06 +0000";
layers = (
{
anchors = (
{
name = bottom;
position = "{556, 0}";
},
{
name = top;
position = "{748, 1486}";
}
);
layerId = "0C3FD5EE-D923-4A4A-8FDE-164881635915";
paths = (
{
closed = 1;
nodes = (
"117 1042 LINE",
"209 1044 LINE",
"295 1384 LINE",
"654 1400 LINE",
"486 94 LINE",
"246 76 LINE",
"242 0 LINE",
"882 0 LINE",
"888 76 LINE",
"644 94 LINE",
"813 1400 LINE",
"1166 1384 LINE",
"1167 1040 LINE",
"1255 1042 LINE",
"1299 1486 LINE",
"188 1486 LINE"
);
}
);
width = 1267;
},
{
anchors = (
{
name = bottom;
position = "{645, 0}";
},
{
name = top;
position = "{835, 1486}";
}
);
layerId = "27298932-82AF-4578-9425-6304FDB19058";
paths = (
{
closed = 1;
nodes = (
"102 920 LINE",
"282 920 LINE",
"430 1345 LINE",
"650 1369 LINE",
"484 131 LINE",
"250 111 LINE",
"236 0 LINE",
"1062 0 LINE",
"1072 111 LINE",
"822 131 LINE",
"988 1369 LINE",
"1195 1345 LINE",
"1213 920 LINE",
"1386 920 LINE",
"1468 1486 LINE",
"190 1486 LINE"
);
}
);
width = 1409;
}
);
leftKerningGroup = T;
rightKerningGroup = T;
unicode = 0054;
},
{
glyphname = Tbar;
lastChange = "2019-04-05 05:20:06 +0000";
layers = (
{
anchors = (
{
name = btm;
position = "{536, -166}";
},
{
name = top;
position = "{742, 1660}";
}
);
layerId = "0C3FD5EE-D923-4A4A-8FDE-164881635915";
paths = (
{
closed = 1;
nodes = (
"81 1042 LINE",
"173 1044 LINE",
"260 1384 LINE",
"620 1400 LINE",
"544 816 LINE",
"274 816 LINE",
"260 711 LINE",
"530 711 LINE",
"452 94 LINE",
"212 76 LINE",
"207 0 LINE",
"849 0 LINE",
"856 76 LINE",
"610 94 LINE",
"689 711 LINE",
"1002 711 LINE",
"1014 816 LINE",
"703 816 LINE",
"779 1400 LINE",
"1143 1384 LINE",
"1129 1040 LINE",
"1217 1042 LINE",
"1276 1486 LINE",
"153 1486 LINE"
);
}
);
width = 1209;
},
{
anchors = (
{
name = btm;
position = "{635, -166}";
},
{
name = top;
position = "{841, 1660}";
}
);
layerId = "27298932-82AF-4578-9425-6304FDB19058";
paths = (
{
closed = 1;
nodes = (
"70 920 LINE",
"250 920 LINE",
"409 1345 LINE",
"647 1371 LINE",
"573 810 LINE",
"340 810 LINE",
"324 665 LINE",
"553 665 LINE",
"483 131 LINE",
"239 103 LINE",
"225 0 LINE",
"1086 0 LINE",
"1096 103 LINE",
"821 131 LINE",
"891 665 LINE",
"1128 665 LINE",
"1144 810 LINE",
"909 810 LINE",
"985 1371 LINE",
"1223 1345 LINE",
"1240 920 LINE",
"1414 920 LINE",
"1497 1486 LINE",
"166 1486 LINE"
);
}
);
width = 1409;
}
);
leftKerningGroup = T;
rightKerningGroup = T;
unicode = 0166;
},
{
color = 3;
glyphname = U;
lastChange = "2019-04-05 05:20:06 +0000";
layers = (
{
anchors = (
{
name = bottom;
position = "{616, 0}";
},
{
name = ogonek;
position = "{790, 20}";
},
{
name = top;
position = "{800, 1486}";
},
{
name = topright;
position = "{1452, 1486}";
}
);
layerId = "0C3FD5EE-D923-4A4A-8FDE-164881635915";
paths = (
{
closed = 1;
nodes = (
"1290 1388 LINE",
"1415 1406 LINE",
"1423 1486 LINE",
"1033 1486 LINE",
"1025 1406 LINE",
"1157 1386 LINE",
"1059 612 LINE SMOOTH",
"1013 246 OFFCURVE",
"876 71 OFFCURVE",
"627 71 CURVE SMOOTH",
"423 71 OFFCURVE",
"334 201 OFFCURVE",
"326 408 CURVE SMOOTH",
"324 464 OFFCURVE",
"328 522 OFFCURVE",
"336 593 CURVE SMOOTH",
"436 1386 LINE",
"590 1406 LINE",
"599 1486 LINE",
"149 1486 LINE",
"141 1406 LINE",
"274 1388 LINE",
"174 580 LINE SMOOTH",
"167 522 OFFCURVE",
"165 466 OFFCURVE",
"167 416 CURVE SMOOTH",
"176 148 OFFCURVE",
"318 -20 OFFCURVE",
"602 -20 CURVE SMOOTH",
"938 -20 OFFCURVE",
"1135 152 OFFCURVE",
"1193 612 CURVE SMOOTH"
);
}
);
width = 1356;
},
{
anchors = (
{
name = bottom;
position = "{676, 0}";
},
{
name = ogonek;
position = "{902, 20}";
},
{
name = top;
position = "{887, 1486}";
},
{
name = topright;
position = "{1506, 1486}";
}
);
layerId = "27298932-82AF-4578-9425-6304FDB19058";
paths = (
{
closed = 1;
nodes = (
"1389 1355 LINE",
"1515 1381 LINE",
"1529 1486 LINE",
"1077 1486 LINE",
"1067 1381 LINE",
"1210 1355 LINE",
"1110 612 LINE SMOOTH",
"1064 285 OFFCURVE",
"971 118 OFFCURVE",
"731 118 CURVE SMOOTH",
"558 118 OFFCURVE",
"481 245 OFFCURVE",
"481 412 CURVE SMOOTH",
"481 458 OFFCURVE",
"487 530 OFFCURVE",
"497 608 CURVE SMOOTH",
"595 1355 LINE",
"782 1381 LINE",
"792 1486 LINE",
"138 1486 LINE",
"126 1379 LINE",
"251 1355 LINE",
"151 580 LINE SMOOTH",
"145 522 OFFCURVE",
"145 468 OFFCURVE",
"145 418 CURVE SMOOTH",
"145 173 OFFCURVE",
"291 -20 OFFCURVE",
"670 -20 CURVE SMOOTH",
"1029 -20 OFFCURVE",
"1235 152 OFFCURVE",
"1293 612 CURVE SMOOTH"
);
}
);
width = 1420;
}
);
leftKerningGroup = U;
rightKerningGroup = U;
unicode = 0055;
},
{
glyphname = Uhorn;
lastChange = "2019-04-05 05:20:06 +0000";
layers = (
{
anchors = (
{
name = bottom;
position = "{613, 0}";
},
{
name = top;
position = "{801, 1486}";
}
);
layerId = "0C3FD5EE-D923-4A4A-8FDE-164881635915";
paths = (
{
closed = 1;
nodes = (
"277 1388 LINE",
"172 580 LINE SMOOTH",
"164 522 OFFCURVE",
"162 466 OFFCURVE",
"164 416 CURVE SMOOTH",
"168 148 OFFCURVE",
"319 -20 OFFCURVE",
"603 -20 CURVE SMOOTH",
"939 -20 OFFCURVE",
"1130 152 OFFCURVE",
"1190 612 CURVE SMOOTH",
"1291 1388 LINE",
"1513 1417 OFFCURVE",
"1590 1500 OFFCURVE",
"1586 1686 CURVE",
"1586 1700 OFFCURVE",
"1584 1714 OFFCURVE",
"1582 1730 CURVE",
"1426 1730 LINE",
"1428 1722 OFFCURVE",
"1428 1710 OFFCURVE",
"1428 1696 CURVE SMOOTH",
"1428 1596 OFFCURVE",
"1383 1486 OFFCURVE",
"1219 1486 CURVE SMOOTH",
"1034 1486 LINE",
"1026 1406 LINE",
"1158 1386 LINE",
"1057 612 LINE SMOOTH",
"1012 246 OFFCURVE",
"877 70 OFFCURVE",
"628 70 CURVE SMOOTH",
"424 70 OFFCURVE",
"327 200 OFFCURVE",
"323 408 CURVE SMOOTH",
"321 464 OFFCURVE",
"323 522 OFFCURVE",
"333 593 CURVE SMOOTH",
"439 1386 LINE",
"591 1406 LINE",
"600 1486 LINE",
"149 1486 LINE",
"141 1406 LINE"
);
}
);
width = 1434;
},
{
anchors = (
{
name = bottom;
position = "{682, 0}";
},
{
name = top;
position = "{903, 1486}";
}
);
layerId = "27298932-82AF-4578-9425-6304FDB19058";
paths = (
{
closed = 1;
nodes = (
"266 1355 LINE",
"166 580 LINE SMOOTH",
"160 522 OFFCURVE",
"160 468 OFFCURVE",
"160 418 CURVE SMOOTH",
"160 173 OFFCURVE",
"306 -20 OFFCURVE",
"685 -20 CURVE SMOOTH",
"1045 -20 OFFCURVE",
"1250 152 OFFCURVE",
"1308 612 CURVE SMOOTH",
"1404 1355 LINE",
"1650 1397 OFFCURVE",
"1741 1492 OFFCURVE",
"1737 1686 CURVE",
"1737 1700 OFFCURVE",
"1735 1714 OFFCURVE",
"1733 1730 CURVE",
"1492 1730 LINE",
"1494 1722 OFFCURVE",
"1494 1710 OFFCURVE",
"1494 1696 CURVE SMOOTH",
"1494 1596 OFFCURVE",
"1458 1486 OFFCURVE",
"1294 1486 CURVE SMOOTH",
"1092 1486 LINE",
"1082 1381 LINE",
"1226 1355 LINE",
"1126 612 LINE SMOOTH",
"1080 285 OFFCURVE",
"986 101 OFFCURVE",
"746 101 CURVE SMOOTH",
"579 101 OFFCURVE",
"491 225 OFFCURVE",
"491 412 CURVE SMOOTH",
"490 458 OFFCURVE",
"498 530 OFFCURVE",
"506 608 CURVE SMOOTH",
"605 1355 LINE",
"797 1381 LINE",
"807 1486 LINE",
"138 1486 LINE",
"126 1379 LINE"
);
}
);
width = 1585;
}
);
leftKerningGroup = U;
leftMetricsKey = U;
rightKerningGroup = Uhorn;
unicode = 01AF;
},
{
color = 3;
glyphname = V;
lastChange = "2019-04-05 05:20:06 +0000";
layers = (
{
anchors = (
{
name = btm;
position = "{563, -166}";
},
{
name = top;
position = "{784, 1660}";
}
);
layerId = "0C3FD5EE-D923-4A4A-8FDE-164881635915";
paths = (
{
closed = 1;
nodes = (
"68 1406 LINE",
"186 1386 LINE",
"438 -19 LINE",
"578 -10 LINE",
"1219 1388 LINE",
"1326 1406 LINE",
"1334 1486 LINE",
"942 1486 LINE",
"934 1406 LINE",
"1088 1386 LINE",
"665 442 LINE",
"547 139 LINE",
"511 442 LINE",
"352 1386 LINE",
"547 1406 LINE",
"555 1486 LINE",
"76 1486 LINE"
);
}
);
width = 1193;
},
{
anchors = (
{
name = btm;
position = "{725, -166}";
},
{
name = top;
position = "{964, 1660}";
}
);
layerId = "27298932-82AF-4578-9425-6304FDB19058";
paths = (
{
closed = 1;
nodes = (
"66 1381 LINE",
"192 1355 LINE",
"374 -10 LINE",
"663 -10 LINE",
"1303 1355 LINE",
"1421 1379 LINE",
"1433 1486 LINE",
"948 1486 LINE",
"938 1379 LINE",
"1111 1355 LINE",
"716 496 LINE",
"629 274 LINE",
"611 496 LINE",
"544 1355 LINE",
"684 1379 LINE",
"693 1486 LINE",
"80 1486 LINE"
);
}
);
width = 1273;
}
);
leftKerningGroup = V;
rightKerningGroup = V;
unicode = 0056;
},
{
color = 3;
glyphname = W;
lastChange = "2019-04-05 05:20:06 +0000";
layers = (
{
anchors = (
{
name = bottom;
position = "{832, 0}";
},
{
name = top;
position = "{1037, 1486}";
}
);
layerId = "0C3FD5EE-D923-4A4A-8FDE-164881635915";
paths = (
{
closed = 1;
nodes = (
"74 1406 LINE",
"199 1386 LINE",
"397 -10 LINE",
"554 -10 LINE",
"955 1028 LINE",
"1075 -10 LINE",
"1236 -10 LINE",
"1823 1386 LINE",
"1959 1406 LINE",
"1971 1486 LINE",
"1552 1486 LINE",
"1544 1406 LINE",
"1694 1386 LINE",
"1297 395 LINE",
"1199 142 LINE",
"1172 428 LINE",
"1062 1388 LINE",
"1236 1406 LINE",
"1252 1486 LINE",
"777 1486 LINE",
"769 1406 LINE",
"909 1388 LINE",
"926 1246 LINE",
"596 374 LINE",
"515 142 LINE",
"477 428 LINE",
"356 1390 LINE",
"528 1406 LINE",
"534 1486 LINE",
"82 1486 LINE"
);
}
);
width = 1798;
},
{
anchors = (
{
name = bottom;
position = "{896, 0}";
},
{
name = top;
position = "{1152, 1486}";
}
);
layerId = "27298932-82AF-4578-9425-6304FDB19058";
paths = (
{
closed = 1;
nodes = (
"8 1381 LINE",
"122 1353 LINE",
"324 -10 LINE",
"620 -10 LINE",
"1001 906 LINE",
"1090 -10 LINE",
"1391 -10 LINE",
"2023 1355 LINE",
"2159 1381 LINE",
"2170 1486 LINE",
"1668 1486 LINE",
"1660 1378 LINE",
"1824 1353 LINE",
"1461 495 LINE",
"1368 289 LINE",
"1354 496 LINE",
"1271 1353 LINE",
"1450 1378 LINE",
"1458 1486 LINE",
"821 1486 LINE",
"811 1381 LINE",
"949 1353 LINE",
"963 1213 LINE",
"664 494 LINE",
"586 289 LINE",
"555 496 LINE",
"451 1351 LINE",
"594 1379 LINE",
"602 1486 LINE",
"22 1486 LINE"
);
}
);
width = 1945;
}
);
leftKerningGroup = W;
rightKerningGroup = W;
unicode = 0057;
},
{
color = 3;
glyphname = X;
lastChange = "2019-04-05 05:20:06 +0000";
layers = (
{
anchors = (
{
name = btm;
position = "{514, -166}";
},
{
name = top;
position = "{768, 1660}";
}
);
layerId = "0C3FD5EE-D923-4A4A-8FDE-164881635915";
paths = (
{
closed = 1;
nodes = (
"120 1406 LINE",
"259 1384 LINE",
"558 752 LINE",
"72 92 LINE",
"-54 70 LINE",
"-62 0 LINE",
"378 0 LINE",
"386 70 LINE",
"226 94 LINE",
"608 652 LINE",
"846 92 LINE",
"681 70 LINE",
"675 0 LINE",
"1178 0 LINE",
"1182 70 LINE",
"1036 94 LINE",
"715 759 LINE",
"1202 1388 LINE",
"1343 1406 LINE",
"1349 1486 LINE",
"894 1486 LINE",
"886 1406 LINE",
"1052 1386 LINE",
"664 847 LINE",
"438 1388 LINE",
"606 1406 LINE",
"614 1486 LINE",
"128 1486 LINE"
);
}
);
width = 1265;
},
{
anchors = (
{
name = btm;
position = "{675, -166}";
},
{
name = top;
position = "{954, 1660}";
}
);
layerId = "27298932-82AF-4578-9425-6304FDB19058";
paths = (
{
closed = 1;
nodes = (
"120 1379 LINE",
"246 1355 LINE",
"542 744 LINE",
"68 131 LINE",
"-50 103 LINE",
"-62 0 LINE",
"440 0 LINE",
"450 103 LINE",
"313 131 LINE",
"612 580 LINE",
"780 130 LINE",
"632 103 LINE",
"624 0 LINE",
"1292 0 LINE",
"1302 103 LINE",
"1164 131 LINE",
"854 780 LINE",
"1318 1355 LINE",
"1452 1379 LINE",
"1460 1486 LINE",
"954 1486 LINE",
"948 1379 LINE",
"1079 1355 LINE",
"782 924 LINE",
"610 1356 LINE",
"763 1381 LINE",
"771 1486 LINE",
"130 1486 LINE"
);
}
);
width = 1342;
}
);
leftKerningGroup = X;
rightKerningGroup = X;
unicode = 0058;
},
{
color = 3;
glyphname = Y;
lastChange = "2019-04-05 05:20:06 +0000";
layers = (
{
anchors = (
{
name = bottom;
position = "{468, 0}";
},
{
name = btm;
position = "{481, -166}";
},
{
name = top;
position = "{684, 1486}";
},
{
name = topleft;
position = "{135, 1486}";
}
);
layerId = "0C3FD5EE-D923-4A4A-8FDE-164881635915";
paths = (
{
closed = 1;
nodes = (
"66 1406 LINE",
"181 1386 LINE",
"495 573 LINE",
"434 94 LINE",
"206 70 LINE",
"199 0 LINE",
"795 0 LINE",
"803 70 LINE",
"586 94 LINE",
"647 573 LINE",
"1164 1388 LINE",
"1274 1406 LINE",
"1282 1486 LINE",
"884 1486 LINE",
"874 1406 LINE",
"1029 1386 LINE",
"675 805 LINE",
"600 676 LINE",
"561 807 LINE",
"350 1386 LINE",
"513 1406 LINE",
"523 1486 LINE",
"78 1486 LINE"
);
}
);
width = 1125;
},
{
anchors = (
{
name = bottom;
position = "{565, 0}";
},
{
name = btm;
position = "{556, -166}";
},
{
name = top;
position = "{843, 1486}";
},
{
name = topleft;
position = "{177, 1486}";
}
);
layerId = "27298932-82AF-4578-9425-6304FDB19058";
paths = (
{
closed = 1;
nodes = (
"42 1378 LINE",
"162 1356 LINE",
"486 590 LINE",
"430 130 LINE",
"200 103 LINE",
"188 0 LINE",
"992 0 LINE",
"1002 103 LINE",
"762 131 LINE",
"822 589 LINE",
"1325 1355 LINE",
"1452 1379 LINE",
"1466 1486 LINE",
"950 1486 LINE",
"940 1379 LINE",
"1100 1355 LINE",
"818 884 LINE",
"742 740 LINE",
"699 884 LINE",
"540 1355 LINE",
"708 1379 LINE",
"723 1486 LINE",
"60 1486 LINE"
);
}
);
width = 1287;
}
);
leftKerningGroup = Y;
rightKerningGroup = Y;
unicode = 0059;
},
{
color = 3;
glyphname = Z;
lastChange = "2019-04-05 05:20:06 +0000";
layers = (
{
anchors = (
{
name = bottom;
position = "{534, 0}";
},
{
name = top;
position = "{692, 1486}";
}
);
layerId = "0C3FD5EE-D923-4A4A-8FDE-164881635915";
paths = (
{
closed = 1;
nodes = (
"189 1147 LINE",
"284 1129 LINE",
"370 1387 LINE",
"1005 1394 LINE",
"834 1193 LINE",
"-10 73 LINE",
"11 0 LINE",
"1003 0 LINE",
"1094 349 LINE",
"999 376 LINE",
"880 107 LINE",
"179 87 LINE",
"321 266 LINE",
"1186 1415 LINE",
"1168 1486 LINE",
"246 1486 LINE"
);
}
);
width = 1183;
},
{
anchors = (
{
name = bottom;
position = "{536, 0}";
},
{
name = top;
position = "{729, 1486}";
}
);
layerId = "27298932-82AF-4578-9425-6304FDB19058";
paths = (
{
closed = 1;
nodes = (
"180 1103 LINE",
"348 1082 LINE",
"486 1345 LINE",
"925 1363 LINE",
"803 1264 LINE",
"-39 86 LINE",
"-5 0 LINE",
"1083 0 LINE",
"1181 422 LINE",
"1014 469 LINE",
"824 154 LINE",
"343 133 LINE",
"454 231 LINE",
"1285 1402 LINE",
"1255 1486 LINE",
"242 1486 LINE"
);
}
);
width = 1229;
}
);
leftKerningGroup = Z;
rightKerningGroup = Z;
unicode = 005A;
},
{
glyphname = a;
lastChange = "2019-04-05 05:20:06 +0000";
layers = (
{
anchors = (
{
name = bottom;
position = "{450, 0}";
},
{
name = caron;
position = "{1046, 1622}";
},
{
name = ogonek;
position = "{918, 20}";
},
{
name = top;
position = "{698, 1108}";
}
);
hints = (
{
place = "{29, 0}";
type = Stem;
}
);
layerId = "0C3FD5EE-D923-4A4A-8FDE-164881635915";
paths = (
{
closed = 1;
nodes = (
"1010 1134 LINE",
"900 1102 LINE",
"844 1120 OFFCURVE",
"762 1136 OFFCURVE",
"702 1136 CURVE SMOOTH",
"302 1136 OFFCURVE",
"76 708 OFFCURVE",
"76 402 CURVE SMOOTH",
"76 158 OFFCURVE",
"166 -20 OFFCURVE",
"388 -20 CURVE SMOOTH",
"532 -20 OFFCURVE",
"660 94 OFFCURVE",
"734 194 CURVE",
"724 112 LINE",
"718 16 OFFCURVE",
"766 -20 OFFCURVE",
"838 -20 CURVE SMOOTH",
"942 -20 OFFCURVE",
"1022 76 OFFCURVE",
"1036 100 CURVE",
"1008 144 LINE",
"970 108 OFFCURVE",
"946 88 OFFCURVE",
"920 88 CURVE SMOOTH",
"900 88 OFFCURVE",
"872 106 OFFCURVE",
"882 172 CURVE SMOOTH"
);
},
{
closed = 1;
nodes = (
"750 324 LINE",
"688 234 OFFCURVE",
"554 96 OFFCURVE",
"420 96 CURVE SMOOTH",
"292 96 OFFCURVE",
"238 222 OFFCURVE",
"238 420 CURVE SMOOTH",
"238 684 OFFCURVE",
"390 1038 OFFCURVE",
"680 1038 CURVE SMOOTH",
"736 1038 OFFCURVE",
"794 1024 OFFCURVE",
"836 994 CURVE"
);
}
);
width = 1140;
},
{
anchors = (
{
name = bottom;
position = "{540, 0}";
},
{
name = caron;
position = "{1145, 1622}";
},
{
name = ogonek;
position = "{946, 20}";
},
{
name = top;
position = "{718, 1108}";
}
);
hints = (
{
place = "{481, 0}";
type = Stem;
}
);
layerId = "27298932-82AF-4578-9425-6304FDB19058";
paths = (
{
closed = 1;
nodes = (
"1100 1136 LINE",
"951 1094 LINE",
"893 1114 OFFCURVE",
"797 1136 OFFCURVE",
"720 1136 CURVE SMOOTH",
"279 1136 OFFCURVE",
"51 770 OFFCURVE",
"51 392 CURVE SMOOTH",
"51 168 OFFCURVE",
"153 -20 OFFCURVE",
"396 -20 CURVE SMOOTH",
"532 -20 OFFCURVE",
"631 42 OFFCURVE",
"694 109 CURVE",
"693 97 LINE",
"701 20 OFFCURVE",
"764 -20 OFFCURVE",
"858 -20 CURVE SMOOTH",
"1010 -20 OFFCURVE",
"1106 86 OFFCURVE",
"1129 121 CURVE",
"1101 190 LINE",
"1056 155 OFFCURVE",
"1030 146 OFFCURVE",
"1011 146 CURVE SMOOTH",
"982 146 OFFCURVE",
"967 166 OFFCURVE",
"973 220 CURVE SMOOTH"
);
},
{
closed = 1;
nodes = (
"659 208 LINE",
"622 174 OFFCURVE",
"578 148 OFFCURVE",
"531 148 CURVE SMOOTH",
"440 148 OFFCURVE",
"384 243 OFFCURVE",
"384 404 CURVE SMOOTH",
"384 665 OFFCURVE",
"458 1001 OFFCURVE",
"698 1001 CURVE SMOOTH",
"721 1001 OFFCURVE",
"744 999 OFFCURVE",
"767 994 CURVE"
);
}
);
width = 1173;
}
);
leftKerningGroup = a;
rightKerningGroup = a;
unicode = 0061;
},
{
glyphname = aogonek;
lastChange = "2019-04-05 05:20:06 +0000";
layers = (
{
anchors = (
{
name = _ogonek;
position = "{928, 20}";
},
{
name = bottom;
position = "{458, 0}";
},
{
name = caron;
position = "{1054, 1622}";
},
{
name = ogonek;
position = "{928, 20}";
},
{
name = top;
position = "{705, 1109}";
}
);
hints = (
{
place = "{29, 0}";
type = Stem;
}
);
layerId = "0C3FD5EE-D923-4A4A-8FDE-164881635915";
paths = (
{
closed = 1;
nodes = (
"84 159 OFFCURVE",
"175 -20 OFFCURVE",
"396 -20 CURVE SMOOTH",
"540 -20 OFFCURVE",
"668 95 OFFCURVE",
"743 194 CURVE",
"732 113 LINE",
"727 30 OFFCURVE",
"761 -8 OFFCURVE",
"817 -17 CURVE",
"772 -51 OFFCURVE",
"726 -94 OFFCURVE",
"690 -152 CURVE SMOOTH",
"674 -179 OFFCURVE",
"658 -222 OFFCURVE",
"658 -255 CURVE",
"656 -312 OFFCURVE",
"693 -373 OFFCURVE",
"791 -373 CURVE SMOOTH",
"897 -373 OFFCURVE",
"974 -329 OFFCURVE",
"1024 -285 CURVE",
"1003 -216 LINE",
"960 -254 OFFCURVE",
"909 -277 OFFCURVE",
"858 -277 CURVE SMOOTH",
"820 -277 OFFCURVE",
"800 -250 OFFCURVE",
"804 -196 CURVE",
"804 -125 OFFCURVE",
"884 -48 OFFCURVE",
"954 14 CURVE",
"1003 44 OFFCURVE",
"1036 85 OFFCURVE",
"1044 99 CURVE",
"1016 143 LINE",
"979 109 OFFCURVE",
"955 88 OFFCURVE",
"928 88 CURVE SMOOTH",
"909 88 OFFCURVE",
"880 106 OFFCURVE",
"890 171 CURVE SMOOTH",
"1020 1134 LINE",
"909 1102 LINE",
"853 1120 OFFCURVE",
"770 1136 OFFCURVE",
"711 1136 CURVE SMOOTH",
"310 1136 OFFCURVE",
"84 708 OFFCURVE",
"84 401 CURVE SMOOTH"
);
},
{
closed = 1;
nodes = (
"247 685 OFFCURVE",
"398 1038 OFFCURVE",
"689 1038 CURVE SMOOTH",
"745 1038 OFFCURVE",
"803 1024 OFFCURVE",
"845 994 CURVE",
"758 324 LINE",
"696 234 OFFCURVE",
"563 95 OFFCURVE",
"429 95 CURVE SMOOTH",
"302 95 OFFCURVE",
"247 221 OFFCURVE",
"247 419 CURVE SMOOTH"
);
}
);
width = 1148;
},
{
anchors = (
{
name = _ogonek;
position = "{953, 20}";
},
{
name = bottom;
position = "{514, 0}";
},
{
name = caron;
position = "{1153, 1622}";
},
{
name = ogonek;
position = "{953, 20}";
},
{
name = top;
position = "{725, 1120}";
}
);
hints = (
{
place = "{481, 0}";
type = Stem;
}
);
layerId = "27298932-82AF-4578-9425-6304FDB19058";
paths = (
{
closed = 1;
nodes = (
"59 168 OFFCURVE",
"160 -20 OFFCURVE",
"404 -20 CURVE SMOOTH",
"540 -20 OFFCURVE",
"639 42 OFFCURVE",
"701 109 CURVE",
"701 97 LINE",
"706 50 OFFCURVE",
"731 17 OFFCURVE",
"771 -1 CURVE",
"716 -34 OFFCURVE",
"659 -79 OFFCURVE",
"605 -158 CURVE SMOOTH",
"579 -194 OFFCURVE",
"561 -245 OFFCURVE",
"561 -277 CURVE SMOOTH",
"561 -380 OFFCURVE",
"622 -446 OFFCURVE",
"747 -446 CURVE SMOOTH",
"888 -446 OFFCURVE",
"1003 -378 OFFCURVE",
"1080 -298 CURVE",
"1047 -189 LINE",
"991 -231 OFFCURVE",
"951 -261 OFFCURVE",
"897 -261 CURVE SMOOTH",
"859 -261 OFFCURVE",
"831 -246 OFFCURVE",
"831 -190 CURVE SMOOTH",
"831 -130 OFFCURVE",
"910 -56 OFFCURVE",
"1012 15 CURVE",
"1079 49 OFFCURVE",
"1122 99 OFFCURVE",
"1137 121 CURVE",
"1109 190 LINE",
"1063 155 OFFCURVE",
"1037 146 OFFCURVE",
"1019 146 CURVE SMOOTH",
"989 146 OFFCURVE",
"975 166 OFFCURVE",
"981 220 CURVE SMOOTH",
"1107 1136 LINE",
"958 1094 LINE",
"900 1114 OFFCURVE",
"805 1136 OFFCURVE",
"727 1136 CURVE SMOOTH",
"287 1136 OFFCURVE",
"59 770 OFFCURVE",
"59 392 CURVE SMOOTH"
);
},
{
closed = 1;
nodes = (
"391 665 OFFCURVE",
"466 1001 OFFCURVE",
"705 1001 CURVE SMOOTH",
"729 1001 OFFCURVE",
"752 999 OFFCURVE",
"774 994 CURVE",
"667 208 LINE",
"630 174 OFFCURVE",
"585 148 OFFCURVE",
"538 148 CURVE SMOOTH",
"447 148 OFFCURVE",
"391 243 OFFCURVE",
"391 404 CURVE SMOOTH"
);
}
);
width = 1185;
}
);
leftKerningGroup = a;
rightKerningGroup = a;
unicode = 0105;
},
{
glyphname = ae;
lastChange = "2019-04-05 05:20:06 +0000";
layers = (
{
anchors = (
{
name = top;
position = "{1013, 1110}";
}
);
layerId = "0C3FD5EE-D923-4A4A-8FDE-164881635915";
paths = (
{
closed = 1;
nodes = (
"1026 1134 LINE",
"915 1100 LINE",
"859 1118 OFFCURVE",
"785 1134 OFFCURVE",
"717 1134 CURVE SMOOTH",
"315 1134 OFFCURVE",
"84 706 OFFCURVE",
"84 399 CURVE SMOOTH",
"84 144 OFFCURVE",
"175 -20 OFFCURVE",
"379 -20 CURVE SMOOTH",
"554 -20 OFFCURVE",
"702 158 OFFCURVE",
"774 306 CURVE",
"799 113 OFFCURVE",
"908 -20 OFFCURVE",
"1132 -20 CURVE SMOOTH",
"1333 -20 OFFCURVE",
"1499 105 OFFCURVE",
"1554 184 CURVE",
"1517 252 LINE",
"1405 142 OFFCURVE",
"1268 94 OFFCURVE",
"1155 94 CURVE SMOOTH",
"959 94 OFFCURVE",
"922 274 OFFCURVE",
"932 455 CURVE",
"1131 459 OFFCURVE",
"1608 581 OFFCURVE",
"1607 888 CURVE SMOOTH",
"1607 1026 OFFCURVE",
"1521 1140 OFFCURVE",
"1332 1134 CURVE SMOOTH",
"1208 1130 OFFCURVE",
"1092 1073 OFFCURVE",
"999 980 CURVE"
);
},
{
closed = 1;
nodes = (
"765 409 LINE",
"712 305 OFFCURVE",
"571 97 OFFCURVE",
"411 97 CURVE SMOOTH",
"307 97 OFFCURVE",
"247 199 OFFCURVE",
"247 417 CURVE SMOOTH",
"247 680 OFFCURVE",
"401 1036 OFFCURVE",
"694 1038 CURVE SMOOTH",
"756 1038 OFFCURVE",
"817 1023 OFFCURVE",
"859 987 CURVE"
);
},
{
closed = 1;
nodes = (
"1393 1041 OFFCURVE",
"1446 986 OFFCURVE",
"1446 877 CURVE SMOOTH",
"1446 670 OFFCURVE",
"1147 551 OFFCURVE",
"936 545 CURVE",
"957 752 OFFCURVE",
"1086 1041 OFFCURVE",
"1296 1041 CURVE SMOOTH"
);
}
);
width = 1696;
},
{
anchors = (
{
name = top;
position = "{997, 1110}";
}
);
layerId = "27298932-82AF-4578-9425-6304FDB19058";
paths = (
{
closed = 1;
nodes = (
"1080 1136 LINE",
"992 1106 LINE",
"932 1122 OFFCURVE",
"856 1136 OFFCURVE",
"794 1136 CURVE SMOOTH",
"328 1136 OFFCURVE",
"59 760 OFFCURVE",
"59 383 CURVE SMOOTH",
"59 177 OFFCURVE",
"122 -20 OFFCURVE",
"364 -20 CURVE SMOOTH",
"531 -20 OFFCURVE",
"665 125 OFFCURVE",
"743 242 CURVE",
"790 95 OFFCURVE",
"908 -20 OFFCURVE",
"1134 -20 CURVE SMOOTH",
"1382 -20 OFFCURVE",
"1539 121 OFFCURVE",
"1591 207 CURVE",
"1530 306 LINE",
"1476 237 OFFCURVE",
"1390 154 OFFCURVE",
"1237 154 CURVE SMOOTH",
"1121 154 OFFCURVE",
"1052 243 OFFCURVE",
"1052 444 CURVE",
"1297 450 OFFCURVE",
"1668 570 OFFCURVE",
"1660 892 CURVE",
"1654 1030 OFFCURVE",
"1561 1136 OFFCURVE",
"1340 1136 CURVE SMOOTH",
"1243 1136 OFFCURVE",
"1152 1113 OFFCURVE",
"1072 1071 CURVE"
);
},
{
closed = 1;
nodes = (
"683 331 LINE",
"627 252 OFFCURVE",
"551 174 OFFCURVE",
"480 174 CURVE SMOOTH",
"411 174 OFFCURVE",
"391 299 OFFCURVE",
"391 404 CURVE SMOOTH",
"391 653 OFFCURVE",
"507 972 OFFCURVE",
"750 999 CURVE SMOOTH",
"762 1001 OFFCURVE",
"773 1001 OFFCURVE",
"784 1000 CURVE"
);
},
{
closed = 1;
nodes = (
"1322 1001 OFFCURVE",
"1347 955 OFFCURVE",
"1351 866 CURVE",
"1357 672 OFFCURVE",
"1169 567 OFFCURVE",
"1052 561 CURVE",
"1064 744 OFFCURVE",
"1117 1001 OFFCURVE",
"1269 1001 CURVE SMOOTH"
);
}
);
width = 1702;
}
);
leftKerningGroup = a;
rightKerningGroup = e;
unicode = 00E6;
},
{
glyphname = b;
lastChange = "2019-04-05 05:20:06 +0000";
layers = (
{
anchors = (
{
name = bottom;
position = "{425, 0}";
},
{
name = top;
position = "{783, 1110}";
}
);
layerId = "0C3FD5EE-D923-4A4A-8FDE-164881635915";
paths = (
{
closed = 1;
nodes = (
"460 1610 LINE",
"419 1634 LINE",
"210 1602 LINE",
"194 1535 LINE",
"288 1500 LINE",
"90 -5 LINE",
"171 31 LINE",
"225 6 OFFCURVE",
"327 -20 OFFCURVE",
"411 -20 CURVE SMOOTH",
"806 -20 OFFCURVE",
"1032 405 OFFCURVE",
"1032 712 CURVE SMOOTH",
"1032 959 OFFCURVE",
"925 1136 OFFCURVE",
"699 1136 CURVE SMOOTH",
"555 1136 OFFCURVE",
"437 1043 OFFCURVE",
"375 955 CURVE"
);
},
{
closed = 1;
nodes = (
"355 818 LINE",
"404 900 OFFCURVE",
"527 1020 OFFCURVE",
"669 1020 CURVE SMOOTH",
"797 1020 OFFCURVE",
"869 901 OFFCURVE",
"869 703 CURVE SMOOTH",
"869 448 OFFCURVE",
"728 78 OFFCURVE",
"433 78 CURVE SMOOTH",
"371 78 OFFCURVE",
"307 90 OFFCURVE",
"262 126 CURVE"
);
}
);
width = 1114;
},
{
anchors = (
{
name = bottom;
position = "{445, 0}";
},
{
name = top;
position = "{830, 1110}";
}
);
layerId = "27298932-82AF-4578-9425-6304FDB19058";
paths = (
{
closed = 1;
nodes = (
"555 1606 LINE",
"503 1634 LINE",
"146 1596 LINE",
"126 1515 LINE",
"228 1473 LINE",
"24 -20 LINE",
"186 22 LINE",
"247 2 OFFCURVE",
"342 -20 OFFCURVE",
"422 -20 CURVE SMOOTH",
"833 -20 OFFCURVE",
"1086 305 OFFCURVE",
"1086 712 CURVE SMOOTH",
"1086 981 OFFCURVE",
"976 1136 OFFCURVE",
"750 1136 CURVE SMOOTH",
"632 1136 OFFCURVE",
"539 1087 OFFCURVE",
"475 1032 CURVE"
);
},
{
closed = 1;
nodes = (
"455 876 LINE",
"495 925 OFFCURVE",
"549 966 OFFCURVE",
"616 966 CURVE SMOOTH",
"715 966 OFFCURVE",
"760 848 OFFCURVE",
"760 712 CURVE SMOOTH",
"760 417 OFFCURVE",
"674 115 OFFCURVE",
"448 115 CURVE SMOOTH",
"413 115 OFFCURVE",
"384 117 OFFCURVE",
"357 126 CURVE"
);
}
);
width = 1149;
}
);
leftKerningGroup = b;
rightKerningGroup = o;
unicode = 0062;
},
{
glyphname = c;
lastChange = "2019-04-05 05:20:06 +0000";
layers = (
{
anchors = (
{
name = bottom;
position = "{438, 0}";
},
{
name = top;
position = "{618, 1110}";
}
);
layerId = "0C3FD5EE-D923-4A4A-8FDE-164881635915";
paths = (
{
closed = 1;
nodes = (
"816 929 LINE",
"862 1089 LINE",
"806 1118 OFFCURVE",
"715 1136 OFFCURVE",
"644 1136 CURVE SMOOTH",
"271 1136 OFFCURVE",
"70 725 OFFCURVE",
"71 421 CURVE SMOOTH",
"71 147 OFFCURVE",
"202 -20 OFFCURVE",
"424 -20 CURVE SMOOTH",
"613 -20 OFFCURVE",
"735 93 OFFCURVE",
"783 150 CURVE",
"751 217 LINE",
"662 145 OFFCURVE",
"588 95 OFFCURVE",
"469 95 CURVE SMOOTH",
"325 95 OFFCURVE",
"238 210 OFFCURVE",
"237 442 CURVE SMOOTH",
"237 783 OFFCURVE",
"382 1018 OFFCURVE",
"608 1018 CURVE SMOOTH",
"669 1018 OFFCURVE",
"740 984 OFFCURVE",
"793 944 CURVE"
);
}
);
width = 914;
},
{
anchors = (
{
name = bottom;
position = "{446, 0}";
},
{
name = top;
position = "{657, 1112}";
}
);
layerId = "27298932-82AF-4578-9425-6304FDB19058";
paths = (
{
closed = 1;
nodes = (
"849 789 LINE",
"928 1098 LINE",
"864 1124 OFFCURVE",
"759 1136 OFFCURVE",
"679 1136 CURVE SMOOTH",
"249 1136 OFFCURVE",
"45 769 OFFCURVE",
"51 439 CURVE SMOOTH",
"55 136 OFFCURVE",
"200 -20 OFFCURVE",
"428 -20 CURVE SMOOTH",
"659 -20 OFFCURVE",
"808 104 OFFCURVE",
"861 189 CURVE",
"800 288 LINE",
"747 220 OFFCURVE",
"677 164 OFFCURVE",
"551 164 CURVE SMOOTH",
"436 164 OFFCURVE",
"383 243 OFFCURVE",
"377 450 CURVE SMOOTH",
"370 765 OFFCURVE",
"500 983 OFFCURVE",
"610 983 CURVE SMOOTH",
"654 983 OFFCURVE",
"734 858 OFFCURVE",
"778 789 CURVE"
);
}
);
width = 939;
}
);
leftKerningGroup = o;
rightKerningGroup = c;
unicode = 0063;
},
{
glyphname = d;
lastChange = "2019-04-05 05:20:06 +0000";
layers = (
{
anchors = (
{
name = bottom;
position = "{446, 0}";
},
{
name = caron;
position = "{1097, 1622}";
},
{
name = top;
position = "{385, 1110}";
}
);
layerId = "0C3FD5EE-D923-4A4A-8FDE-164881635915";
paths = (
{
closed = 1;
nodes = (
"1103 1610 LINE",
"1060 1634 LINE",
"821 1600 LINE",
"804 1533 LINE",
"932 1500 LINE",
"875 1109 LINE",
"824 1124 OFFCURVE",
"761 1136 OFFCURVE",
"709 1136 CURVE SMOOTH",
"306 1136 OFFCURVE",
"81 708 OFFCURVE",
"81 401 CURVE SMOOTH",
"81 159 OFFCURVE",
"184 -20 OFFCURVE",
"405 -20 CURVE SMOOTH",
"551 -20 OFFCURVE",
"668 70 OFFCURVE",
"733 155 CURVE",
"733 102 LINE",
"730 15 OFFCURVE",
"769 -20 OFFCURVE",
"836 -20 CURVE SMOOTH",
"939 -20 OFFCURVE",
"1020 71 OFFCURVE",
"1036 96 CURVE",
"1010 139 LINE",
"971 105 OFFCURVE",
"944 88 OFFCURVE",
"916 88 CURVE SMOOTH",
"897 88 OFFCURVE",
"886 110 OFFCURVE",
"892 158 CURVE"
);
},
{
closed = 1;
nodes = (
"750 290 LINE",
"697 207 OFFCURVE",
"576 95 OFFCURVE",
"436 95 CURVE SMOOTH",
"312 95 OFFCURVE",
"244 214 OFFCURVE",
"244 413 CURVE SMOOTH",
"244 666 OFFCURVE",
"385 1038 OFFCURVE",
"685 1038 CURVE SMOOTH",
"745 1038 OFFCURVE",
"811 1024 OFFCURVE",
"856 986 CURVE"
);
}
);
width = 1145;
},
{
anchors = (
{
name = bottom;
position = "{471, 0}";
},
{
name = caron;
position = "{1197, 1622}";
},
{
name = top;
position = "{343, 1110}";
}
);
layerId = "27298932-82AF-4578-9425-6304FDB19058";
paths = (
{
closed = 1;
nodes = (
"1207 1606 LINE",
"1153 1634 LINE",
"737 1592 LINE",
"719 1513 LINE",
"870 1471 LINE",
"824 1125 LINE",
"789 1132 OFFCURVE",
"752 1136 OFFCURVE",
"722 1136 CURVE SMOOTH",
"271 1136 OFFCURVE",
"61 770 OFFCURVE",
"61 392 CURVE SMOOTH",
"61 168 OFFCURVE",
"153 -20 OFFCURVE",
"396 -20 CURVE SMOOTH",
"560 -20 OFFCURVE",
"666 68 OFFCURVE",
"720 144 CURVE",
"722 125 LINE",
"734 31 OFFCURVE",
"782 -20 OFFCURVE",
"890 -20 CURVE SMOOTH",
"1048 -20 OFFCURVE",
"1138 93 OFFCURVE",
"1162 121 CURVE",
"1134 190 LINE",
"1086 154 OFFCURVE",
"1062 146 OFFCURVE",
"1044 146 CURVE SMOOTH",
"1012 146 OFFCURVE",
"1004 174 OFFCURVE",
"1010 222 CURVE SMOOTH"
);
},
{
closed = 1;
nodes = (
"694 251 LINE",
"657 198 OFFCURVE",
"599 148 OFFCURVE",
"531 148 CURVE SMOOTH",
"442 148 OFFCURVE",
"389 243 OFFCURVE",
"389 404 CURVE SMOOTH",
"389 664 OFFCURVE",
"458 1001 OFFCURVE",
"698 1001 CURVE SMOOTH",
"736 1001 OFFCURVE",
"771 995 OFFCURVE",
"802 984 CURVE"
);
}
);
width = 1225;
}
);
leftKerningGroup = d;
rightKerningGroup = d;
unicode = 0064;
},
{
glyphname = eth;
lastChange = "2019-04-05 05:20:06 +0000";
layers = (
{
layerId = "0C3FD5EE-D923-4A4A-8FDE-164881635915";
paths = (
{
closed = 1;
nodes = (
"377 1347 LINE",
"455 1275 LINE",
"681 1478 LINE",
"588 1462 LINE",
"771 1309 OFFCURVE",
"859 1182 OFFCURVE",
"900 953 CURVE",
"851 1027 OFFCURVE",
"728 1084 OFFCURVE",
"623 1084 CURVE SMOOTH",
"348 1084 OFFCURVE",
"82 831 OFFCURVE",
"82 414 CURVE SMOOTH",
"82 204 OFFCURVE",
"209 -20 OFFCURVE",
"469 -20 CURVE SMOOTH",
"842 -20 OFFCURVE",
"1042 352 OFFCURVE",
"1042 801 CURVE SMOOTH",
"1042 1121 OFFCURVE",
"928 1345 OFFCURVE",
"672 1547 CURVE",
"665 1458 LINE",
"887 1651 LINE",
"811 1724 LINE",
"811 1724 OFFCURVE",
"646 1583 OFFCURVE",
"600 1534 CURVE",
"675 1539 LINE",
"577 1607 OFFCURVE",
"461 1669 OFFCURVE",
"380 1688 CURVE",
"345 1590 LINE",
"421 1574 OFFCURVE",
"522 1514 OFFCURVE",
"587 1451 CURVE",
"601 1536 LINE"
);
},
{
closed = 1;
nodes = (
"800 993 OFFCURVE",
"865 823 OFFCURVE",
"870 761 CURVE SMOOTH",
"874 721 OFFCURVE",
"867 620 OFFCURVE",
"858 551 CURVE SMOOTH",
"819 283 OFFCURVE",
"678 68 OFFCURVE",
"488 68 CURVE SMOOTH",
"331 68 OFFCURVE",
"251 223 OFFCURVE",
"251 401 CURVE SMOOTH",
"251 689 OFFCURVE",
"384 993 OFFCURVE",
"621 993 CURVE SMOOTH"
);
}
);
width = 1130;
},
{
layerId = "27298932-82AF-4578-9425-6304FDB19058";
paths = (
{
closed = 1;
nodes = (
"357 1325 LINE",
"470 1229 LINE",
"750 1472 LINE",
"580 1458 LINE",
"724 1324 OFFCURVE",
"782 1151 OFFCURVE",
"782 1053 CURVE",
"742 1076 OFFCURVE",
"693 1084 OFFCURVE",
"603 1084 CURVE SMOOTH",
"292 1084 OFFCURVE",
"59 846 OFFCURVE",
"59 451 CURVE SMOOTH",
"59 231 OFFCURVE",
"194 -20 OFFCURVE",
"484 -20 CURVE SMOOTH",
"879 -20 OFFCURVE",
"1110 319 OFFCURVE",
"1110 785 CURVE SMOOTH",
"1110 1075 OFFCURVE",
"992 1387 OFFCURVE",
"732 1587 CURVE",
"714 1429 LINE",
"991 1666 LINE",
"886 1763 LINE",
"886 1763 OFFCURVE",
"683 1592 OFFCURVE",
"629 1538 CURVE",
"779 1550 LINE",
"661 1651 OFFCURVE",
"510 1722 OFFCURVE",
"411 1750 CURVE",
"358 1596 LINE",
"443 1572 OFFCURVE",
"551 1481 OFFCURVE",
"631 1402 CURVE",
"652 1569 LINE"
);
},
{
closed = 1;
nodes = (
"765 953 OFFCURVE",
"787 779 OFFCURVE",
"785 712 CURVE SMOOTH",
"783 672 OFFCURVE",
"767 554 OFFCURVE",
"765 538 CURVE SMOOTH",
"741 299 OFFCURVE",
"643 103 OFFCURVE",
"511 103 CURVE SMOOTH",
"413 103 OFFCURVE",
"384 239 OFFCURVE",
"384 390 CURVE SMOOTH",
"384 620 OFFCURVE",
"450 953 OFFCURVE",
"612 953 CURVE SMOOTH"
);
}
);
width = 1165;
}
);
leftKerningGroup = eth;
rightKerningGroup = eth;
unicode = 00F0;
},
{
glyphname = dcroat;
lastChange = "2019-04-05 05:20:06 +0000";
layers = (
{
anchors = (
{
name = bottom;
position = "{446, 0}";
},
{
name = caron;
position = "{1096, 1622}";
},
{
name = top;
position = "{385, 1110}";
}
);
layerId = "0C3FD5EE-D923-4A4A-8FDE-164881635915";
paths = (
{
closed = 1;
nodes = (
"81 159 OFFCURVE",
"184 -20 OFFCURVE",
"405 -20 CURVE SMOOTH",
"550 -20 OFFCURVE",
"668 70 OFFCURVE",
"733 155 CURVE",
"733 102 LINE",
"730 15 OFFCURVE",
"769 -20 OFFCURVE",
"835 -20 CURVE SMOOTH",
"939 -20 OFFCURVE",
"1020 71 OFFCURVE",
"1036 96 CURVE",
"1010 139 LINE",
"971 105 OFFCURVE",
"944 88 OFFCURVE",
"916 88 CURVE SMOOTH",
"897 88 OFFCURVE",
"885 110 OFFCURVE",
"892 158 CURVE SMOOTH",
"1053 1255 LINE",
"1194 1255 LINE",
"1208 1360 LINE",
"1069 1360 LINE",
"1103 1588 LINE",
"1060 1612 LINE",
"820 1578 LINE",
"804 1511 LINE",
"932 1478 LINE",
"913 1360 LINE",
"630 1360 LINE",
"616 1255 LINE",
"897 1255 LINE",
"875 1109 LINE",
"824 1124 OFFCURVE",
"761 1136 OFFCURVE",
"709 1136 CURVE SMOOTH",
"306 1136 OFFCURVE",
"81 708 OFFCURVE",
"81 401 CURVE SMOOTH"
);
},
{
closed = 1;
nodes = (
"243 666 OFFCURVE",
"385 1038 OFFCURVE",
"685 1038 CURVE SMOOTH",
"745 1038 OFFCURVE",
"811 1024 OFFCURVE",
"856 986 CURVE",
"750 290 LINE",
"697 207 OFFCURVE",
"575 95 OFFCURVE",
"436 95 CURVE SMOOTH",
"312 95 OFFCURVE",
"243 214 OFFCURVE",
"243 413 CURVE SMOOTH"
);
}
);
width = 1153;
},
{
anchors = (
{
name = bottom;
position = "{469, 0}";
},
{
name = caron;
position = "{1195, 1622}";
},
{
name = top;
position = "{341, 1110}";
}
);
layerId = "27298932-82AF-4578-9425-6304FDB19058";
paths = (
{
closed = 1;
nodes = (
"59 168 OFFCURVE",
"151 -20 OFFCURVE",
"394 -20 CURVE SMOOTH",
"558 -20 OFFCURVE",
"664 68 OFFCURVE",
"718 144 CURVE",
"720 125 LINE SMOOTH",
"732 31 OFFCURVE",
"780 -20 OFFCURVE",
"888 -20 CURVE SMOOTH",
"1046 -20 OFFCURVE",
"1136 93 OFFCURVE",
"1160 121 CURVE",
"1132 190 LINE",
"1084 154 OFFCURVE",
"1060 146 OFFCURVE",
"1042 146 CURVE SMOOTH",
"1010 146 OFFCURVE",
"1000 174 OFFCURVE",
"1008 222 CURVE SMOOTH",
"1154 1233 LINE",
"1281 1233 LINE",
"1295 1360 LINE",
"1172 1360 LINE",
"1205 1584 LINE",
"1151 1612 LINE",
"735 1570 LINE",
"717 1491 LINE",
"868 1449 LINE",
"855 1360 LINE",
"576 1360 LINE",
"560 1233 LINE",
"837 1233 LINE",
"822 1125 LINE",
"787 1132 OFFCURVE",
"750 1136 OFFCURVE",
"720 1136 CURVE SMOOTH",
"269 1136 OFFCURVE",
"59 770 OFFCURVE",
"59 392 CURVE SMOOTH"
);
},
{
closed = 1;
nodes = (
"387 664 OFFCURVE",
"456 1001 OFFCURVE",
"696 1001 CURVE SMOOTH",
"734 1001 OFFCURVE",
"769 995 OFFCURVE",
"800 984 CURVE",
"692 251 LINE",
"655 198 OFFCURVE",
"597 148 OFFCURVE",
"529 148 CURVE SMOOTH",
"440 148 OFFCURVE",
"387 243 OFFCURVE",
"387 404 CURVE SMOOTH"
);
}
);
width = 1224;
}
);
leftKerningGroup = d;
rightKerningGroup = d;
unicode = 0111;
},
{
glyphname = e;
lastChange = "2019-04-05 05:20:06 +0000";
layers = (
{
anchors = (
{
name = bottom;
position = "{455, 0}";
},
{
name = ogonek;
position = "{741, 80}";
},
{
name = top;
position = "{637, 1108}";
}
);
layerId = "0C3FD5EE-D923-4A4A-8FDE-164881635915";
paths = (
{
closed = 1;
nodes = (
"845 252 LINE",
"737 142 OFFCURVE",
"606 93 OFFCURVE",
"497 93 CURVE SMOOTH",
"296 93 OFFCURVE",
"241 300 OFFCURVE",
"254 455 CURVE",
"452 459 OFFCURVE",
"938 583 OFFCURVE",
"937 892 CURVE SMOOTH",
"937 1030 OFFCURVE",
"849 1136 OFFCURVE",
"661 1136 CURVE SMOOTH",
"338 1136 OFFCURVE",
"96 798 OFFCURVE",
"87 426 CURVE SMOOTH",
"81 206 OFFCURVE",
"190 -20 OFFCURVE",
"474 -20 CURVE SMOOTH",
"667 -20 OFFCURVE",
"827 105 OFFCURVE",
"883 184 CURVE"
);
},
{
closed = 1;
nodes = (
"718 1041 OFFCURVE",
"778 986 OFFCURVE",
"778 877 CURVE SMOOTH",
"778 670 OFFCURVE",
"472 551 OFFCURVE",
"258 545 CURVE",
"278 752 OFFCURVE",
"408 1041 OFFCURVE",
"624 1041 CURVE SMOOTH"
);
}
);
width = 1028;
},
{
anchors = (
{
name = bottom;
position = "{468, 0}";
},
{
name = ogonek;
position = "{761, 80}";
},
{
name = top;
position = "{652, 1110}";
}
);
layerId = "27298932-82AF-4578-9425-6304FDB19058";
paths = (
{
closed = 1;
nodes = (
"861 306 LINE",
"808 237 OFFCURVE",
"722 144 OFFCURVE",
"568 144 CURVE SMOOTH",
"453 144 OFFCURVE",
"383 244 OFFCURVE",
"384 444 CURVE",
"628 450 OFFCURVE",
"1000 570 OFFCURVE",
"990 892 CURVE SMOOTH",
"986 1030 OFFCURVE",
"893 1138 OFFCURVE",
"672 1138 CURVE SMOOTH",
"313 1138 OFFCURVE",
"36 835 OFFCURVE",
"40 420 CURVE SMOOTH",
"41 198 OFFCURVE",
"153 -28 OFFCURVE",
"466 -28 CURVE SMOOTH",
"714 -28 OFFCURVE",
"869 121 OFFCURVE",
"923 207 CURVE"
);
},
{
closed = 1;
nodes = (
"652 1001 OFFCURVE",
"679 955 OFFCURVE",
"683 866 CURVE SMOOTH",
"691 672 OFFCURVE",
"501 567 OFFCURVE",
"384 561 CURVE",
"394 744 OFFCURVE",
"447 1001 OFFCURVE",
"601 1001 CURVE SMOOTH"
);
}
);
width = 1028;
}
);
leftKerningGroup = o;
rightKerningGroup = e;
unicode = 0065;
},
{
glyphname = schwa;
lastChange = "2019-04-05 05:20:06 +0000";
layers = (
{
layerId = "0C3FD5EE-D923-4A4A-8FDE-164881635915";
paths = (
{
closed = 1;
nodes = (
"183 864 LINE",
"292 974 OFFCURVE",
"423 1022 OFFCURVE",
"532 1022 CURVE SMOOTH",
"732 1022 OFFCURVE",
"787 814 OFFCURVE",
"774 660 CURVE",
"575 656 OFFCURVE",
"90 533 OFFCURVE",
"91 224 CURVE SMOOTH",
"91 86 OFFCURVE",
"180 -20 OFFCURVE",
"368 -20 CURVE SMOOTH",
"690 -20 OFFCURVE",
"932 317 OFFCURVE",
"941 690 CURVE SMOOTH",
"947 910 OFFCURVE",
"839 1136 OFFCURVE",
"555 1136 CURVE SMOOTH",
"361 1136 OFFCURVE",
"202 1011 OFFCURVE",
"146 932 CURVE"
);
},
{
closed = 1;
nodes = (
"751 364 OFFCURVE",
"620 74 OFFCURVE",
"404 74 CURVE SMOOTH",
"311 74 OFFCURVE",
"253 130 OFFCURVE",
"252 239 CURVE SMOOTH",
"252 446 OFFCURVE",
"556 565 OFFCURVE",
"772 571 CURVE"
);
}
);
width = 1028;
},
{
layerId = "27298932-82AF-4578-9425-6304FDB19058";
paths = (
{
closed = 1;
nodes = (
"172 806 LINE",
"226 875 OFFCURVE",
"312 968 OFFCURVE",
"464 968 CURVE SMOOTH",
"581 968 OFFCURVE",
"650 870 OFFCURVE",
"650 668 CURVE",
"406 662 OFFCURVE",
"34 542 OFFCURVE",
"42 220 CURVE SMOOTH",
"47 84 OFFCURVE",
"141 -26 OFFCURVE",
"362 -26 CURVE SMOOTH",
"719 -26 OFFCURVE",
"996 277 OFFCURVE",
"994 692 CURVE SMOOTH",
"993 916 OFFCURVE",
"881 1140 OFFCURVE",
"568 1140 CURVE SMOOTH",
"319 1140 OFFCURVE",
"163 993 OFFCURVE",
"111 907 CURVE"
);
},
{
closed = 1;
nodes = (
"638 370 OFFCURVE",
"585 111 OFFCURVE",
"433 111 CURVE SMOOTH",
"380 111 OFFCURVE",
"355 157 OFFCURVE",
"351 248 CURVE SMOOTH",
"345 440 OFFCURVE",
"533 545 OFFCURVE",
"650 551 CURVE"
);
}
);
width = 1055;
}
);
leftKerningGroup = schwa;
rightKerningGroup = schwa;
unicode = 0259;
},
{
glyphname = ezh;
lastChange = "2019-04-05 05:20:06 +0000";
layers = (
{
anchors = (
{
name = top;
position = "{581, 1110}";
}
);
background = {
components = (
{
name = g;
transform = "{1, 0, 0, 1, -4, 0}";
}
);
};
layerId = "0C3FD5EE-D923-4A4A-8FDE-164881635915";
paths = (
{
closed = 1;
nodes = (
"979 1085 LINE",
"936 1132 LINE",
"910 1110 OFFCURVE",
"889 1108 OFFCURVE",
"843 1108 CURVE",
"715 1108 OFFCURVE",
"480 1124 OFFCURVE",
"290 1134 CURVE",
"146 1134 OFFCURVE",
"129 983 OFFCURVE",
"129 918 CURVE SMOOTH",
"129 860 OFFCURVE",
"126 825 OFFCURVE",
"130 795 CURVE",
"189 795 LINE",
"207 873 OFFCURVE",
"220 986 OFFCURVE",
"324 986 CURVE",
"772 981 LINE",
"630 827 LINE",
"338 434 LINE",
"366 374 LINE",
"398 386 OFFCURVE",
"422 388 OFFCURVE",
"452 388 CURVE SMOOTH",
"616 388 OFFCURVE",
"700 248 OFFCURVE",
"700 34 CURVE SMOOTH",
"700 -158 OFFCURVE",
"524 -400 OFFCURVE",
"234 -400 CURVE SMOOTH",
"166 -400 OFFCURVE",
"94 -382 OFFCURVE",
"28 -356 CURVE",
"16 -452 LINE",
"76 -470 OFFCURVE",
"142 -498 OFFCURVE",
"264 -498 CURVE SMOOTH",
"630 -498 OFFCURVE",
"866 -216 OFFCURVE",
"866 24 CURVE SMOOTH",
"866 310 OFFCURVE",
"686 454 OFFCURVE",
"580 454 CURVE SMOOTH",
"552 454 OFFCURVE",
"508 450 OFFCURVE",
"496 442 CURVE"
);
}
);
width = 1002;
},
{
anchors = (
{
name = top;
position = "{596, 1110}";
}
);
background = {
paths = (
{
closed = 1;
nodes = (
"948 1136 LINE",
"790 1090 LINE",
"732 1112 OFFCURVE",
"632 1136 OFFCURVE",
"550 1136 CURVE SMOOTH",
"108 1136 OFFCURVE",
"-120 770 OFFCURVE",
"-120 392 CURVE SMOOTH",
"-120 168 OFFCURVE",
"-18 -20 OFFCURVE",
"226 -20 CURVE SMOOTH",
"340 -20 OFFCURVE",
"426 24 OFFCURVE",
"488 74 CURVE",
"464 -142 LINE SMOOTH",
"444 -314 OFFCURVE",
"378 -350 OFFCURVE",
"246 -350 CURVE SMOOTH",
"130 -350 OFFCURVE",
"-8 -272 OFFCURVE",
"-28 -254 CURVE",
"-78 -462 LINE",
"-40 -480 OFFCURVE",
"88 -506 OFFCURVE",
"182 -506 CURVE SMOOTH",
"442 -506 OFFCURVE",
"740 -416 OFFCURVE",
"784 -76 CURVE"
);
},
{
closed = 1;
nodes = (
"506 224 LINE",
"468 182 OFFCURVE",
"416 148 OFFCURVE",
"360 148 CURVE SMOOTH",
"270 148 OFFCURVE",
"214 244 OFFCURVE",
"214 404 CURVE SMOOTH",
"214 664 OFFCURVE",
"288 1002 OFFCURVE",
"528 1002 CURVE SMOOTH",
"560 1002 OFFCURVE",
"592 996 OFFCURVE",
"618 988 CURVE"
);
},
{
closed = 1;
nodes = (
"979 1085 LINE",
"936 1132 LINE",
"910 1110 OFFCURVE",
"889 1108 OFFCURVE",
"843 1108 CURVE",
"715 1108 OFFCURVE",
"480 1124 OFFCURVE",
"290 1134 CURVE",
"146 1134 OFFCURVE",
"129 983 OFFCURVE",
"129 918 CURVE SMOOTH",
"129 860 OFFCURVE",
"126 825 OFFCURVE",
"130 795 CURVE",
"189 795 LINE",
"207 873 OFFCURVE",
"220 986 OFFCURVE",
"324 986 CURVE",
"772 981 LINE",
"630 827 LINE",
"339 473 LINE",
"365 413 LINE",
"397 423 OFFCURVE",
"422 426 OFFCURVE",
"452 426 CURVE SMOOTH",
"616 426 OFFCURVE",
"700 286 OFFCURVE",
"700 72 CURVE SMOOTH",
"700 -158 OFFCURVE",
"524 -400 OFFCURVE",
"234 -400 CURVE SMOOTH",
"166 -400 OFFCURVE",
"94 -382 OFFCURVE",
"28 -356 CURVE",
"16 -452 LINE",
"76 -470 OFFCURVE",
"142 -498 OFFCURVE",
"264 -498 CURVE SMOOTH",
"630 -498 OFFCURVE",
"866 -216 OFFCURVE",
"866 62 CURVE SMOOTH",
"866 348 OFFCURVE",
"720 488 OFFCURVE",
"585 489 CURVE SMOOTH",
"556 488 OFFCURVE",
"513 485 OFFCURVE",
"497 481 CURVE"
);
}
);
};
layerId = "27298932-82AF-4578-9425-6304FDB19058";
paths = (
{
closed = 1;
nodes = (
"1026 1076 LINE",
"975 1134 LINE",
"949 1112 OFFCURVE",
"909 1102 OFFCURVE",
"863 1102 CURVE",
"735 1102 OFFCURVE",
"480 1130 OFFCURVE",
"290 1140 CURVE",
"146 1140 OFFCURVE",
"118 1025 OFFCURVE",
"118 856 CURVE SMOOTH",
"118 798 OFFCURVE",
"122 748 OFFCURVE",
"126 718 CURVE",
"207 718 LINE",
"225 796 OFFCURVE",
"274 868 OFFCURVE",
"378 868 CURVE",
"681 868 LINE",
"591 812 LINE",
"290 414 LINE",
"352 322 LINE",
"382 340 OFFCURVE",
"416 354 OFFCURVE",
"446 354 CURVE SMOOTH",
"552 354 OFFCURVE",
"584 256 OFFCURVE",
"584 72 CURVE SMOOTH",
"584 -110 OFFCURVE",
"498 -334 OFFCURVE",
"232 -334 CURVE SMOOTH",
"106 -334 OFFCURVE",
"48 -320 OFFCURVE",
"-18 -294 CURVE",
"-38 -440 LINE",
"22 -458 OFFCURVE",
"88 -486 OFFCURVE",
"210 -486 CURVE SMOOTH",
"658 -486 OFFCURVE",
"884 -186 OFFCURVE",
"884 72 CURVE SMOOTH",
"884 336 OFFCURVE",
"788 462 OFFCURVE",
"630 462 CURVE SMOOTH",
"586 462 OFFCURVE",
"556 454 OFFCURVE",
"540 450 CURVE"
);
}
);
width = 977;
}
);
leftKerningGroup = ezh;
rightKerningGroup = ezh;
unicode = 0292;
},
{
glyphname = f;
lastChange = "2019-04-05 05:20:06 +0000";
layers = (
{
anchors = (
{
name = top;
position = "{232, 1333}";
}
);
layerId = "0C3FD5EE-D923-4A4A-8FDE-164881635915";
paths = (
{
closed = 1;
nodes = (
"300 1123 LINE",
"158 1074 LINE",
"144 1012 LINE",
"281 1012 LINE",
"134 -130 LINE",
"114 -282 OFFCURVE",
"78 -389 OFFCURVE",
"-11 -389 CURVE SMOOTH",
"-64 -389 OFFCURVE",
"-156 -362 OFFCURVE",
"-168 -356 CURVE",
"-209 -491 LINE",
"-181 -499 OFFCURVE",
"-112 -506 OFFCURVE",
"-48 -504 CURVE SMOOTH",
"145 -498 OFFCURVE",
"265 -324 OFFCURVE",
"300 -62 CURVE SMOOTH",
"441 1012 LINE",
"697 1012 LINE",
"710 1127 LINE",
"455 1127 LINE",
"468 1236 LINE SMOOTH",
"490 1402 OFFCURVE",
"562 1514 OFFCURVE",
"677 1514 CURVE SMOOTH",
"748 1516 OFFCURVE",
"792 1490 OFFCURVE",
"818 1472 CURVE",
"863 1606 LINE",
"813 1626 OFFCURVE",
"760 1630 OFFCURVE",
"708 1630 CURVE SMOOTH",
"523 1630 OFFCURVE",
"350 1446 OFFCURVE",
"314 1219 CURVE SMOOTH"
);
}
);
width = 684;
},
{
anchors = (
{
name = top;
position = "{178, 1317}";
}
);
layerId = "27298932-82AF-4578-9425-6304FDB19058";
paths = (
{
closed = 1;
nodes = (
"234 1107 LINE",
"102 1045 LINE",
"82 944 LINE",
"204 944 LINE",
"72 -153 LINE",
"54 -288 OFFCURVE",
"12 -343 OFFCURVE",
"-53 -343 CURVE SMOOTH",
"-99 -343 OFFCURVE",
"-191 -302 OFFCURVE",
"-205 -296 CURVE",
"-262 -480 LINE",
"-228 -488 OFFCURVE",
"-147 -502 OFFCURVE",
"-77 -502 CURVE SMOOTH",
"227 -502 OFFCURVE",
"378 -171 OFFCURVE",
"416 145 CURVE SMOOTH",
"512 944 LINE",
"708 944 LINE",
"737 1111 LINE",
"535 1111 LINE",
"559 1273 LINE SMOOTH",
"577 1396 OFFCURVE",
"587 1479 OFFCURVE",
"690 1479 CURVE SMOOTH",
"754 1479 OFFCURVE",
"796 1451 OFFCURVE",
"820 1433 CURVE",
"881 1606 LINE",
"828 1626 OFFCURVE",
"762 1630 OFFCURVE",
"708 1630 CURVE SMOOTH",
"448 1630 OFFCURVE",
"290 1440 OFFCURVE",
"250 1201 CURVE SMOOTH"
);
}
);
width = 684;
}
);
leftKerningGroup = f;
rightKerningGroup = f;
unicode = 0066;
},
{
glyphname = g;
lastChange = "2019-04-05 05:20:06 +0000";
layers = (
{
anchors = (
{
name = bottom;
position = "{462, 0}";
},
{
name = top;
position = "{674, 1108}";
}
);
layerId = "0C3FD5EE-D923-4A4A-8FDE-164881635915";
paths = (
{
closed = 1;
nodes = (
"1036 1136 LINE",
"921 1094 LINE",
"867 1116 OFFCURVE",
"786 1136 OFFCURVE",
"709 1136 CURVE SMOOTH",
"307 1136 OFFCURVE",
"81 708 OFFCURVE",
"81 401 CURVE SMOOTH",
"81 159 OFFCURVE",
"184 -20 OFFCURVE",
"406 -20 CURVE SMOOTH",
"548 -20 OFFCURVE",
"662 67 OFFCURVE",
"730 151 CURVE",
"687 -129 LINE SMOOTH",
"660 -314 OFFCURVE",
"577 -371 OFFCURVE",
"400 -371 CURVE SMOOTH",
"299 -371 OFFCURVE",
"202 -338 OFFCURVE",
"150 -314 CURVE",
"111 -462 LINE",
"151 -478 OFFCURVE",
"242 -497 OFFCURVE",
"328 -497 CURVE SMOOTH",
"524 -497 OFFCURVE",
"805 -386 OFFCURVE",
"849 -76 CURVE"
);
},
{
closed = 1;
nodes = (
"750 288 LINE",
"697 206 OFFCURVE",
"575 95 OFFCURVE",
"437 95 CURVE SMOOTH",
"313 95 OFFCURVE",
"244 214 OFFCURVE",
"244 413 CURVE SMOOTH",
"244 666 OFFCURVE",
"385 1038 OFFCURVE",
"685 1038 CURVE SMOOTH",
"746 1038 OFFCURVE",
"809 1024 OFFCURVE",
"854 988 CURVE"
);
}
);
width = 1096;
},
{
anchors = (
{
name = bottom;
position = "{460, 0}";
},
{
name = top;
position = "{674, 1112}";
}
);
layerId = "27298932-82AF-4578-9425-6304FDB19058";
paths = (
{
closed = 1;
nodes = (
"1128 1136 LINE",
"970 1090 LINE",
"912 1112 OFFCURVE",
"812 1136 OFFCURVE",
"730 1136 CURVE SMOOTH",
"288 1136 OFFCURVE",
"60 770 OFFCURVE",
"60 392 CURVE SMOOTH",
"60 168 OFFCURVE",
"162 -20 OFFCURVE",
"406 -20 CURVE SMOOTH",
"520 -20 OFFCURVE",
"606 24 OFFCURVE",
"668 74 CURVE",
"644 -142 LINE SMOOTH",
"624 -314 OFFCURVE",
"558 -350 OFFCURVE",
"426 -350 CURVE SMOOTH",
"310 -350 OFFCURVE",
"172 -272 OFFCURVE",
"152 -254 CURVE",
"102 -462 LINE",
"140 -480 OFFCURVE",
"268 -506 OFFCURVE",
"362 -506 CURVE SMOOTH",
"622 -506 OFFCURVE",
"920 -416 OFFCURVE",
"964 -76 CURVE"
);
},
{
closed = 1;
nodes = (
"686 224 LINE",
"648 182 OFFCURVE",
"596 148 OFFCURVE",
"540 148 CURVE SMOOTH",
"450 148 OFFCURVE",
"394 244 OFFCURVE",
"394 404 CURVE SMOOTH",
"394 664 OFFCURVE",
"468 1002 OFFCURVE",
"708 1002 CURVE SMOOTH",
"740 1002 OFFCURVE",
"772 996 OFFCURVE",
"798 988 CURVE"
);
}
);
width = 1154;
}
);
leftKerningGroup = g;
leftMetricsKey = d;
rightKerningGroup = g;
unicode = 0067;
},
{
glyphname = gstroke;
lastChange = "2019-04-05 05:20:06 +0000";
layers = (
{
components = (
{
alignment = -1;
name = g;
}
);
layerId = "0C3FD5EE-D923-4A4A-8FDE-164881635915";
paths = (
{
closed = 1;
nodes = (
"492 529 LINE",
"1074 529 LINE",
"1093 655 LINE",
"511 655 LINE"
);
}
);
width = 1126;
},
{
components = (
{
alignment = -1;
name = g;
}
);
layerId = "27298932-82AF-4578-9425-6304FDB19058";
paths = (
{
closed = 1;
nodes = (
"523 516 LINE",
"1165 516 LINE",
"1200 706 LINE",
"557 706 LINE"
);
}
);
width = 1188;
}
);
leftKerningGroup = g;
rightKerningGroup = gstroke;
unicode = 01E5;
},
{
glyphname = h;
lastChange = "2019-04-05 05:37:06 +0000";
layers = (
{
anchors = (
{
name = bottom;
position = "{534, 0}";
},
{
name = cap;
position = "{232, 1814}";
},
{
name = top;
position = "{390, 1532}";
}
);
layerId = "0C3FD5EE-D923-4A4A-8FDE-164881635915";
paths = (
{
closed = 1;
nodes = (
"477 1610 LINE",
"436 1634 LINE",
"206 1600 LINE",
"194 1533 LINE",
"307 1500 LINE",
"111 0 LINE",
"263 0 LINE",
"361 724 LINE",
"461 877 OFFCURVE",
"627 1008 OFFCURVE",
"749 1008 CURVE SMOOTH",
"836 1008 OFFCURVE",
"879 969 OFFCURVE",
"879 836 CURVE SMOOTH",
"879 715 OFFCURVE",
"846 559 OFFCURVE",
"824 445 CURVE",
"806 335 OFFCURVE",
"774 187 OFFCURVE",
"770 97 CURVE",
"767 13 OFFCURVE",
"808 -20 OFFCURVE",
"880 -20 CURVE SMOOTH",
"992 -20 OFFCURVE",
"1079 77 OFFCURVE",
"1093 101 CURVE",
"1069 147 LINE",
"1021 105 OFFCURVE",
"995 86 OFFCURVE",
"964 86 CURVE SMOOTH",
"944 86 OFFCURVE",
"933 111 OFFCURVE",
"935 157 CURVE",
"943 255 OFFCURVE",
"971 394 OFFCURVE",
"989 494 CURVE SMOOTH",
"1009 602 OFFCURVE",
"1040 752 OFFCURVE",
"1040 846 CURVE SMOOTH",
"1040 1064 OFFCURVE",
"955 1136 OFFCURVE",
"816 1136 CURVE SMOOTH",
"649 1136 OFFCURVE",
"485 1002 OFFCURVE",
"378 853 CURVE"
);
}
);
width = 1210;
},
{
anchors = (
{
name = bottom;
position = "{594, 0}";
},
{
name = cap;
position = "{224, 1814}";
},
{
name = top;
position = "{429, 1567}";
}
);
layerId = "27298932-82AF-4578-9425-6304FDB19058";
paths = (
{
closed = 1;
nodes = (
"590 1606 LINE",
"533 1634 LINE",
"142 1592 LINE",
"126 1513 LINE",
"267 1471 LINE",
"62 0 LINE",
"376 0 LINE",
"470 689 LINE",
"534 826 OFFCURVE",
"645 944 OFFCURVE",
"727 944 CURVE SMOOTH",
"780 944 OFFCURVE",
"804 916 OFFCURVE",
"806 807 CURVE SMOOTH",
"808 693 OFFCURVE",
"780 539 OFFCURVE",
"762 432 CURVE SMOOTH",
"742 324 OFFCURVE",
"716 202 OFFCURVE",
"716 144 CURVE SMOOTH",
"716 60 OFFCURVE",
"740 -20 OFFCURVE",
"913 -20 CURVE SMOOTH",
"1085 -20 OFFCURVE",
"1181 92 OFFCURVE",
"1202 121 CURVE",
"1175 191 LINE",
"1128 156 OFFCURVE",
"1108 146 OFFCURVE",
"1086 146 CURVE SMOOTH",
"1068 146 OFFCURVE",
"1048 153 OFFCURVE",
"1048 201 CURVE SMOOTH",
"1049 273 OFFCURVE",
"1075 394 OFFCURVE",
"1091 494 CURVE SMOOTH",
"1109 602 OFFCURVE",
"1139 781 OFFCURVE",
"1139 840 CURVE SMOOTH",
"1139 1060 OFFCURVE",
"1032 1136 OFFCURVE",
"880 1136 CURVE SMOOTH",
"722 1136 OFFCURVE",
"587 1037 OFFCURVE",
"500 893 CURVE"
);
}
);
width = 1257;
}
);
leftKerningGroup = h;
rightKerningGroup = n;
rightMetricsKey = n;
unicode = 0068;
},
{
glyphname = hbar;
lastChange = "2019-04-05 05:37:06 +0000";
layers = (
{
layerId = "0C3FD5EE-D923-4A4A-8FDE-164881635915";
paths = (
{
closed = 1;
nodes = (
"437 1249 LINE",
"698 1249 LINE",
"712 1337 LINE",
"449 1337 LINE",
"483 1588 LINE",
"442 1612 LINE",
"211 1578 LINE",
"199 1511 LINE",
"312 1478 LINE",
"292 1337 LINE",
"136 1337 LINE",
"124 1249 LINE",
"282 1249 LINE",
"117 0 LINE",
"270 0 LINE",
"367 724 LINE",
"467 877 OFFCURVE",
"633 1008 OFFCURVE",
"754 1008 CURVE SMOOTH",
"842 1008 OFFCURVE",
"885 969 OFFCURVE",
"885 836 CURVE SMOOTH",
"885 715 OFFCURVE",
"851 559 OFFCURVE",
"829 445 CURVE",
"811 335 OFFCURVE",
"780 187 OFFCURVE",
"776 97 CURVE",
"772 13 OFFCURVE",
"813 -20 OFFCURVE",
"886 -20 CURVE SMOOTH",
"997 -20 OFFCURVE",
"1084 77 OFFCURVE",
"1099 101 CURVE",
"1074 147 LINE",
"1026 105 OFFCURVE",
"1001 86 OFFCURVE",
"969 86 CURVE SMOOTH",
"949 86 OFFCURVE",
"939 111 OFFCURVE",
"941 157 CURVE",
"948 255 OFFCURVE",
"976 394 OFFCURVE",
"994 494 CURVE SMOOTH",
"1014 602 OFFCURVE",
"1046 752 OFFCURVE",
"1046 846 CURVE SMOOTH",
"1046 1064 OFFCURVE",
"960 1136 OFFCURVE",
"822 1136 CURVE SMOOTH",
"654 1136 OFFCURVE",
"490 1002 OFFCURVE",
"384 852 CURVE"
);
}
);
width = 1216;
},
{
layerId = "27298932-82AF-4578-9425-6304FDB19058";
paths = (
{
closed = 1;
nodes = (
"541 1233 LINE",
"752 1233 LINE",
"768 1359 LINE",
"556 1359 LINE",
"585 1584 LINE",
"533 1612 LINE",
"138 1570 LINE",
"122 1491 LINE",
"246 1449 LINE",
"236 1359 LINE",
"105 1359 LINE",
"89 1233 LINE",
"220 1233 LINE",
"71 0 LINE",
"390 0 LINE",
"474 689 LINE",
"538 826 OFFCURVE",
"642 944 OFFCURVE",
"723 944 CURVE SMOOTH",
"776 944 OFFCURVE",
"801 916 OFFCURVE",
"803 807 CURVE SMOOTH",
"805 693 OFFCURVE",
"776 539 OFFCURVE",
"758 432 CURVE SMOOTH",
"738 324 OFFCURVE",
"712 202 OFFCURVE",
"712 144 CURVE SMOOTH",
"712 60 OFFCURVE",
"736 -20 OFFCURVE",
"909 -20 CURVE SMOOTH",
"1081 -20 OFFCURVE",
"1177 92 OFFCURVE",
"1199 121 CURVE",
"1171 191 LINE",
"1125 156 OFFCURVE",
"1105 146 OFFCURVE",
"1082 146 CURVE SMOOTH",
"1064 146 OFFCURVE",
"1045 153 OFFCURVE",
"1045 201 CURVE SMOOTH",
"1045 273 OFFCURVE",
"1071 394 OFFCURVE",
"1087 494 CURVE SMOOTH",
"1105 602 OFFCURVE",
"1135 781 OFFCURVE",
"1135 840 CURVE SMOOTH",
"1135 1060 OFFCURVE",
"1028 1136 OFFCURVE",
"876 1136 CURVE SMOOTH",
"718 1136 OFFCURVE",
"587 1037 OFFCURVE",
"500 891 CURVE"
);
}
);
width = 1254;
}
);
leftKerningGroup = h;
rightKerningGroup = n;
rightMetricsKey = n;
unicode = 0127;
},
{
glyphname = idotless;
lastChange = "2019-04-05 05:20:06 +0000";
layers = (
{
anchors = (
{
name = bottom;
position = "{235, 0}";
},
{
name = top;
position = "{372, 1110}";
}
);
layerId = "0C3FD5EE-D923-4A4A-8FDE-164881635915";
paths = (
{
closed = 1;
nodes = (
"460 1112 LINE",
"419 1132 LINE",
"166 1090 LINE",
"154 1026 LINE",
"283 985 LINE",
"244 688 OFFCURVE",
"158 224 OFFCURVE",
"147 98 CURVE SMOOTH",
"140 12 OFFCURVE",
"190 -20 OFFCURVE",
"258 -20 CURVE SMOOTH",
"368 -20 OFFCURVE",
"453 83 OFFCURVE",
"471 111 CURVE",
"445 154 LINE",
"399 105 OFFCURVE",
"369 88 OFFCURVE",
"340 88 CURVE SMOOTH",
"321 88 OFFCURVE",
"303 110 OFFCURVE",
"311 158 CURVE SMOOTH"
);
}
);
width = 637;
},
{
anchors = (
{
name = bottom;
position = "{279, 0}";
},
{
name = top;
position = "{372, 1110}";
}
);
layerId = "27298932-82AF-4578-9425-6304FDB19058";
paths = (
{
closed = 1;
nodes = (
"549 1112 LINE",
"496 1136 LINE",
"110 1084 LINE",
"94 999 LINE",
"206 938 LINE",
"157 564 OFFCURVE",
"119 280 OFFCURVE",
"98 125 CURVE SMOOTH",
"86 41 OFFCURVE",
"153 -20 OFFCURVE",
"289 -20 CURVE SMOOTH",
"457 -20 OFFCURVE",
"553 92 OFFCURVE",
"575 122 CURVE",
"549 191 LINE",
"503 158 OFFCURVE",
"480 146 OFFCURVE",
"458 146 CURVE SMOOTH",
"428 146 OFFCURVE",
"418 172 OFFCURVE",
"424 220 CURVE SMOOTH"
);
}
);
width = 659;
}
);
leftKerningGroup = i;
rightKerningGroup = i;
unicode = 0131;
},
{
glyphname = iogonek;
lastChange = "2019-04-05 05:20:06 +0000";
layers = (
{
layerId = "0C3FD5EE-D923-4A4A-8FDE-164881635915";
paths = (
{
closed = 1;
nodes = (
"466 1112 LINE",
"425 1132 LINE",
"173 1090 LINE",
"160 1026 LINE",
"289 985 LINE",
"251 688 OFFCURVE",
"175 226 OFFCURVE",
"164 100 CURVE",
"160 30 OFFCURVE",
"188 -3 OFFCURVE",
"236 -16 CURVE",
"169 -51 OFFCURVE",
"99 -95 OFFCURVE",
"44 -170 CURVE SMOOTH",
"26 -201 OFFCURVE",
"12 -243 OFFCURVE",
"12 -281 CURVE SMOOTH",
"12 -342 OFFCURVE",
"64 -410 OFFCURVE",
"164 -410 CURVE SMOOTH",
"278 -410 OFFCURVE",
"352 -362 OFFCURVE",
"406 -314 CURVE",
"383 -238 LINE",
"337 -278 OFFCURVE",
"283 -304 OFFCURVE",
"229 -304 CURVE SMOOTH",
"191 -304 OFFCURVE",
"160 -279 OFFCURVE",
"163 -219 CURVE SMOOTH",
"165 -144 OFFCURVE",
"264 -69 OFFCURVE",
"362 2 CURVE",
"427 32 OFFCURVE",
"475 89 OFFCURVE",
"488 111 CURVE",
"462 154 LINE",
"416 105 OFFCURVE",
"387 88 OFFCURVE",
"357 88 CURVE SMOOTH",
"339 88 OFFCURVE",
"323 110 OFFCURVE",
"329 158 CURVE SMOOTH"
);
},
{
closed = 1;
nodes = (
"383 1589 OFFCURVE",
"326 1535 OFFCURVE",
"324 1464 CURVE SMOOTH",
"322 1407 OFFCURVE",
"362 1364 OFFCURVE",
"412 1364 CURVE SMOOTH",
"477 1364 OFFCURVE",
"529 1422 OFFCURVE",
"531 1495 CURVE SMOOTH",
"531 1548 OFFCURVE",
"495 1589 OFFCURVE",
"437 1589 CURVE SMOOTH"
);
}
);
width = 620;
},
{
layerId = "27298932-82AF-4578-9425-6304FDB19058";
paths = (
{
closed = 1;
nodes = (
"561 1112 LINE",
"507 1136 LINE",
"122 1084 LINE",
"106 999 LINE",
"218 938 LINE",
"169 564 OFFCURVE",
"131 313 OFFCURVE",
"110 158 CURVE SMOOTH",
"96 61 OFFCURVE",
"134 12 OFFCURVE",
"211 -8 CURVE",
"149 -42 OFFCURVE",
"84 -86 OFFCURVE",
"21 -178 CURVE SMOOTH",
"-3 -214 OFFCURVE",
"-23 -265 OFFCURVE",
"-23 -297 CURVE SMOOTH",
"-23 -400 OFFCURVE",
"41 -466 OFFCURVE",
"166 -466 CURVE SMOOTH",
"305 -466 OFFCURVE",
"420 -399 OFFCURVE",
"497 -318 CURVE",
"463 -209 LINE",
"410 -251 OFFCURVE",
"367 -281 OFFCURVE",
"313 -281 CURVE SMOOTH",
"275 -281 OFFCURVE",
"247 -266 OFFCURVE",
"247 -210 CURVE SMOOTH",
"247 -140 OFFCURVE",
"355 -53 OFFCURVE",
"482 29 CURVE",
"538 61 OFFCURVE",
"575 104 OFFCURVE",
"587 122 CURVE",
"561 191 LINE",
"515 158 OFFCURVE",
"493 146 OFFCURVE",
"470 146 CURVE SMOOTH",
"441 146 OFFCURVE",
"429 172 OFFCURVE",
"436 220 CURVE SMOOTH"
);
},
{
closed = 1;
nodes = (
"330 1660 OFFCURVE",
"258 1575 OFFCURVE",
"256 1470 CURVE SMOOTH",
"254 1389 OFFCURVE",
"327 1308 OFFCURVE",
"412 1308 CURVE SMOOTH",
"548 1308 OFFCURVE",
"607 1397 OFFCURVE",
"611 1504 CURVE SMOOTH",
"613 1581 OFFCURVE",
"548 1660 OFFCURVE",
"448 1660 CURVE SMOOTH"
);
}
);
width = 655;
}
);
leftKerningGroup = i;
rightKerningGroup = i;
unicode = 012F;
},
{
glyphname = jdotless;
lastChange = "2019-04-05 05:20:06 +0000";
layers = (
{
anchors = (
{
name = top;
position = "{343, 1110}";
}
);
layerId = "0C3FD5EE-D923-4A4A-8FDE-164881635915";
paths = (
{
closed = 1;
nodes = (
"434 1112 LINE",
"395 1132 LINE",
"137 1090 LINE",
"124 1026 LINE",
"260 985 LINE",
"154 56 LINE SMOOTH",
"124 -198 OFFCURVE",
"58 -417 OFFCURVE",
"-136 -417 CURVE SMOOTH",
"-168 -417 OFFCURVE",
"-208 -409 OFFCURVE",
"-226 -401 CURVE",
"-255 -471 LINE",
"-233 -493 OFFCURVE",
"-168 -507 OFFCURVE",
"-105 -507 CURVE SMOOTH",
"120 -507 OFFCURVE",
"266 -324 OFFCURVE",
"304 2 CURVE SMOOTH"
);
}
);
width = 569;
},
{
anchors = (
{
name = top;
position = "{359, 1110}";
}
);
layerId = "27298932-82AF-4578-9425-6304FDB19058";
paths = (
{
closed = 1;
nodes = (
"562 1112 LINE",
"506 1136 LINE",
"117 1086 LINE",
"97 999 LINE",
"223 936 LINE",
"121 64 LINE SMOOTH",
"95 -167 OFFCURVE",
"58 -366 OFFCURVE",
"-107 -366 CURVE SMOOTH",
"-133 -366 OFFCURVE",
"-177 -360 OFFCURVE",
"-195 -354 CURVE",
"-237 -480 LINE",
"-211 -504 OFFCURVE",
"-133 -516 OFFCURVE",
"-56 -516 CURVE SMOOTH",
"180 -516 OFFCURVE",
"386 -328 OFFCURVE",
"426 0 CURVE SMOOTH"
);
}
);
width = 640;
}
);
leftKerningGroup = j;
rightKerningGroup = i;
unicode = 0237;
},
{
glyphname = k;
lastChange = "2019-04-05 05:20:06 +0000";
layers = (
{
anchors = (
{
name = bottom;
position = "{463, 0}";
},
{
name = top;
position = "{685, 1548}";
}
);
layerId = "0C3FD5EE-D923-4A4A-8FDE-164881635915";
paths = (
{
closed = 1;
nodes = (
"665 87 LINE",
"708 13 OFFCURVE",
"763 -20 OFFCURVE",
"828 -20 CURVE SMOOTH",
"925 -20 OFFCURVE",
"995 38 OFFCURVE",
"1025 90 CURVE",
"991 147 LINE",
"952 107 OFFCURVE",
"930 101 OFFCURVE",
"904 101 CURVE SMOOTH",
"870 101 OFFCURVE",
"824 137 OFFCURVE",
"788 189 CURVE SMOOTH",
"505 606 LINE",
"607 667 OFFCURVE",
"851 786 OFFCURVE",
"942 916 CURVE",
"974 961 OFFCURVE",
"987 1006 OFFCURVE",
"985 1040 CURVE SMOOTH",
"983 1089 OFFCURVE",
"949 1123 OFFCURVE",
"904 1123 CURVE SMOOTH",
"859 1123 OFFCURVE",
"810 1093 OFFCURVE",
"800 1030 CURVE",
"795 987 OFFCURVE",
"786 935 OFFCURVE",
"745 880 CURVE SMOOTH",
"648 750 OFFCURVE",
"496 691 OFFCURVE",
"364 596 CURVE"
);
},
{
closed = 1;
nodes = (
"203 1579 LINE",
"191 1512 LINE",
"304 1479 LINE",
"107 0 LINE",
"259 0 LINE",
"474 1589 LINE",
"433 1613 LINE"
);
}
);
width = 1067;
},
{
anchors = (
{
name = bottom;
position = "{514, 0}";
},
{
name = top;
position = "{758, 1548}";
}
);
layerId = "27298932-82AF-4578-9425-6304FDB19058";
paths = (
{
closed = 1;
nodes = (
"645 98 LINE SMOOTH",
"671 29 OFFCURVE",
"723 -18 OFFCURVE",
"836 -18 CURVE SMOOTH",
"1000 -18 OFFCURVE",
"1130 104 OFFCURVE",
"1167 152 CURVE",
"1135 220 LINE",
"1097 191 OFFCURVE",
"1046 176 OFFCURVE",
"1022 176 CURVE SMOOTH",
"990 176 OFFCURVE",
"950 206 OFFCURVE",
"918 266 CURVE",
"735 637 LINE",
"844 687 OFFCURVE",
"964 761 OFFCURVE",
"1037 854 CURVE",
"1065 890 OFFCURVE",
"1093 940 OFFCURVE",
"1092 1011 CURVE SMOOTH",
"1092 1078 OFFCURVE",
"1049 1136 OFFCURVE",
"966 1136 CURVE SMOOTH",
"901 1136 OFFCURVE",
"808 1109 OFFCURVE",
"808 1005 CURVE SMOOTH",
"808 943 OFFCURVE",
"792 891 OFFCURVE",
"756 843 CURVE SMOOTH",
"640 692 OFFCURVE",
"554 649 OFFCURVE",
"455 596 CURVE"
);
},
{
closed = 1;
nodes = (
"161 1592 LINE",
"144 1512 LINE",
"269 1470 LINE",
"60 0 LINE",
"374 0 LINE",
"594 1605 LINE",
"540 1633 LINE"
);
}
);
width = 1144;
}
);
leftKerningGroup = h;
rightKerningGroup = k;
unicode = 006B;
},
{
glyphname = kgreenlandic;
lastChange = "2019-04-05 05:20:06 +0000";
layers = (
{
anchors = (
{
name = bottom;
position = "{574, -126}";
}
);
layerId = "0C3FD5EE-D923-4A4A-8FDE-164881635915";
paths = (
{
closed = 1;
nodes = (
"534 579 LINE",
"1067 1110 LINE",
"888 1110 LINE",
"384 572 LINE",
"667 87 LINE",
"708 11 OFFCURVE",
"745 -18 OFFCURVE",
"824 -18 CURVE SMOOTH",
"909 -18 OFFCURVE",
"975 35 OFFCURVE",
"1004 73 CURVE",
"973 126 LINE",
"941 107 OFFCURVE",
"915 99 OFFCURVE",
"895 99 CURVE SMOOTH",
"861 99 OFFCURVE",
"819 142 OFFCURVE",
"793 181 CURVE"
);
},
{
closed = 1;
nodes = (
"169 1088 LINE",
"153 1021 LINE",
"261 989 LINE",
"135 0 LINE",
"287 0 LINE",
"431 1101 LINE",
"390 1125 LINE"
);
}
);
width = 1045;
},
{
anchors = (
{
name = bottom;
position = "{574, -126}";
}
);
layerId = "27298932-82AF-4578-9425-6304FDB19058";
paths = (
{
closed = 1;
nodes = (
"743 648 LINE",
"1167 1110 LINE",
"884 1110 LINE",
"473 595 LINE",
"658 98 LINE SMOOTH",
"685 29 OFFCURVE",
"736 -18 OFFCURVE",
"849 -18 CURVE SMOOTH",
"1013 -18 OFFCURVE",
"1143 104 OFFCURVE",
"1180 151 CURVE",
"1148 219 LINE",
"1110 191 OFFCURVE",
"1059 176 OFFCURVE",
"1035 176 CURVE SMOOTH",
"1003 176 OFFCURVE",
"961 206 OFFCURVE",
"931 265 CURVE"
);
},
{
closed = 1;
nodes = (
"122 1084 LINE",
"106 999 LINE",
"210 942 LINE",
"82 0 LINE",
"393 0 LINE",
"533 1112 LINE",
"481 1136 LINE"
);
}
);
width = 1185;
}
);
leftKerningGroup = h;
rightKerningGroup = k;
unicode = 0138;
},
{
glyphname = l;
lastChange = "2019-04-05 05:20:06 +0000";
layers = (
{
anchors = (
{
name = bottom;
position = "{237, 0}";
},
{
name = caron;
position = "{568, 1532}";
},
{
name = top;
position = "{393, 1561}";
}
);
layerId = "0C3FD5EE-D923-4A4A-8FDE-164881635915";
paths = (
{
closed = 1;
nodes = (
"485 1612 LINE",
"447 1636 LINE",
"217 1601 LINE",
"200 1535 LINE",
"319 1502 LINE",
"133 167 LINE SMOOTH",
"131 148 OFFCURVE",
"127 115 OFFCURVE",
"127 101 CURVE SMOOTH",
"125 14 OFFCURVE",
"163 -20 OFFCURVE",
"232 -20 CURVE SMOOTH",
"351 -20 OFFCURVE",
"427 83 OFFCURVE",
"443 111 CURVE",
"417 154 LINE",
"369 103 OFFCURVE",
"338 88 OFFCURVE",
"311 88 CURVE SMOOTH",
"292 88 OFFCURVE",
"278 112 OFFCURVE",
"284 158 CURVE SMOOTH"
);
}
);
width = 577;
},
{
anchors = (
{
name = bottom;
position = "{253, 0}";
},
{
name = caron;
position = "{690, 1532}";
},
{
name = top;
position = "{406, 1570}";
}
);
layerId = "27298932-82AF-4578-9425-6304FDB19058";
paths = (
{
closed = 1;
nodes = (
"606 1606 LINE",
"556 1634 LINE",
"170 1592 LINE",
"150 1512 LINE",
"280 1472 LINE",
"91 187 LINE SMOOTH",
"90 172 OFFCURVE",
"83 135 OFFCURVE",
"83 112 CURVE SMOOTH",
"83 16 OFFCURVE",
"183 -20 OFFCURVE",
"286 -20 CURVE SMOOTH",
"457 -20 OFFCURVE",
"536 92 OFFCURVE",
"558 122 CURVE",
"532 191 LINE",
"480 152 OFFCURVE",
"462 146 OFFCURVE",
"442 146 CURVE SMOOTH",
"410 146 OFFCURVE",
"400 174 OFFCURVE",
"406 220 CURVE SMOOTH"
);
}
);
width = 630;
}
);
leftKerningGroup = l;
rightKerningGroup = l;
unicode = 006C;
},
{
glyphname = lslash;
lastChange = "2019-04-05 05:20:06 +0000";
layers = (
{
layerId = "0C3FD5EE-D923-4A4A-8FDE-164881635915";
paths = (
{
closed = 1;
nodes = (
"432 907 LINE",
"646 993 LINE",
"646 1108 LINE",
"448 1027 LINE",
"527 1588 LINE",
"488 1612 LINE",
"260 1578 LINE",
"243 1511 LINE",
"360 1478 LINE",
"287 961 LINE",
"118 891 LINE",
"118 783 LINE",
"272 845 LINE",
"175 167 LINE SMOOTH",
"173 148 OFFCURVE",
"169 115 OFFCURVE",
"169 101 CURVE SMOOTH",
"168 14 OFFCURVE",
"206 -20 OFFCURVE",
"274 -20 CURVE SMOOTH",
"383 -20 OFFCURVE",
"469 83 OFFCURVE",
"486 111 CURVE",
"460 154 LINE",
"412 103 OFFCURVE",
"380 88 OFFCURVE",
"353 88 CURVE SMOOTH",
"334 88 OFFCURVE",
"320 112 OFFCURVE",
"326 158 CURVE SMOOTH"
);
}
);
width = 645;
},
{
layerId = "27298932-82AF-4578-9425-6304FDB19058";
paths = (
{
closed = 1;
nodes = (
"548 896 LINE",
"739 973 LINE",
"739 1114 LINE",
"566 1043 LINE",
"634 1584 LINE",
"585 1612 LINE",
"194 1570 LINE",
"174 1491 LINE",
"304 1449 LINE",
"236 910 LINE",
"79 845 LINE",
"79 712 LINE",
"218 767 LINE",
"135 187 LINE SMOOTH",
"133 171 OFFCURVE",
"127 135 OFFCURVE",
"127 112 CURVE SMOOTH",
"129 16 OFFCURVE",
"231 -20 OFFCURVE",
"334 -20 CURVE SMOOTH",
"494 -20 OFFCURVE",
"584 92 OFFCURVE",
"606 122 CURVE",
"580 191 LINE",
"528 152 OFFCURVE",
"510 146 OFFCURVE",
"490 146 CURVE SMOOTH",
"458 146 OFFCURVE",
"448 174 OFFCURVE",
"454 220 CURVE"
);
}
);
width = 714;
}
);
leftKerningGroup = lslash;
rightKerningGroup = lslash;
unicode = 0142;
},
{
glyphname = m;
lastChange = "2019-04-05 05:37:06 +0000";
layers = (
{
anchors = (
{
name = bottom;
position = "{870, 0}";
},
{
name = top;
position = "{1040, 1110}";
}
);
layerId = "0C3FD5EE-D923-4A4A-8FDE-164881635915";
paths = (
{
closed = 1;
nodes = (
"427 1116 LINE",
"390 1136 LINE",
"180 1093 LINE",
"166 1022 LINE",
"263 976 LINE",
"133 0 LINE",
"287 0 LINE",
"385 728 LINE",
"485 880 OFFCURVE",
"648 1008 OFFCURVE",
"765 1008 CURVE SMOOTH",
"865 1008 OFFCURVE",
"897 971 OFFCURVE",
"897 836 CURVE SMOOTH",
"897 718 OFFCURVE",
"871 559 OFFCURVE",
"854 445 CURVE",
"790 0 LINE",
"949 0 LINE",
"1016 494 LINE",
"1028 572 OFFCURVE",
"1042 668 OFFCURVE",
"1050 753 CURVE",
"1145 892 OFFCURVE",
"1283 1006 OFFCURVE",
"1387 1006 CURVE SMOOTH",
"1475 1006 OFFCURVE",
"1516 969 OFFCURVE",
"1516 836 CURVE SMOOTH",
"1516 715 OFFCURVE",
"1484 561 OFFCURVE",
"1466 451 CURVE",
"1448 335 OFFCURVE",
"1420 189 OFFCURVE",
"1416 95 CURVE SMOOTH",
"1414 16 OFFCURVE",
"1448 -20 OFFCURVE",
"1520 -20 CURVE SMOOTH",
"1630 -20 OFFCURVE",
"1717 83 OFFCURVE",
"1735 111 CURVE",
"1711 154 LINE",
"1663 107 OFFCURVE",
"1632 88 OFFCURVE",
"1600 88 CURVE SMOOTH",
"1580 88 OFFCURVE",
"1574 113 OFFCURVE",
"1577 157 CURVE SMOOTH",
"1583 257 OFFCURVE",
"1609 392 OFFCURVE",
"1627 494 CURVE SMOOTH",
"1645 608 OFFCURVE",
"1675 754 OFFCURVE",
"1675 846 CURVE SMOOTH",
"1675 1054 OFFCURVE",
"1582 1136 OFFCURVE",
"1447 1136 CURVE SMOOTH",
"1300 1136 OFFCURVE",
"1153 1018 OFFCURVE",
"1053 879 CURVE",
"1049 1059 OFFCURVE",
"975 1136 OFFCURVE",
"834 1136 CURVE SMOOTH",
"675 1136 OFFCURVE",
"510 1010 OFFCURVE",
"401 865 CURVE"
);
}
);
width = 1851;
},
{
anchors = (
{
name = bottom;
position = "{893, 0}";
},
{
name = top;
position = "{1079, 1110}";
}
);
layerId = "27298932-82AF-4578-9425-6304FDB19058";
paths = (
{
closed = 1;
nodes = (
"533 1112 LINE",
"481 1136 LINE",
"122 1084 LINE",
"106 999 LINE",
"210 941 LINE",
"82 0 LINE",
"393 0 LINE",
"492 724 LINE",
"554 845 OFFCURVE",
"656 944 OFFCURVE",
"725 944 CURVE SMOOTH",
"788 944 OFFCURVE",
"815 924 OFFCURVE",
"819 801 CURVE SMOOTH",
"820 689 OFFCURVE",
"802 541 OFFCURVE",
"788 432 CURVE SMOOTH",
"732 0 LINE",
"1055 0 LINE",
"1113 494 LINE",
"1123 568 OFFCURVE",
"1131 660 OFFCURVE",
"1135 740 CURVE",
"1198 863 OFFCURVE",
"1294 944 OFFCURVE",
"1371 944 CURVE SMOOTH",
"1424 944 OFFCURVE",
"1448 916 OFFCURVE",
"1450 807 CURVE SMOOTH",
"1452 693 OFFCURVE",
"1424 539 OFFCURVE",
"1406 433 CURVE SMOOTH",
"1384 324 OFFCURVE",
"1360 202 OFFCURVE",
"1360 144 CURVE SMOOTH",
"1360 70 OFFCURVE",
"1382 -20 OFFCURVE",
"1555 -20 CURVE SMOOTH",
"1729 -20 OFFCURVE",
"1824 92 OFFCURVE",
"1846 122 CURVE",
"1818 191 LINE",
"1772 156 OFFCURVE",
"1752 146 OFFCURVE",
"1730 146 CURVE SMOOTH",
"1710 146 OFFCURVE",
"1692 153 OFFCURVE",
"1692 201 CURVE SMOOTH",
"1692 273 OFFCURVE",
"1716 394 OFFCURVE",
"1734 494 CURVE SMOOTH",
"1752 602 OFFCURVE",
"1782 781 OFFCURVE",
"1782 840 CURVE SMOOTH",
"1782 1060 OFFCURVE",
"1673 1136 OFFCURVE",
"1524 1136 CURVE SMOOTH",
"1356 1136 OFFCURVE",
"1222 1047 OFFCURVE",
"1135 894 CURVE",
"1118 1074 OFFCURVE",
"1015 1136 OFFCURVE",
"873 1136 CURVE SMOOTH",
"722 1136 OFFCURVE",
"597 1035 OFFCURVE",
"516 905 CURVE"
);
}
);
width = 1901;
}
);
leftKerningGroup = n;
leftMetricsKey = n;
rightKerningGroup = n;
rightMetricsKey = n;
unicode = 006D;
},
{
glyphname = n;
lastChange = "2019-04-05 05:20:06 +0000";
layers = (
{
anchors = (
{
name = bottom;
position = "{558, 0}";
},
{
name = top;
position = "{658, 1110}";
}
);
layerId = "0C3FD5EE-D923-4A4A-8FDE-164881635915";
paths = (
{
closed = 1;
nodes = (
"429 1116 LINE",
"390 1136 LINE",
"180 1093 LINE",
"166 1022 LINE",
"263 976 LINE",
"133 0 LINE",
"287 0 LINE",
"385 727 LINE",
"484 877 OFFCURVE",
"648 1008 OFFCURVE",
"766 1008 CURVE SMOOTH",
"865 1008 OFFCURVE",
"900 969 OFFCURVE",
"900 836 CURVE SMOOTH",
"900 715 OFFCURVE",
"867 559 OFFCURVE",
"845 445 CURVE SMOOTH",
"827 335 OFFCURVE",
"793 187 OFFCURVE",
"789 97 CURVE SMOOTH",
"788 14 OFFCURVE",
"827 -20 OFFCURVE",
"895 -20 CURVE SMOOTH",
"1000 -20 OFFCURVE",
"1086 71 OFFCURVE",
"1099 94 CURVE",
"1075 139 LINE",
"1036 103 OFFCURVE",
"1005 88 OFFCURVE",
"979 88 CURVE SMOOTH",
"961 88 OFFCURVE",
"954 113 OFFCURVE",
"956 157 CURVE SMOOTH",
"962 255 OFFCURVE",
"990 394 OFFCURVE",
"1008 494 CURVE SMOOTH",
"1028 602 OFFCURVE",
"1059 752 OFFCURVE",
"1059 848 CURVE SMOOTH",
"1059 1064 OFFCURVE",
"972 1136 OFFCURVE",
"835 1136 CURVE SMOOTH",
"676 1136 OFFCURVE",
"510 1010 OFFCURVE",
"401 865 CURVE"
);
}
);
width = 1217;
},
{
anchors = (
{
name = bottom;
position = "{581, 0}";
},
{
name = top;
position = "{693, 1110}";
}
);
layerId = "27298932-82AF-4578-9425-6304FDB19058";
paths = (
{
closed = 1;
nodes = (
"533 1112 LINE",
"483 1136 LINE",
"122 1084 LINE",
"106 999 LINE",
"210 941 LINE",
"84 0 LINE",
"394 0 LINE",
"491 705 LINE",
"552 835 OFFCURVE",
"654 944 OFFCURVE",
"731 944 CURVE SMOOTH",
"785 944 OFFCURVE",
"809 916 OFFCURVE",
"811 807 CURVE SMOOTH",
"813 693 OFFCURVE",
"785 539 OFFCURVE",
"767 432 CURVE SMOOTH",
"749 324 OFFCURVE",
"720 202 OFFCURVE",
"720 144 CURVE SMOOTH",
"720 70 OFFCURVE",
"745 -20 OFFCURVE",
"915 -20 CURVE SMOOTH",
"1089 -20 OFFCURVE",
"1185 91 OFFCURVE",
"1206 121 CURVE",
"1179 190 LINE",
"1133 156 OFFCURVE",
"1112 146 OFFCURVE",
"1090 146 CURVE SMOOTH",
"1072 146 OFFCURVE",
"1053 153 OFFCURVE",
"1053 201 CURVE SMOOTH",
"1053 273 OFFCURVE",
"1079 394 OFFCURVE",
"1095 494 CURVE SMOOTH",
"1113 602 OFFCURVE",
"1143 781 OFFCURVE",
"1143 840 CURVE SMOOTH",
"1143 1060 OFFCURVE",
"1036 1136 OFFCURVE",
"884 1136 CURVE SMOOTH",
"730 1136 OFFCURVE",
"603 1043 OFFCURVE",
"516 907 CURVE"
);
}
);
width = 1261;
}
);
leftKerningGroup = n;
rightKerningGroup = n;
unicode = 006E;
},
{
glyphname = eng;
lastChange = "2019-04-05 20:55:20 +0000";
layers = (
{
layerId = "0C3FD5EE-D923-4A4A-8FDE-164881635915";
paths = (
{
closed = 1;
nodes = (
"425 1101 LINE",
"388 1121 LINE",
"178 1078 LINE",
"164 1007 LINE",
"261 961 LINE",
"133 0 LINE",
"287 0 LINE",
"383 723 LINE",
"486 878 OFFCURVE",
"649 1008 OFFCURVE",
"766 1008 CURVE SMOOTH",
"865 1008 OFFCURVE",
"903 961 OFFCURVE",
"900 832 CURVE",
"896 582 OFFCURVE",
"820 100 OFFCURVE",
"809 47 CURVE SMOOTH",
"765 -189 OFFCURVE",
"694 -419 OFFCURVE",
"495 -419 CURVE SMOOTH",
"474 -419 OFFCURVE",
"434 -415 OFFCURVE",
"410 -403 CURVE",
"383 -470 LINE",
"405 -494 OFFCURVE",
"460 -506 OFFCURVE",
"521 -506 CURVE SMOOTH",
"744 -506 OFFCURVE",
"887 -344 OFFCURVE",
"956 0 CURVE",
"1007 255 OFFCURVE",
"1048 589 OFFCURVE",
"1059 840 CURVE",
"1066 1057 OFFCURVE",
"976 1134 OFFCURVE",
"835 1134 CURVE SMOOTH",
"674 1134 OFFCURVE",
"507 1007 OFFCURVE",
"401 865 CURVE"
);
}
);
width = 1230;
},
{
layerId = "27298932-82AF-4578-9425-6304FDB19058";
paths = (
{
closed = 1;
nodes = (
"532 1112 LINE",
"483 1136 LINE",
"122 1084 LINE",
"106 998 LINE",
"210 941 LINE",
"84 0 LINE",
"394 0 LINE",
"490 703 LINE",
"571 870 OFFCURVE",
"669 944 OFFCURVE",
"733 944 CURVE SMOOTH",
"794 944 OFFCURVE",
"821 892 OFFCURVE",
"811 807 CURVE SMOOTH",
"770 466 OFFCURVE",
"752 191 OFFCURVE",
"725 1 CURVE SMOOTH",
"690 -238 OFFCURVE",
"636 -368 OFFCURVE",
"484 -368 CURVE SMOOTH",
"472 -368 OFFCURVE",
"428 -364 OFFCURVE",
"412 -356 CURVE",
"374 -472 LINE",
"396 -494 OFFCURVE",
"468 -508 OFFCURVE",
"539 -508 CURVE SMOOTH",
"829 -508 OFFCURVE",
"960 -410 OFFCURVE",
"1043 0 CURVE SMOOTH",
"1084 202 OFFCURVE",
"1112 476 OFFCURVE",
"1143 840 CURVE SMOOTH",
"1161 1070 OFFCURVE",
"1030 1134 OFFCURVE",
"884 1134 CURVE SMOOTH",
"709 1134 OFFCURVE",
"591 1025 OFFCURVE",
"516 907 CURVE"
);
}
);
width = 1263;
}
);
leftKerningGroup = n;
leftMetricsKey = n;
rightKerningGroup = n;
rightMetricsKey = j;
unicode = 014B;
},
{
glyphname = o;
lastChange = "2019-04-05 05:20:06 +0000";
layers = (
{
anchors = (
{
name = bottom;
position = "{476, -2}";
},
{
name = center;
position = "{558, 555}";
},
{
name = ogonek;
position = "{580, 20}";
},
{
name = top;
position = "{632, 1111}";
},
{
name = topright;
position = "{832, 1113}";
}
);
layerId = "0C3FD5EE-D923-4A4A-8FDE-164881635915";
paths = (
{
closed = 1;
nodes = (
"305 1136 OFFCURVE",
"78 786 OFFCURVE",
"80 428 CURVE SMOOTH",
"85 143 OFFCURVE",
"223 -20 OFFCURVE",
"472 -20 CURVE SMOOTH",
"805 -20 OFFCURVE",
"1033 334 OFFCURVE",
"1028 686 CURVE SMOOTH",
"1024 971 OFFCURVE",
"887 1136 OFFCURVE",
"639 1136 CURVE SMOOTH"
);
},
{
closed = 1;
nodes = (
"777 1038 OFFCURVE",
"860 907 OFFCURVE",
"862 685 CURVE SMOOTH",
"867 421 OFFCURVE",
"743 77 OFFCURVE",
"501 77 CURVE SMOOTH",
"337 77 OFFCURVE",
"248 205 OFFCURVE",
"246 429 CURVE SMOOTH",
"242 697 OFFCURVE",
"364 1038 OFFCURVE",
"612 1038 CURVE SMOOTH"
);
}
);
width = 1107;
},
{
anchors = (
{
name = bottom;
position = "{507, -27}";
},
{
name = center;
position = "{589, 564}";
},
{
name = ogonek;
position = "{644, 20}";
},
{
name = top;
position = "{671, 1129}";
},
{
name = topright;
position = "{890, 1097}";
}
);
layerId = "27298932-82AF-4578-9425-6304FDB19058";
paths = (
{
closed = 1;
nodes = (
"287 1138 OFFCURVE",
"41 819 OFFCURVE",
"53 424 CURVE SMOOTH",
"65 132 OFFCURVE",
"212 -28 OFFCURVE",
"497 -28 CURVE SMOOTH",
"889 -28 OFFCURVE",
"1137 297 OFFCURVE",
"1125 690 CURVE SMOOTH",
"1115 982 OFFCURVE",
"962 1138 OFFCURVE",
"679 1138 CURVE SMOOTH"
);
},
{
closed = 1;
nodes = (
"726 1001 OFFCURVE",
"769 925 OFFCURVE",
"775 694 CURVE SMOOTH",
"783 432 OFFCURVE",
"725 97 OFFCURVE",
"543 97 CURVE SMOOTH",
"446 97 OFFCURVE",
"407 189 OFFCURVE",
"399 420 CURVE SMOOTH",
"391 675 OFFCURVE",
"461 1001 OFFCURVE",
"643 1001 CURVE SMOOTH"
);
}
);
width = 1178;
}
);
leftKerningGroup = o;
rightKerningGroup = o;
unicode = 006F;
},
{
glyphname = ohorn;
lastChange = "2019-04-05 05:20:06 +0000";
layers = (
{
anchors = (
{
name = bottom;
position = "{474, 0}";
},
{
name = top;
position = "{642, 1111}";
}
);
layerId = "0C3FD5EE-D923-4A4A-8FDE-164881635915";
paths = (
{
closed = 1;
nodes = (
"812 -20 OFFCURVE",
"1039 334 OFFCURVE",
"1035 686 CURVE SMOOTH",
"1033 825 OFFCURVE",
"999 936 OFFCURVE",
"936 1012 CURVE",
"1081 1047 OFFCURVE",
"1191 1120 OFFCURVE",
"1211 1256 CURVE SMOOTH",
"1213 1270 OFFCURVE",
"1215 1286 OFFCURVE",
"1215 1302 CURVE",
"1054 1302 LINE",
"1054 1279 LINE SMOOTH",
"1054 1166 OFFCURVE",
"949 1109 OFFCURVE",
"813 1105 CURVE",
"764 1125 OFFCURVE",
"708 1136 OFFCURVE",
"645 1136 CURVE SMOOTH",
"311 1136 OFFCURVE",
"84 786 OFFCURVE",
"87 428 CURVE SMOOTH",
"91 143 OFFCURVE",
"230 -20 OFFCURVE",
"478 -20 CURVE SMOOTH"
);
},
{
closed = 1;
nodes = (
"248 697 OFFCURVE",
"371 1038 OFFCURVE",
"618 1038 CURVE SMOOTH",
"783 1038 OFFCURVE",
"867 907 OFFCURVE",
"869 685 CURVE SMOOTH",
"873 421 OFFCURVE",
"749 77 OFFCURVE",
"507 77 CURVE SMOOTH",
"344 77 OFFCURVE",
"255 205 OFFCURVE",
"252 429 CURVE SMOOTH"
);
}
);
width = 1120;
},
{
anchors = (
{
name = bottom;
position = "{511, 0}";
},
{
name = top;
position = "{700, 1129}";
}
);
layerId = "27298932-82AF-4578-9425-6304FDB19058";
paths = (
{
closed = 1;
nodes = (
"903 -28 OFFCURVE",
"1150 297 OFFCURVE",
"1139 690 CURVE SMOOTH",
"1134 817 OFFCURVE",
"1103 918 OFFCURVE",
"1045 992 CURVE",
"1173 1016 OFFCURVE",
"1269 1066 OFFCURVE",
"1291 1223 CURVE SMOOTH",
"1293 1237 OFFCURVE",
"1295 1282 OFFCURVE",
"1297 1298 CURVE",
"1052 1298 LINE",
"1052 1264 LINE SMOOTH",
"1052 1189 OFFCURVE",
"1027 1125 OFFCURVE",
"866 1114 CURVE",
"816 1130 OFFCURVE",
"757 1138 OFFCURVE",
"692 1138 CURVE SMOOTH",
"300 1138 OFFCURVE",
"55 819 OFFCURVE",
"67 424 CURVE SMOOTH",
"78 132 OFFCURVE",
"226 -28 OFFCURVE",
"511 -28 CURVE SMOOTH"
);
},
{
closed = 1;
nodes = (
"405 675 OFFCURVE",
"475 1001 OFFCURVE",
"657 1001 CURVE SMOOTH",
"739 1001 OFFCURVE",
"783 925 OFFCURVE",
"789 694 CURVE SMOOTH",
"796 432 OFFCURVE",
"738 97 OFFCURVE",
"556 97 CURVE SMOOTH",
"460 97 OFFCURVE",
"421 189 OFFCURVE",
"413 420 CURVE SMOOTH"
);
}
);
width = 1205;
}
);
leftKerningGroup = o;
rightKerningGroup = o;
unicode = 01A1;
},
{
glyphname = oslash;
lastChange = "2019-04-05 05:20:06 +0000";
layers = (
{
anchors = (
{
name = top;
position = "{640, 1110}";
}
);
layerId = "0C3FD5EE-D923-4A4A-8FDE-164881635915";
paths = (
{
closed = 1;
nodes = (
"985 1222 LINE",
"916 1263 LINE",
"816 1102 LINE",
"766 1126 OFFCURVE",
"707 1138 OFFCURVE",
"640 1138 CURVE SMOOTH",
"306 1138 OFFCURVE",
"79 788 OFFCURVE",
"82 430 CURVE SMOOTH",
"84 274 OFFCURVE",
"128 152 OFFCURVE",
"209 76 CURVE",
"102 -91 LINE",
"172 -130 LINE",
"274 27 LINE",
"330 -2 OFFCURVE",
"397 -18 OFFCURVE",
"473 -18 CURVE SMOOTH",
"807 -18 OFFCURVE",
"1034 336 OFFCURVE",
"1030 688 CURVE",
"1028 858 OFFCURVE",
"978 986 OFFCURVE",
"885 1060 CURVE"
);
},
{
closed = 1;
nodes = (
"299 203 LINE",
"266 258 OFFCURVE",
"250 336 OFFCURVE",
"248 431 CURVE SMOOTH",
"243 699 OFFCURVE",
"366 1040 OFFCURVE",
"614 1040 CURVE SMOOTH",
"669 1040 OFFCURVE",
"716 1023 OFFCURVE",
"753 993 CURVE"
);
},
{
closed = 1;
nodes = (
"800 937 LINE",
"841 878 OFFCURVE",
"862 792 OFFCURVE",
"864 687 CURVE SMOOTH",
"868 423 OFFCURVE",
"744 79 OFFCURVE",
"502 79 CURVE SMOOTH",
"435 79 OFFCURVE",
"382 100 OFFCURVE",
"341 141 CURVE"
);
}
);
width = 1119;
},
{
anchors = (
{
name = top;
position = "{669, 1110}";
}
);
layerId = "27298932-82AF-4578-9425-6304FDB19058";
paths = (
{
closed = 1;
nodes = (
"1091 1224 LINE",
"1003 1272 LINE",
"884 1102 LINE",
"824 1126 OFFCURVE",
"754 1140 OFFCURVE",
"673 1140 CURVE SMOOTH",
"281 1140 OFFCURVE",
"37 821 OFFCURVE",
"49 426 CURVE",
"55 268 OFFCURVE",
"101 148 OFFCURVE",
"187 72 CURVE",
"79 -82 LINE",
"164 -128 LINE",
"268 18 LINE",
"332 -10 OFFCURVE",
"406 -26 OFFCURVE",
"493 -26 CURVE SMOOTH",
"885 -26 OFFCURVE",
"1131 299 OFFCURVE",
"1119 692 CURVE SMOOTH",
"1115 856 OFFCURVE",
"1063 978 OFFCURVE",
"969 1052 CURVE"
);
},
{
closed = 1;
nodes = (
"399 367 LINE",
"396 384 OFFCURVE",
"395 402 OFFCURVE",
"395 422 CURVE",
"387 677 OFFCURVE",
"455 1001 OFFCURVE",
"639 1001 CURVE SMOOTH",
"684 1001 OFFCURVE",
"718 977 OFFCURVE",
"740 916 CURVE"
);
},
{
closed = 1;
nodes = (
"765 771 LINE",
"768 750 OFFCURVE",
"769 724 OFFCURVE",
"771 696 CURVE SMOOTH",
"777 434 OFFCURVE",
"719 99 OFFCURVE",
"539 99 CURVE SMOOTH",
"479 99 OFFCURVE",
"440 135 OFFCURVE",
"418 218 CURVE"
);
}
);
width = 1168;
}
);
leftKerningGroup = o;
rightKerningGroup = o;
unicode = 00F8;
},
{
glyphname = oe;
lastChange = "2019-04-05 05:20:06 +0000";
layers = (
{
layerId = "0C3FD5EE-D923-4A4A-8FDE-164881635915";
paths = (
{
closed = 1;
nodes = (
"1572 252 LINE",
"1461 142 OFFCURVE",
"1332 94 OFFCURVE",
"1221 94 CURVE SMOOTH",
"1023 94 OFFCURVE",
"966 302 OFFCURVE",
"979 455 CURVE",
"1178 459 OFFCURVE",
"1665 583 OFFCURVE",
"1664 892 CURVE SMOOTH",
"1664 1030 OFFCURVE",
"1575 1134 OFFCURVE",
"1387 1134 CURVE SMOOTH",
"1226 1134 OFFCURVE",
"1085 1050 OFFCURVE",
"985 921 CURVE",
"926 1058 OFFCURVE",
"809 1134 OFFCURVE",
"640 1134 CURVE SMOOTH",
"308 1134 OFFCURVE",
"78 786 OFFCURVE",
"83 428 CURVE SMOOTH",
"89 144 OFFCURVE",
"223 -20 OFFCURVE",
"473 -20 CURVE SMOOTH",
"630 -20 OFFCURVE",
"763 60 OFFCURVE",
"861 181 CURVE",
"918 66 OFFCURVE",
"1026 -20 OFFCURVE",
"1200 -20 CURVE SMOOTH",
"1394 -20 OFFCURVE",
"1551 105 OFFCURVE",
"1607 184 CURVE"
);
},
{
closed = 1;
nodes = (
"798 1038 OFFCURVE",
"848 838 OFFCURVE",
"856 674 CURVE",
"831 602 OFFCURVE",
"804 444 OFFCURVE",
"813 396 CURVE",
"757 223 OFFCURVE",
"654 78 OFFCURVE",
"500 78 CURVE SMOOTH",
"338 78 OFFCURVE",
"252 208 OFFCURVE",
"248 429 CURVE SMOOTH",
"244 694 OFFCURVE",
"368 1038 OFFCURVE",
"613 1038 CURVE SMOOTH"
);
},
{
closed = 1;
nodes = (
"1448 1041 OFFCURVE",
"1502 986 OFFCURVE",
"1502 877 CURVE SMOOTH",
"1503 670 OFFCURVE",
"1198 551 OFFCURVE",
"983 545 CURVE",
"1004 752 OFFCURVE",
"1135 1041 OFFCURVE",
"1351 1041 CURVE SMOOTH"
);
}
);
width = 1753;
},
{
layerId = "27298932-82AF-4578-9425-6304FDB19058";
paths = (
{
closed = 1;
nodes = (
"1564 306 LINE",
"1510 237 OFFCURVE",
"1425 154 OFFCURVE",
"1270 154 CURVE SMOOTH",
"1156 154 OFFCURVE",
"1086 244 OFFCURVE",
"1086 444 CURVE",
"1331 450 OFFCURVE",
"1705 570 OFFCURVE",
"1693 892 CURVE SMOOTH",
"1689 1030 OFFCURVE",
"1595 1136 OFFCURVE",
"1374 1136 CURVE SMOOTH",
"1230 1136 OFFCURVE",
"1100 1087 OFFCURVE",
"996 1001 CURVE",
"926 1089 OFFCURVE",
"822 1136 OFFCURVE",
"673 1136 CURVE SMOOTH",
"283 1136 OFFCURVE",
"47 811 OFFCURVE",
"61 428 CURVE SMOOTH",
"71 144 OFFCURVE",
"210 -20 OFFCURVE",
"488 -20 CURVE SMOOTH",
"628 -20 OFFCURVE",
"754 25 OFFCURVE",
"852 101 CURVE",
"920 27 OFFCURVE",
"1022 -20 OFFCURVE",
"1167 -20 CURVE SMOOTH",
"1417 -20 OFFCURVE",
"1571 121 OFFCURVE",
"1625 207 CURVE"
);
},
{
closed = 1;
nodes = (
"738 1001 OFFCURVE",
"761 838 OFFCURVE",
"757 587 CURVE",
"747 534 OFFCURVE",
"740 477 OFFCURVE",
"742 419 CURVE",
"713 239 OFFCURVE",
"648 103 OFFCURVE",
"531 103 CURVE SMOOTH",
"437 103 OFFCURVE",
"411 212 OFFCURVE",
"403 420 CURVE SMOOTH",
"395 669 OFFCURVE",
"455 1001 OFFCURVE",
"633 1001 CURVE SMOOTH"
);
},
{
closed = 1;
nodes = (
"1355 1001 OFFCURVE",
"1382 955 OFFCURVE",
"1384 866 CURVE SMOOTH",
"1392 672 OFFCURVE",
"1204 567 OFFCURVE",
"1087 561 CURVE",
"1097 744 OFFCURVE",
"1150 1001 OFFCURVE",
"1302 1001 CURVE SMOOTH"
);
}
);
width = 1735;
}
);
leftKerningGroup = o;
rightKerningGroup = e;
unicode = 0153;
},
{
glyphname = p;
lastChange = "2019-04-05 05:37:00 +0000";
layers = (
{
anchors = (
{
name = top;
position = "{659, 1110}";
}
);
layerId = "0C3FD5EE-D923-4A4A-8FDE-164881635915";
paths = (
{
closed = 1;
nodes = (
"398 1116 LINE",
"361 1136 LINE",
"141 1093 LINE",
"127 1030 LINE",
"233 991 LINE",
"29 -508 LINE",
"181 -508 LINE",
"251 3 LINE",
"302 -8 OFFCURVE",
"360 -20 OFFCURVE",
"409 -20 CURVE SMOOTH",
"805 -20 OFFCURVE",
"1031 402 OFFCURVE",
"1031 712 CURVE SMOOTH",
"1031 959 OFFCURVE",
"923 1136 OFFCURVE",
"697 1136 CURVE SMOOTH",
"554 1136 OFFCURVE",
"442 1045 OFFCURVE",
"378 957 CURVE"
);
},
{
closed = 1;
nodes = (
"366 829 LINE",
"419 911 OFFCURVE",
"534 1020 OFFCURVE",
"668 1020 CURVE SMOOTH",
"789 1020 OFFCURVE",
"867 908 OFFCURVE",
"867 703 CURVE SMOOTH",
"867 437 OFFCURVE",
"719 78 OFFCURVE",
"433 78 CURVE SMOOTH",
"372 78 OFFCURVE",
"312 90 OFFCURVE",
"267 124 CURVE"
);
}
);
width = 1113;
},
{
anchors = (
{
name = top;
position = "{739, 1110}";
}
);
layerId = "27298932-82AF-4578-9425-6304FDB19058";
paths = (
{
closed = 1;
nodes = (
"543 1112 LINE",
"494 1136 LINE",
"121 1084 LINE",
"105 999 LINE",
"211 942 LINE",
"14 -508 LINE",
"319 -508 LINE",
"389 -10 LINE",
"422 -16 OFFCURVE",
"457 -20 OFFCURVE",
"489 -20 CURVE SMOOTH",
"887 -20 OFFCURVE",
"1146 305 OFFCURVE",
"1146 712 CURVE SMOOTH",
"1146 981 OFFCURVE",
"1032 1136 OFFCURVE",
"806 1136 CURVE SMOOTH",
"684 1136 OFFCURVE",
"595 1085 OFFCURVE",
"533 1028 CURVE"
);
},
{
closed = 1;
nodes = (
"513 869 LINE",
"552 920 OFFCURVE",
"602 966 OFFCURVE",
"672 966 CURVE SMOOTH",
"771 966 OFFCURVE",
"814 848 OFFCURVE",
"814 712 CURVE SMOOTH",
"814 417 OFFCURVE",
"735 115 OFFCURVE",
"515 115 CURVE SMOOTH",
"471 115 OFFCURVE",
"438 119 OFFCURVE",
"409 130 CURVE"
);
}
);
width = 1209;
}
);
leftKerningGroup = p;
rightKerningGroup = b;
rightMetricsKey = b;
unicode = 0070;
},
{
glyphname = thorn;
lastChange = "2019-04-05 05:20:06 +0000";
layers = (
{
layerId = "0C3FD5EE-D923-4A4A-8FDE-164881635915";
paths = (
{
closed = 1;
nodes = (
"460 1610 LINE",
"419 1634 LINE",
"210 1602 LINE",
"194 1535 LINE",
"288 1500 LINE",
"87 -5 LINE",
"17 -508 LINE",
"167 -508 LINE",
"224 -108 LINE",
"236 7 LINE",
"287 -7 OFFCURVE",
"351 -20 OFFCURVE",
"407 -20 CURVE SMOOTH",
"802 -20 OFFCURVE",
"1028 405 OFFCURVE",
"1028 712 CURVE SMOOTH",
"1028 959 OFFCURVE",
"922 1136 OFFCURVE",
"696 1136 CURVE SMOOTH",
"551 1136 OFFCURVE",
"433 1043 OFFCURVE",
"371 955 CURVE"
);
},
{
closed = 1;
nodes = (
"351 818 LINE",
"400 900 OFFCURVE",
"524 1020 OFFCURVE",
"665 1020 CURVE SMOOTH",
"793 1020 OFFCURVE",
"865 901 OFFCURVE",
"865 703 CURVE SMOOTH",
"865 448 OFFCURVE",
"725 78 OFFCURVE",
"429 78 CURVE SMOOTH",
"367 78 OFFCURVE",
"303 90 OFFCURVE",
"258 126 CURVE"
);
}
);
width = 1110;
},
{
layerId = "27298932-82AF-4578-9425-6304FDB19058";
paths = (
{
closed = 1;
nodes = (
"547 1606 LINE",
"496 1634 LINE",
"146 1596 LINE",
"126 1515 LINE",
"228 1473 LINE",
"43 -20 LINE",
"-25 -508 LINE",
"276 -508 LINE",
"323 -137 LINE",
"331 -11 LINE",
"362 -16 OFFCURVE",
"393 -20 OFFCURVE",
"422 -20 CURVE SMOOTH",
"833 -20 OFFCURVE",
"1086 305 OFFCURVE",
"1086 712 CURVE SMOOTH",
"1086 981 OFFCURVE",
"976 1136 OFFCURVE",
"750 1136 CURVE SMOOTH",
"631 1136 OFFCURVE",
"539 1087 OFFCURVE",
"475 1032 CURVE"
);
},
{
closed = 1;
nodes = (
"455 876 LINE",
"495 925 OFFCURVE",
"549 966 OFFCURVE",
"616 966 CURVE SMOOTH",
"715 966 OFFCURVE",
"759 848 OFFCURVE",
"759 712 CURVE SMOOTH",
"759 417 OFFCURVE",
"674 115 OFFCURVE",
"447 115 CURVE SMOOTH",
"413 115 OFFCURVE",
"383 117 OFFCURVE",
"357 126 CURVE"
);
}
);
width = 1149;
}
);
leftKerningGroup = b;
leftMetricsKey = b;
rightKerningGroup = b;
rightMetricsKey = b;
unicode = 00FE;
},
{
glyphname = q;
lastChange = "2019-04-05 05:20:06 +0000";
layers = (
{
anchors = (
{
name = cr;
position = "{461, 1580}";
},
{
name = top;
position = "{668, 1226}";
}
);
layerId = "0C3FD5EE-D923-4A4A-8FDE-164881635915";
paths = (
{
closed = 1;
nodes = (
"1007 1113 LINE",
"913 1094 LINE",
"859 1116 OFFCURVE",
"775 1136 OFFCURVE",
"708 1136 CURVE SMOOTH",
"299 1136 OFFCURVE",
"80 712 OFFCURVE",
"80 401 CURVE SMOOTH",
"80 159 OFFCURVE",
"178 -20 OFFCURVE",
"405 -20 CURVE SMOOTH",
"546 -20 OFFCURVE",
"643 54 OFFCURVE",
"722 153 CURVE",
"649 -391 LINE SMOOTH",
"637 -475 OFFCURVE",
"675 -514 OFFCURVE",
"744 -514 CURVE SMOOTH",
"877 -514 OFFCURVE",
"951 -407 OFFCURVE",
"965 -385 CURVE",
"939 -339 LINE",
"901 -379 OFFCURVE",
"860 -404 OFFCURVE",
"838 -404 CURVE SMOOTH",
"811 -404 OFFCURVE",
"801 -389 OFFCURVE",
"805 -353 CURVE SMOOTH"
);
},
{
closed = 1;
nodes = (
"740 287 LINE",
"670 192 OFFCURVE",
"577 95 OFFCURVE",
"432 95 CURVE SMOOTH",
"319 95 OFFCURVE",
"243 206 OFFCURVE",
"243 413 CURVE SMOOTH",
"243 677 OFFCURVE",
"386 1038 OFFCURVE",
"684 1038 CURVE SMOOTH",
"739 1038 OFFCURVE",
"793 1026 OFFCURVE",
"836 995 CURVE"
);
}
);
width = 1111;
},
{
anchors = (
{
name = cr;
position = "{483, 1580}";
},
{
name = top;
position = "{703, 1226}";
}
);
layerId = "27298932-82AF-4578-9425-6304FDB19058";
paths = (
{
closed = 1;
nodes = (
"1111 1135 LINE",
"955 1088 LINE",
"899 1110 OFFCURVE",
"793 1136 OFFCURVE",
"708 1136 CURVE SMOOTH",
"257 1136 OFFCURVE",
"49 770 OFFCURVE",
"49 392 CURVE SMOOTH",
"49 168 OFFCURVE",
"141 -22 OFFCURVE",
"385 -22 CURVE SMOOTH",
"544 -22 OFFCURVE",
"599 29 OFFCURVE",
"660 84 CURVE",
"602 -340 LINE SMOOTH",
"591 -422 OFFCURVE",
"629 -506 OFFCURVE",
"781 -506 CURVE SMOOTH",
"955 -506 OFFCURVE",
"1051 -394 OFFCURVE",
"1072 -365 CURVE",
"1045 -293 LINE",
"1003 -328 OFFCURVE",
"978 -340 OFFCURVE",
"956 -340 CURVE SMOOTH",
"924 -340 OFFCURVE",
"914 -305 OFFCURVE",
"918 -271 CURVE SMOOTH"
);
},
{
closed = 1;
nodes = (
"682 247 LINE",
"645 196 OFFCURVE",
"586 148 OFFCURVE",
"519 148 CURVE SMOOTH",
"428 148 OFFCURVE",
"376 243 OFFCURVE",
"376 404 CURVE SMOOTH",
"376 664 OFFCURVE",
"446 1001 OFFCURVE",
"686 1001 CURVE SMOOTH",
"719 1001 OFFCURVE",
"751 997 OFFCURVE",
"782 984 CURVE"
);
}
);
width = 1151;
}
);
leftKerningGroup = d;
rightKerningGroup = q;
unicode = 0071;
},
{
glyphname = r;
lastChange = "2019-04-05 05:20:06 +0000";
layers = (
{
anchors = (
{
name = bottom;
position = "{211, 0}";
},
{
name = top;
position = "{510, 1110}";
}
);
layerId = "0C3FD5EE-D923-4A4A-8FDE-164881635915";
paths = (
{
closed = 1;
nodes = (
"405 937 LINE",
"419 1113 LINE",
"382 1132 LINE",
"172 1090 LINE",
"158 1019 LINE",
"259 972 LINE",
"133 0 LINE",
"289 0 LINE",
"376 698 LINE",
"447 877 OFFCURVE",
"593 964 OFFCURVE",
"707 964 CURVE SMOOTH",
"752 964 OFFCURVE",
"782 959 OFFCURVE",
"800 949 CURVE",
"836 1122 LINE",
"822 1132 OFFCURVE",
"792 1134 OFFCURVE",
"772 1134 CURVE SMOOTH",
"587 1134 OFFCURVE",
"439 960 OFFCURVE",
"393 854 CURVE"
);
}
);
width = 822;
},
{
anchors = (
{
name = bottom;
position = "{226, 0}";
},
{
name = top;
position = "{512, 1110}";
}
);
layerId = "27298932-82AF-4578-9425-6304FDB19058";
paths = (
{
closed = 1;
nodes = (
"480 919 LINE",
"490 1102 LINE",
"438 1136 LINE",
"118 1084 LINE",
"102 999 LINE",
"206 941 LINE",
"80 0 LINE",
"389 0 LINE",
"492 758 LINE",
"531 793 OFFCURVE",
"609 807 OFFCURVE",
"689 807 CURVE SMOOTH",
"752 807 OFFCURVE",
"790 784 OFFCURVE",
"798 774 CURVE",
"865 1116 LINE",
"855 1124 OFFCURVE",
"831 1136 OFFCURVE",
"797 1136 CURVE SMOOTH",
"638 1136 OFFCURVE",
"519 999 OFFCURVE",
"475 846 CURVE"
);
}
);
width = 828;
}
);
leftKerningGroup = n;
rightKerningGroup = r;
unicode = 0072;
},
{
glyphname = s;
lastChange = "2019-04-05 05:20:06 +0000";
layers = (
{
anchors = (
{
name = bottom;
position = "{332, 0}";
},
{
name = top;
position = "{516, 1110}";
}
);
layerId = "0C3FD5EE-D923-4A4A-8FDE-164881635915";
paths = (
{
closed = 1;
nodes = (
"783 1096 LINE",
"749 1112 OFFCURVE",
"637 1136 OFFCURVE",
"533 1136 CURVE SMOOTH",
"329 1136 OFFCURVE",
"156 1019 OFFCURVE",
"156 828 CURVE SMOOTH",
"156 668 OFFCURVE",
"293 555 OFFCURVE",
"369 504 CURVE SMOOTH",
"452 445 OFFCURVE",
"563 372 OFFCURVE",
"563 256 CURVE SMOOTH",
"563 121 OFFCURVE",
"444 89 OFFCURVE",
"334 89 CURVE SMOOTH",
"213 89 OFFCURVE",
"107 134 OFFCURVE",
"65 165 CURVE",
"38 42 LINE",
"72 10 OFFCURVE",
"207 -20 OFFCURVE",
"327 -20 CURVE SMOOTH",
"534 -20 OFFCURVE",
"714 87 OFFCURVE",
"714 287 CURVE SMOOTH",
"714 453 OFFCURVE",
"574 550 OFFCURVE",
"480 623 CURVE SMOOTH",
"396 684 OFFCURVE",
"299 762 OFFCURVE",
"306 876 CURVE SMOOTH",
"316 982 OFFCURVE",
"403 1032 OFFCURVE",
"526 1032 CURVE SMOOTH",
"649 1032 OFFCURVE",
"740 979 OFFCURVE",
"753 960 CURVE"
);
}
);
width = 849;
},
{
anchors = (
{
name = bottom;
position = "{332, 0}";
},
{
name = top;
position = "{524, 1110}";
}
);
layerId = "27298932-82AF-4578-9425-6304FDB19058";
paths = (
{
closed = 1;
nodes = (
"803 1100 LINE",
"771 1114 OFFCURVE",
"657 1136 OFFCURVE",
"549 1136 CURVE SMOOTH",
"276 1136 OFFCURVE",
"94 999 OFFCURVE",
"94 801 CURVE SMOOTH",
"94 629 OFFCURVE",
"193 535 OFFCURVE",
"285 471 CURVE SMOOTH",
"394 396 OFFCURVE",
"463 335 OFFCURVE",
"463 256 CURVE SMOOTH",
"463 165 OFFCURVE",
"378 129 OFFCURVE",
"307 129 CURVE SMOOTH",
"193 129 OFFCURVE",
"89 202 OFFCURVE",
"47 242 CURVE",
"-1 48 LINE",
"37 18 OFFCURVE",
"187 -20 OFFCURVE",
"312 -20 CURVE SMOOTH",
"557 -20 OFFCURVE",
"778 96 OFFCURVE",
"778 338 CURVE SMOOTH",
"778 502 OFFCURVE",
"690 583 OFFCURVE",
"579 663 CURVE SMOOTH",
"462 746 OFFCURVE",
"405 801 OFFCURVE",
"405 880 CURVE SMOOTH",
"405 959 OFFCURVE",
"478 997 OFFCURVE",
"563 997 CURVE SMOOTH",
"667 997 OFFCURVE",
"738 928 OFFCURVE",
"762 900 CURVE"
);
}
);
width = 867;
}
);
leftKerningGroup = s;
rightKerningGroup = s;
unicode = 0073;
},
{
glyphname = germandbls;
lastChange = "2019-04-05 05:20:06 +0000";
layers = (
{
layerId = "0C3FD5EE-D923-4A4A-8FDE-164881635915";
paths = (
{
closed = 1;
nodes = (
"79 0 LINE",
"233 0 LINE",
"362 948 LINE SMOOTH",
"423 1400 OFFCURVE",
"549 1468 OFFCURVE",
"720 1468 CURVE SMOOTH",
"854 1468 OFFCURVE",
"907 1365 OFFCURVE",
"907 1262 CURVE SMOOTH",
"907 1142 OFFCURVE",
"842 1054 OFFCURVE",
"747 970 CURVE SMOOTH",
"696 916 OFFCURVE",
"656 876 OFFCURVE",
"656 791 CURVE SMOOTH",
"656 711 OFFCURVE",
"742 601 OFFCURVE",
"798 529 CURVE SMOOTH",
"839 467 OFFCURVE",
"884 380 OFFCURVE",
"884 291 CURVE SMOOTH",
"884 137 OFFCURVE",
"789 90 OFFCURVE",
"659 88 CURVE SMOOTH",
"570 88 OFFCURVE",
"462 150 OFFCURVE",
"431 188 CURVE",
"412 39 LINE",
"453 14 OFFCURVE",
"546 -17 OFFCURVE",
"640 -17 CURVE SMOOTH",
"854 -17 OFFCURVE",
"1048 131 OFFCURVE",
"1048 317 CURVE SMOOTH",
"1048 446 OFFCURVE",
"984 536 OFFCURVE",
"931 614 CURVE SMOOTH",
"850 717 OFFCURVE",
"797 780 OFFCURVE",
"797 830 CURVE SMOOTH",
"797 965 OFFCURVE",
"1065 1055 OFFCURVE",
"1065 1282 CURVE SMOOTH",
"1065 1461 OFFCURVE",
"932 1548 OFFCURVE",
"756 1548 CURVE SMOOTH",
"542 1548 OFFCURVE",
"282 1490 OFFCURVE",
"204 906 CURVE SMOOTH"
);
}
);
width = 1142;
},
{
layerId = "27298932-82AF-4578-9425-6304FDB19058";
paths = (
{
closed = 1;
nodes = (
"26 0 LINE",
"346 0 LINE",
"451 849 LINE SMOOTH",
"498 1276 OFFCURVE",
"591 1431 OFFCURVE",
"728 1431 CURVE SMOOTH",
"819 1431 OFFCURVE",
"863 1352 OFFCURVE",
"863 1256 CURVE SMOOTH",
"863 1146 OFFCURVE",
"807 1056 OFFCURVE",
"727 976 CURVE SMOOTH",
"665 912 OFFCURVE",
"621 868 OFFCURVE",
"621 775 CURVE SMOOTH",
"621 691 OFFCURVE",
"680 581 OFFCURVE",
"730 511 CURVE SMOOTH",
"770 449 OFFCURVE",
"820 357 OFFCURVE",
"820 278 CURVE SMOOTH",
"820 128 OFFCURVE",
"743 119 OFFCURVE",
"675 117 CURVE SMOOTH",
"605 115 OFFCURVE",
"501 173 OFFCURVE",
"475 211 CURVE",
"449 30 LINE",
"495 6 OFFCURVE",
"573 -32 OFFCURVE",
"729 -32 CURVE SMOOTH",
"978 -32 OFFCURVE",
"1145 113 OFFCURVE",
"1145 333 CURVE SMOOTH",
"1145 479 OFFCURVE",
"1046 569 OFFCURVE",
"980 649 CURVE SMOOTH",
"914 737 OFFCURVE",
"881 778 OFFCURVE",
"881 822 CURVE SMOOTH",
"881 981 OFFCURVE",
"1180 949 OFFCURVE",
"1180 1253 CURVE SMOOTH",
"1180 1443 OFFCURVE",
"990 1548 OFFCURVE",
"785 1548 CURVE SMOOTH",
"538 1548 OFFCURVE",
"220 1492 OFFCURVE",
"136 906 CURVE SMOOTH"
);
}
);
width = 1202;
}
);
leftKerningGroup = germandbls;
rightKerningGroup = o;
unicode = 00DF;
},
{
glyphname = t;
lastChange = "2019-04-05 05:20:06 +0000";
layers = (
{
anchors = (
{
name = bottom;
position = "{250, 0}";
},
{
name = car;
position = "{478, 1110}";
},
{
name = top;
position = "{403, 1271}";
}
);
layerId = "0C3FD5EE-D923-4A4A-8FDE-164881635915";
paths = (
{
closed = 1;
nodes = (
"395 999 LINE",
"667 999 LINE",
"682 1110 LINE",
"408 1110 LINE",
"444 1382 LINE",
"365 1382 LINE",
"338 1299 OFFCURVE",
"289 1154 OFFCURVE",
"254 1108 CURVE",
"129 1069 LINE",
"113 999 LINE",
"235 999 LINE",
"132 275 LINE SMOOTH",
"125 228 OFFCURVE",
"121 179 OFFCURVE",
"121 145 CURVE SMOOTH",
"121 30 OFFCURVE",
"185 -20 OFFCURVE",
"287 -20 CURVE SMOOTH",
"440 -20 OFFCURVE",
"554 61 OFFCURVE",
"597 112 CURVE",
"573 194 LINE",
"536 163 OFFCURVE",
"460 110 OFFCURVE",
"344 110 CURVE SMOOTH",
"302 110 OFFCURVE",
"282 134 OFFCURVE",
"282 173 CURVE SMOOTH",
"282 235 OFFCURVE",
"286 271 OFFCURVE",
"296 339 CURVE SMOOTH"
);
}
);
width = 690;
},
{
anchors = (
{
name = bottom;
position = "{283, 0}";
},
{
name = car;
position = "{569, 1110}";
},
{
name = top;
position = "{480, 1289}";
}
);
layerId = "27298932-82AF-4578-9425-6304FDB19058";
paths = (
{
closed = 1;
nodes = (
"539 953 LINE",
"745 953 LINE",
"767 1110 LINE",
"561 1110 LINE",
"605 1382 LINE",
"409 1382 LINE",
"369 1286 OFFCURVE",
"309 1154 OFFCURVE",
"252 1106 CURVE",
"114 1060 LINE",
"91 953 LINE",
"226 953 LINE",
"136 384 LINE SMOOTH",
"107 195 OFFCURVE",
"110 170 OFFCURVE",
"110 156 CURVE SMOOTH",
"110 22 OFFCURVE",
"201 -20 OFFCURVE",
"298 -20 CURVE SMOOTH",
"508 -20 OFFCURVE",
"618 79 OFFCURVE",
"675 143 CURVE",
"651 221 LINE",
"602 179 OFFCURVE",
"557 164 OFFCURVE",
"505 164 CURVE SMOOTH",
"457 164 OFFCURVE",
"433 190 OFFCURVE",
"433 244 CURVE SMOOTH",
"433 277 OFFCURVE",
"439 315 OFFCURVE",
"449 379 CURVE SMOOTH"
);
}
);
width = 729;
}
);
leftKerningGroup = t;
rightKerningGroup = t;
unicode = 0074;
},
{
glyphname = tbar;
lastChange = "2019-04-05 05:20:06 +0000";
layers = (
{
layerId = "0C3FD5EE-D923-4A4A-8FDE-164881635915";
paths = (
{
closed = 1;
nodes = (
"368 619 LINE",
"650 619 LINE",
"662 723 LINE",
"383 723 LINE",
"420 999 LINE",
"693 999 LINE",
"707 1110 LINE",
"433 1110 LINE",
"469 1382 LINE",
"390 1382 LINE",
"363 1299 OFFCURVE",
"314 1154 OFFCURVE",
"279 1108 CURVE",
"155 1069 LINE",
"139 999 LINE",
"260 999 LINE",
"225 723 LINE",
"89 723 LINE",
"79 619 LINE",
"211 619 LINE",
"166 269 LINE",
"156 181 OFFCURVE",
"156 159 OFFCURVE",
"156 145 CURVE SMOOTH",
"156 30 OFFCURVE",
"220 -20 OFFCURVE",
"328 -20 CURVE SMOOTH",
"444 -20 OFFCURVE",
"583 65 OFFCURVE",
"626 116 CURVE",
"609 179 LINE",
"572 148 OFFCURVE",
"473 95 OFFCURVE",
"411 95 CURVE SMOOTH",
"337 95 OFFCURVE",
"317 119 OFFCURVE",
"317 188 CURVE SMOOTH",
"317 220 OFFCURVE",
"323 271 OFFCURVE",
"331 339 CURVE SMOOTH"
);
}
);
width = 714;
},
{
layerId = "27298932-82AF-4578-9425-6304FDB19058";
paths = (
{
closed = 1;
nodes = (
"467 606 LINE",
"675 606 LINE",
"691 734 LINE",
"485 734 LINE",
"515 953 LINE",
"739 953 LINE",
"760 1110 LINE",
"537 1110 LINE",
"571 1382 LINE",
"388 1382 LINE",
"348 1286 OFFCURVE",
"289 1154 OFFCURVE",
"232 1106 CURVE",
"111 1060 LINE",
"88 953 LINE",
"206 953 LINE",
"174 734 LINE",
"74 734 LINE",
"59 606 LINE",
"158 606 LINE",
"127 384 LINE SMOOTH",
"102 194 OFFCURVE",
"102 170 OFFCURVE",
"102 156 CURVE SMOOTH",
"102 22 OFFCURVE",
"193 -20 OFFCURVE",
"289 -20 CURVE SMOOTH",
"498 -20 OFFCURVE",
"627 80 OFFCURVE",
"684 143 CURVE",
"660 221 LINE",
"611 179 OFFCURVE",
"544 164 OFFCURVE",
"493 164 CURVE SMOOTH",
"444 164 OFFCURVE",
"421 190 OFFCURVE",
"421 244 CURVE SMOOTH",
"421 276 OFFCURVE",
"427 315 OFFCURVE",
"437 379 CURVE SMOOTH"
);
}
);
width = 708;
}
);
leftKerningGroup = t;
rightKerningGroup = t;
unicode = 0167;
},
{
glyphname = u;
lastChange = "2019-04-05 05:20:06 +0000";
layers = (
{
anchors = (
{
name = bottom;
position = "{480, 0}";
},
{
name = ogonek;
position = "{916, 20}";
},
{
name = top;
position = "{628, 1110}";
},
{
name = topright;
position = "{1124, 1110}";
}
);
layerId = "0C3FD5EE-D923-4A4A-8FDE-164881635915";
paths = (
{
closed = 1;
nodes = (
"388 1112 LINE",
"350 1132 LINE",
"136 1090 LINE",
"124 1020 LINE",
"222 972 LINE",
"168 592 LINE SMOOTH",
"152 476 OFFCURVE",
"134 338 OFFCURVE",
"134 246 CURVE SMOOTH",
"134 42 OFFCURVE",
"230 -20 OFFCURVE",
"374 -20 CURVE SMOOTH",
"534 -20 OFFCURVE",
"662 86 OFFCURVE",
"744 190 CURVE",
"746 188 LINE",
"744 162 OFFCURVE",
"738 122 OFFCURVE",
"738 114 CURVE SMOOTH",
"724 34 OFFCURVE",
"760 -18 OFFCURVE",
"832 -18 CURVE SMOOTH",
"942 -18 OFFCURVE",
"1034 84 OFFCURVE",
"1050 110 CURVE",
"1026 156 LINE",
"978 108 OFFCURVE",
"944 88 OFFCURVE",
"918 88 CURVE SMOOTH",
"898 88 OFFCURVE",
"886 110 OFFCURVE",
"892 160 CURVE SMOOTH",
"1020 1124 LINE",
"866 1124 LINE",
"758 302 LINE",
"686 200 OFFCURVE",
"552 92 OFFCURVE",
"438 92 CURVE SMOOTH",
"348 92 OFFCURVE",
"288 124 OFFCURVE",
"288 272 CURVE SMOOTH",
"288 374 OFFCURVE",
"306 468 OFFCURVE",
"320 584 CURVE"
);
}
);
width = 1154;
},
{
anchors = (
{
name = bottom;
position = "{520, 0}";
},
{
name = ogonek;
position = "{982, 20}";
},
{
name = top;
position = "{670, 1110}";
},
{
name = topright;
position = "{1250, 1128}";
}
);
layerId = "27298932-82AF-4578-9425-6304FDB19058";
paths = (
{
closed = 1;
nodes = (
"518 1112 LINE",
"468 1136 LINE",
"80 1104 LINE",
"64 1018 LINE",
"188 942 LINE",
"134 584 LINE SMOOTH",
"118 462 OFFCURVE",
"94 322 OFFCURVE",
"94 230 CURVE SMOOTH",
"98 42 OFFCURVE",
"258 -20 OFFCURVE",
"378 -20 CURVE SMOOTH",
"550 -20 OFFCURVE",
"650 66 OFFCURVE",
"716 144 CURVE",
"720 142 LINE",
"716 122 OFFCURVE",
"716 100 OFFCURVE",
"720 84 CURVE SMOOTH",
"734 20 OFFCURVE",
"788 -20 OFFCURVE",
"896 -20 CURVE SMOOTH",
"1050 -20 OFFCURVE",
"1148 88 OFFCURVE",
"1168 122 CURVE",
"1140 190 LINE",
"1090 154 OFFCURVE",
"1074 146 OFFCURVE",
"1052 146 CURVE SMOOTH",
"1022 146 OFFCURVE",
"1006 168 OFFCURVE",
"1012 220 CURVE SMOOTH",
"1138 1128 LINE",
"824 1128 LINE",
"704 244 LINE",
"656 190 OFFCURVE",
"588 142 OFFCURVE",
"510 142 CURVE SMOOTH",
"444 142 OFFCURVE",
"416 180 OFFCURVE",
"416 276 CURVE SMOOTH",
"416 334 OFFCURVE",
"436 460 OFFCURVE",
"452 576 CURVE SMOOTH"
);
}
);
width = 1228;
}
);
leftKerningGroup = u;
rightKerningGroup = u;
unicode = 0075;
},
{
glyphname = uhorn;
lastChange = "2019-04-05 05:37:06 +0000";
layers = (
{
anchors = (
{
name = bottom;
position = "{481, 0}";
},
{
name = top;
position = "{609, 1110}";
}
);
layerId = "0C3FD5EE-D923-4A4A-8FDE-164881635915";
paths = (
{
closed = 1;
nodes = (
"533 -20 OFFCURVE",
"662 87 OFFCURVE",
"744 189 CURVE",
"747 187 LINE",
"744 161 OFFCURVE",
"739 123 OFFCURVE",
"737 114 CURVE",
"725 33 OFFCURVE",
"760 -18 OFFCURVE",
"832 -18 CURVE SMOOTH",
"941 -18 OFFCURVE",
"1034 84 OFFCURVE",
"1050 111 CURVE",
"1026 156 LINE",
"978 107 OFFCURVE",
"945 88 OFFCURVE",
"917 88 CURVE SMOOTH",
"898 88 OFFCURVE",
"886 110 OFFCURVE",
"892 160 CURVE SMOOTH",
"1006 1017 LINE",
"1146 1055 OFFCURVE",
"1250 1131 OFFCURVE",
"1269 1263 CURVE SMOOTH",
"1270 1279 OFFCURVE",
"1272 1319 OFFCURVE",
"1272 1336 CURVE",
"1111 1336 LINE",
"1111 1287 LINE SMOOTH",
"1111 1203 OFFCURVE",
"1059 1151 OFFCURVE",
"985 1125 CURVE",
"866 1124 LINE",
"759 302 LINE",
"686 199 OFFCURVE",
"553 91 OFFCURVE",
"439 91 CURVE SMOOTH",
"349 91 OFFCURVE",
"289 124 OFFCURVE",
"289 272 CURVE SMOOTH",
"289 373 OFFCURVE",
"307 468 OFFCURVE",
"321 584 CURVE SMOOTH",
"389 1112 LINE",
"350 1132 LINE",
"137 1091 LINE",
"124 1020 LINE",
"222 972 LINE",
"168 592 LINE SMOOTH",
"152 475 OFFCURVE",
"134 337 OFFCURVE",
"134 247 CURVE SMOOTH",
"134 42 OFFCURVE",
"230 -20 OFFCURVE",
"374 -20 CURVE SMOOTH"
);
}
);
width = 1167;
},
{
anchors = (
{
name = bottom;
position = "{521, 0}";
},
{
name = top;
position = "{616, 1110}";
}
);
layerId = "27298932-82AF-4578-9425-6304FDB19058";
paths = (
{
closed = 1;
nodes = (
"549 -20 OFFCURVE",
"650 67 OFFCURVE",
"717 143 CURVE",
"721 141 LINE",
"717 121 OFFCURVE",
"717 101 OFFCURVE",
"720 83 CURVE SMOOTH",
"734 20 OFFCURVE",
"789 -20 OFFCURVE",
"896 -20 CURVE SMOOTH",
"1050 -20 OFFCURVE",
"1148 88 OFFCURVE",
"1168 122 CURVE",
"1140 191 LINE",
"1090 154 OFFCURVE",
"1074 146 OFFCURVE",
"1051 146 CURVE SMOOTH",
"1022 146 OFFCURVE",
"1006 168 OFFCURVE",
"1012 220 CURVE SMOOTH",
"1120 1001 LINE",
"1293 1064 OFFCURVE",
"1395 1175 OFFCURVE",
"1396 1345 CURVE SMOOTH",
"1396 1379 OFFCURVE",
"1394 1397 OFFCURVE",
"1392 1421 CURVE",
"1153 1421 LINE",
"1153 1387 LINE SMOOTH",
"1153 1216 OFFCURVE",
"1077 1162 OFFCURVE",
"1032 1136 CURVE",
"823 1128 LINE",
"704 244 LINE",
"657 190 OFFCURVE",
"589 142 OFFCURVE",
"510 142 CURVE SMOOTH",
"445 142 OFFCURVE",
"416 180 OFFCURVE",
"416 276 CURVE SMOOTH",
"416 333 OFFCURVE",
"436 460 OFFCURVE",
"452 576 CURVE SMOOTH",
"518 1112 LINE",
"468 1136 LINE",
"80 1104 LINE",
"64 1018 LINE",
"187 941 LINE",
"135 584 LINE SMOOTH",
"117 462 OFFCURVE",
"93 322 OFFCURVE",
"93 231 CURVE SMOOTH",
"97 42 OFFCURVE",
"259 -20 OFFCURVE",
"378 -20 CURVE SMOOTH"
);
}
);
width = 1236;
}
);
leftKerningGroup = u;
leftMetricsKey = u;
rightKerningGroup = u;
unicode = 01B0;
},
{
glyphname = v;
lastChange = "2019-04-05 05:20:06 +0000";
layers = (
{
anchors = (
{
name = top;
position = "{561, 1110}";
}
);
layerId = "0C3FD5EE-D923-4A4A-8FDE-164881635915";
paths = (
{
closed = 1;
nodes = (
"277 344 LINE",
"336 -20 LINE",
"456 -8 LINE",
"680 291 LINE SMOOTH",
"822 487 OFFCURVE",
"981 758 OFFCURVE",
"981 948 CURVE SMOOTH",
"981 1058 OFFCURVE",
"943 1134 OFFCURVE",
"873 1134 CURVE SMOOTH",
"830 1134 OFFCURVE",
"798 1106 OFFCURVE",
"798 1047 CURVE SMOOTH",
"798 1007 OFFCURVE",
"833 963 OFFCURVE",
"828 895 CURVE SMOOTH",
"811 683 OFFCURVE",
"701 493 OFFCURVE",
"580 319 CURVE SMOOTH",
"436 134 LINE",
"413 350 LINE",
"336 1000 LINE SMOOTH",
"326 1079 OFFCURVE",
"306 1134 OFFCURVE",
"214 1134 CURVE SMOOTH",
"120 1134 OFFCURVE",
"48 1051 OFFCURVE",
"35 1031 CURVE",
"58 980 LINE",
"76 995 OFFCURVE",
"101 1018 OFFCURVE",
"130 1018 CURVE SMOOTH",
"158 1018 OFFCURVE",
"172 991 OFFCURVE",
"178 951 CURVE SMOOTH"
);
}
);
width = 1046;
},
{
anchors = (
{
name = top;
position = "{610, 1110}";
}
);
layerId = "27298932-82AF-4578-9425-6304FDB19058";
paths = (
{
closed = 1;
nodes = (
"233 346 LINE",
"309 -20 LINE",
"512 -6 LINE",
"564 60 LINE SMOOTH",
"859 434 OFFCURVE",
"1063 725 OFFCURVE",
"1059 925 CURVE SMOOTH",
"1058 1031 OFFCURVE",
"1014 1136 OFFCURVE",
"888 1136 CURVE SMOOTH",
"793 1136 OFFCURVE",
"736 1073 OFFCURVE",
"736 996 CURVE SMOOTH",
"736 927 OFFCURVE",
"764 879 OFFCURVE",
"764 824 CURVE SMOOTH",
"764 639 OFFCURVE",
"719 482 OFFCURVE",
"605 310 CURVE SMOOTH",
"552 231 LINE",
"522 441 LINE",
"431 1002 LINE SMOOTH",
"417 1088 OFFCURVE",
"364 1136 OFFCURVE",
"247 1136 CURVE SMOOTH",
"114 1136 OFFCURVE",
"11 1042 OFFCURVE",
"-7 1022 CURVE",
"23 947 LINE",
"37 955 OFFCURVE",
"50 962 OFFCURVE",
"72 962 CURVE SMOOTH",
"92 962 OFFCURVE",
"106 947 OFFCURVE",
"114 907 CURVE SMOOTH"
);
}
);
width = 1073;
}
);
leftKerningGroup = v;
rightKerningGroup = v;
unicode = 0076;
},
{
glyphname = w;
lastChange = "2019-04-05 05:20:06 +0000";
layers = (
{
anchors = (
{
name = top;
position = "{902, 1110}";
}
);
layerId = "0C3FD5EE-D923-4A4A-8FDE-164881635915";
paths = (
{
closed = 1;
nodes = (
"254 318 LINE",
"310 -20 LINE",
"446 -8 LINE",
"586 289 LINE",
"825 798 LINE",
"869 934 LINE",
"878 800 LINE",
"917 316 LINE",
"952 -18 LINE",
"1098 -8 LINE",
"1293 296 LINE",
"1422 486 OFFCURVE",
"1568 760 OFFCURVE",
"1568 941 CURVE SMOOTH",
"1568 1066 OFFCURVE",
"1535 1134 OFFCURVE",
"1464 1134 CURVE SMOOTH",
"1418 1134 OFFCURVE",
"1386 1104 OFFCURVE",
"1386 1047 CURVE SMOOTH",
"1386 1009 OFFCURVE",
"1418 963 OFFCURVE",
"1416 895 CURVE SMOOTH",
"1411 681 OFFCURVE",
"1262 403 OFFCURVE",
"1195 308 CURVE",
"1068 125 LINE",
"1052 309 LINE",
"979 1126 LINE",
"837 1126 LINE",
"484 297 LINE",
"407 124 LINE",
"389 311 LINE",
"313 1000 LINE",
"301 1086 OFFCURVE",
"279 1134 OFFCURVE",
"187 1134 CURVE SMOOTH",
"93 1134 OFFCURVE",
"19 1052 OFFCURVE",
"7 1031 CURVE",
"29 980 LINE",
"51 997 OFFCURVE",
"74 1020 OFFCURVE",
"104 1018 CURVE SMOOTH",
"129 1018 OFFCURVE",
"141 999 OFFCURVE",
"151 951 CURVE"
);
}
);
width = 1624;
},
{
anchors = (
{
name = top;
position = "{927, 1110}";
}
);
layerId = "27298932-82AF-4578-9425-6304FDB19058";
paths = (
{
closed = 1;
nodes = (
"225 345 LINE",
"304 -20 LINE",
"562 -4 LINE",
"712 391 LINE",
"803 649 LINE",
"860 837 LINE",
"872 649 LINE",
"906 345 LINE",
"946 -18 LINE",
"1160 -8 LINE",
"1282 137 LINE",
"1426 302 OFFCURVE",
"1694 731 OFFCURVE",
"1690 930 CURVE SMOOTH",
"1688 1037 OFFCURVE",
"1646 1142 OFFCURVE",
"1518 1142 CURVE SMOOTH",
"1420 1142 OFFCURVE",
"1361 1077 OFFCURVE",
"1361 1000 CURVE SMOOTH",
"1361 931 OFFCURVE",
"1393 859 OFFCURVE",
"1393 793 CURVE SMOOTH",
"1393 630 OFFCURVE",
"1347 478 OFFCURVE",
"1239 306 CURVE",
"1198 227 LINE",
"1182 389 LINE",
"1081 1128 LINE",
"793 1128 LINE",
"604 492 LINE",
"518 219 LINE",
"495 424 LINE",
"424 1002 LINE",
"410 1088 OFFCURVE",
"357 1136 OFFCURVE",
"240 1136 CURVE SMOOTH",
"111 1136 OFFCURVE",
"4 1046 OFFCURVE",
"-13 1022 CURVE",
"16 947 LINE",
"33 955 OFFCURVE",
"41 962 OFFCURVE",
"65 962 CURVE SMOOTH",
"85 962 OFFCURVE",
"99 948 OFFCURVE",
"107 907 CURVE SMOOTH"
);
}
);
width = 1682;
}
);
leftKerningGroup = w;
rightKerningGroup = w;
unicode = 0077;
},
{
glyphname = x;
lastChange = "2019-04-05 05:20:06 +0000";
layers = (
{
anchors = (
{
name = top;
position = "{524, 1226}";
}
);
layerId = "0C3FD5EE-D923-4A4A-8FDE-164881635915";
paths = (
{
closed = 1;
nodes = (
"432 582 LINE",
"-12 0 LINE",
"159 0 LINE",
"479 458 LINE",
"605 84 LINE SMOOTH",
"627 22 OFFCURVE",
"653 -20 OFFCURVE",
"721 -20 CURVE SMOOTH",
"876 -20 OFFCURVE",
"944 87 OFFCURVE",
"956 113 CURVE",
"924 167 LINE",
"881 121 OFFCURVE",
"840 97 OFFCURVE",
"809 97 CURVE SMOOTH",
"777 97 OFFCURVE",
"761 122 OFFCURVE",
"745 160 CURVE",
"567 554 LINE",
"997 1110 LINE",
"829 1110 LINE",
"520 676 LINE",
"409 1053 LINE SMOOTH",
"396 1094 OFFCURVE",
"364 1132 OFFCURVE",
"303 1132 CURVE SMOOTH",
"171 1132 OFFCURVE",
"89 1042 OFFCURVE",
"75 1018 CURVE",
"105 972 LINE",
"120 994 OFFCURVE",
"162 1024 OFFCURVE",
"202 1024 CURVE SMOOTH",
"242 1024 OFFCURVE",
"256 999 OFFCURVE",
"272 963 CURVE SMOOTH"
);
}
);
width = 1027;
},
{
anchors = (
{
name = top;
position = "{553, 1226}";
}
);
layerId = "27298932-82AF-4578-9425-6304FDB19058";
paths = (
{
closed = 1;
nodes = (
"378 557 LINE",
"-72 0 LINE",
"236 0 LINE",
"470 396 LINE",
"558 84 LINE",
"580 22 OFFCURVE",
"631 -20 OFFCURVE",
"730 -20 CURVE SMOOTH",
"932 -20 OFFCURVE",
"1037 102 OFFCURVE",
"1055 129 CURVE",
"1011 211 LINE",
"961 174 OFFCURVE",
"937 172 OFFCURVE",
"916 172 CURVE SMOOTH",
"883 172 OFFCURVE",
"838 250 OFFCURVE",
"818 288 CURVE SMOOTH",
"669 579 LINE",
"1106 1110 LINE",
"814 1110 LINE",
"582 744 LINE",
"511 1035 LINE SMOOTH",
"495 1098 OFFCURVE",
"424 1136 OFFCURVE",
"321 1136 CURVE SMOOTH",
"153 1136 OFFCURVE",
"43 1048 OFFCURVE",
"26 1024 CURVE",
"63 943 LINE",
"89 959 OFFCURVE",
"106 962 OFFCURVE",
"142 962 CURVE SMOOTH",
"174 962 OFFCURVE",
"200 919 OFFCURVE",
"218 883 CURVE SMOOTH"
);
}
);
width = 1080;
}
);
leftKerningGroup = x;
rightKerningGroup = x;
unicode = 0078;
},
{
glyphname = y;
lastChange = "2019-04-05 05:20:06 +0000";
layers = (
{
anchors = (
{
name = bottom;
position = "{859, 0}";
},
{
name = top;
position = "{606, 1110}";
}
);
layerId = "0C3FD5EE-D923-4A4A-8FDE-164881635915";
paths = (
{
closed = 1;
nodes = (
"386 -78 LINE",
"460 -78 LINE",
"350 -297 OFFCURVE",
"205 -375 OFFCURVE",
"106 -375 CURVE SMOOTH",
"14 -375 OFFCURVE",
"-39 -347 OFFCURVE",
"-59 -335 CURVE",
"-98 -464 LINE",
"-58 -478 OFFCURVE",
"28 -495 OFFCURVE",
"86 -495 CURVE SMOOTH",
"265 -495 OFFCURVE",
"365 -394 OFFCURVE",
"418 -316 CURVE",
"498 -218 OFFCURVE",
"623 -20 OFFCURVE",
"774 291 CURVE",
"872 473 OFFCURVE",
"1024 733 OFFCURVE",
"1024 955 CURVE SMOOTH",
"1024 1066 OFFCURVE",
"984 1130 OFFCURVE",
"915 1130 CURVE SMOOTH",
"872 1130 OFFCURVE",
"838 1106 OFFCURVE",
"838 1047 CURVE SMOOTH",
"838 1002 OFFCURVE",
"874 971 OFFCURVE",
"874 914 CURVE SMOOTH",
"874 695 OFFCURVE",
"759 507 OFFCURVE",
"654 289 CURVE",
"492 -22 LINE",
"464 251 LINE",
"430 499 OFFCURVE",
"395 750 OFFCURVE",
"361 998 CURVE",
"351 1080 OFFCURVE",
"329 1132 OFFCURVE",
"239 1132 CURVE SMOOTH",
"145 1132 OFFCURVE",
"61 1038 OFFCURVE",
"47 1014 CURVE",
"71 963 LINE",
"108 999 OFFCURVE",
"131 1016 OFFCURVE",
"157 1016 CURVE SMOOTH",
"179 1016 OFFCURVE",
"195 1004 OFFCURVE",
"205 949 CURVE"
);
}
);
width = 1089;
},
{
anchors = (
{
name = bottom;
position = "{943, 0}";
},
{
name = top;
position = "{643, 1110}";
}
);
layerId = "27298932-82AF-4578-9425-6304FDB19058";
paths = (
{
closed = 1;
nodes = (
"349 -70 LINE",
"526 -70 LINE",
"414 -251 OFFCURVE",
"320 -324 OFFCURVE",
"197 -324 CURVE SMOOTH",
"132 -324 OFFCURVE",
"45 -296 OFFCURVE",
"16 -266 CURVE",
"-59 -462 LINE",
"-35 -482 OFFCURVE",
"65 -506 OFFCURVE",
"144 -506 CURVE SMOOTH",
"307 -506 OFFCURVE",
"434 -450 OFFCURVE",
"571 -227 CURVE SMOOTH",
"653 -94 OFFCURVE",
"849 220 OFFCURVE",
"925 391 CURVE",
"1017 580 OFFCURVE",
"1082 724 OFFCURVE",
"1082 935 CURVE SMOOTH",
"1082 1031 OFFCURVE",
"1023 1136 OFFCURVE",
"906 1136 CURVE SMOOTH",
"804 1136 OFFCURVE",
"753 1077 OFFCURVE",
"753 1001 CURVE SMOOTH",
"753 882 OFFCURVE",
"806 862 OFFCURVE",
"806 726 CURVE SMOOTH",
"806 562 OFFCURVE",
"741 369 OFFCURVE",
"650 174 CURVE SMOOTH",
"587 40 LINE",
"559 235 LINE",
"519 490 OFFCURVE",
"479 744 OFFCURVE",
"438 1002 CURVE SMOOTH",
"424 1088 OFFCURVE",
"371 1136 OFFCURVE",
"254 1136 CURVE SMOOTH",
"125 1136 OFFCURVE",
"19 1046 OFFCURVE",
"0 1022 CURVE",
"29 947 LINE",
"46 957 OFFCURVE",
"62 962 OFFCURVE",
"79 962 CURVE SMOOTH",
"99 962 OFFCURVE",
"111 948 OFFCURVE",
"121 907 CURVE SMOOTH"
);
}
);
width = 1105;
}
);
leftKerningGroup = y;
rightKerningGroup = y;
unicode = 0079;
},
{
glyphname = z;
lastChange = "2019-04-05 05:20:06 +0000";
layers = (
{
anchors = (
{
name = bottom;
position = "{437, 0}";
},
{
name = top;
position = "{579, 1110}";
}
);
layerId = "0C3FD5EE-D923-4A4A-8FDE-164881635915";
paths = (
{
closed = 1;
nodes = (
"666 823 LINE",
"13 29 LINE",
"63 -22 LINE",
"93 2 OFFCURVE",
"124 12 OFFCURVE",
"160 12 CURVE SMOOTH",
"276 12 OFFCURVE",
"579 -22 OFFCURVE",
"723 -22 CURVE SMOOTH",
"771 -22 OFFCURVE",
"804 -12 OFFCURVE",
"821 -2 CURVE SMOOTH",
"883 34 OFFCURVE",
"901 198 OFFCURVE",
"908 314 CURVE",
"843 314 LINE",
"826 192 OFFCURVE",
"777 124 OFFCURVE",
"672 124 CURVE SMOOTH",
"634 124 OFFCURVE",
"344 130 OFFCURVE",
"234 131 CURVE",
"419 332 LINE",
"1018 1085 LINE",
"975 1130 LINE",
"944 1106 OFFCURVE",
"913 1102 OFFCURVE",
"882 1102 CURVE SMOOTH",
"764 1102 OFFCURVE",
"464 1132 OFFCURVE",
"323 1132 CURVE SMOOTH",
"273 1132 OFFCURVE",
"250 1124 OFFCURVE",
"234 1112 CURVE SMOOTH",
"179 1072 OFFCURVE",
"158 874 OFFCURVE",
"161 789 CURVE",
"226 789 LINE",
"232 885 OFFCURVE",
"277 981 OFFCURVE",
"345 984 CURVE",
"364 992 OFFCURVE",
"732 981 OFFCURVE",
"811 979 CURVE"
);
}
);
width = 1030;
},
{
anchors = (
{
name = bottom;
position = "{484, 0}";
},
{
name = top;
position = "{594, 1110}";
}
);
layerId = "27298932-82AF-4578-9425-6304FDB19058";
paths = (
{
closed = 1;
nodes = (
"608 812 LINE",
"-38 38 LINE",
"23 -22 LINE",
"47 2 OFFCURVE",
"99 10 OFFCURVE",
"127 10 CURVE SMOOTH",
"249 10 OFFCURVE",
"588 -22 OFFCURVE",
"741 -22 CURVE SMOOTH",
"791 -22 OFFCURVE",
"827 -14 OFFCURVE",
"843 -2 CURVE SMOOTH",
"923 57 OFFCURVE",
"921 314 OFFCURVE",
"910 407 CURVE",
"827 407 LINE",
"818 318 OFFCURVE",
"759 246 OFFCURVE",
"649 246 CURVE SMOOTH",
"545 246 OFFCURVE",
"431 246 OFFCURVE",
"325 246 CURVE",
"399 293 LINE",
"1045 1076 LINE",
"993 1136 LINE",
"967 1112 OFFCURVE",
"931 1102 OFFCURVE",
"882 1102 CURVE SMOOTH",
"758 1102 OFFCURVE",
"462 1136 OFFCURVE",
"308 1136 CURVE SMOOTH",
"260 1136 OFFCURVE",
"225 1122 OFFCURVE",
"211 1114 CURVE SMOOTH",
"130 1066 OFFCURVE",
"129 808 OFFCURVE",
"145 718 CURVE",
"230 718 LINE",
"236 801 OFFCURVE",
"295 868 OFFCURVE",
"398 868 CURVE SMOOTH",
"494 868 OFFCURVE",
"602 866 OFFCURVE",
"700 866 CURVE"
);
}
);
width = 1005;
}
);
leftKerningGroup = z;
rightKerningGroup = z;
unicode = 007A;
},
{
color = 9;
glyphname = thorn.sc.001;
lastChange = "2019-04-05 05:37:06 +0000";
layers = (
{
layerId = "0C3FD5EE-D923-4A4A-8FDE-164881635915";
paths = (
{
closed = 1;
nodes = (
"474 1208 LINE",
"616 1226 LINE",
"626 1298 LINE",
"192 1298 LINE",
"184 1226 LINE",
"312 1208 LINE",
"156 86 LINE",
"16 64 LINE",
"10 0 LINE",
"470 0 LINE",
"474 64 LINE",
"316 86 LINE",
"344 288 LINE",
"384 284 OFFCURVE",
"456 280 OFFCURVE",
"550 280 CURVE SMOOTH",
"876 280 OFFCURVE",
"1112 460 OFFCURVE",
"1112 712 CURVE SMOOTH",
"1112 914 OFFCURVE",
"964 1034 OFFCURVE",
"676 1034 CURVE SMOOTH",
"600 1034 OFFCURVE",
"510 1028 OFFCURVE",
"446 1018 CURVE"
);
},
{
closed = 1;
nodes = (
"432 930 LINE",
"486 940 OFFCURVE",
"582 946 OFFCURVE",
"632 946 CURVE SMOOTH",
"870 946 OFFCURVE",
"948 858 OFFCURVE",
"950 690 CURVE",
"948 496 OFFCURVE",
"804 366 OFFCURVE",
"550 366 CURVE SMOOTH",
"470 366 OFFCURVE",
"408 372 OFFCURVE",
"356 376 CURVE"
);
}
);
width = 1179;
},
{
background = {
anchors = (
{
name = bottom;
position = "{716, 0}";
},
{
name = top;
position = "{880, 1292}";
}
);
paths = (
{
closed = 1;
nodes = (
"138 1192 LINE",
"272 1172 LINE",
"128 122 LINE",
"0 96 LINE",
"-8 0 LINE",
"628 0 LINE",
"634 96 LINE",
"466 122 LINE",
"528 594 LINE",
"1034 594 LINE",
"970 122 LINE",
"792 96 LINE",
"780 0 LINE",
"1440 0 LINE",
"1450 96 LINE",
"1312 122 LINE",
"1454 1172 LINE",
"1590 1192 LINE",
"1600 1292 LINE",
"960 1292 LINE",
"950 1192 LINE",
"1114 1172 LINE",
"1052 720 LINE",
"548 720 LINE",
"610 1172 LINE",
"784 1192 LINE",
"794 1292 LINE",
"152 1292 LINE"
);
}
);
};
layerId = "27298932-82AF-4578-9425-6304FDB19058";
paths = (
{
closed = 1;
nodes = (
"607 1169 LINE",
"779 1191 LINE",
"788 1290 LINE",
"152 1290 LINE",
"138 1192 LINE",
"272 1172 LINE",
"128 122 LINE",
"0 96 LINE",
"-9 0 LINE",
"628 0 LINE",
"634 96 LINE",
"466 122 LINE",
"490 302 LINE",
"508 300 OFFCURVE",
"540 296 OFFCURVE",
"592 296 CURVE SMOOTH",
"1156 296 OFFCURVE",
"1252 556 OFFCURVE",
"1252 722 CURVE SMOOTH",
"1252 884 OFFCURVE",
"1106 1008 OFFCURVE",
"780 1008 CURVE SMOOTH",
"706 1008 OFFCURVE",
"628 1002 OFFCURVE",
"586 998 CURVE"
);
},
{
closed = 1;
nodes = (
"568 876 LINE",
"604 884 OFFCURVE",
"656 888 OFFCURVE",
"674 888 CURVE SMOOTH",
"804 888 OFFCURVE",
"896 828 OFFCURVE",
"896 708 CURVE SMOOTH",
"896 504 OFFCURVE",
"784 420 OFFCURVE",
"608 420 CURVE SMOOTH",
"568 420 OFFCURVE",
"538 424 OFFCURVE",
"504 424 CURVE"
);
}
);
width = 1265;
}
);
leftKerningGroup = a.sc;
leftMetricsKey = h.sc;
rightKerningGroup = a.sc;
rightMetricsKey = p.sc;
userData = {
RMXScaler = {
source = Thorn;
};
};
},
{
color = 9;
glyphname = a.sc;
lastChange = "2019-04-05 05:20:06 +0000";
layers = (
{
anchors = (
{
name = bottom;
position = "{554, 0}";
},
{
name = ogonek;
position = "{1058, 18}";
},
{
name = top;
position = "{746, 1292}";
}
);
layerId = "0C3FD5EE-D923-4A4A-8FDE-164881635915";
paths = (
{
closed = 1;
nodes = (
"22 84 LINE",
"-110 64 LINE",
"-116 0 LINE",
"335 0 LINE",
"339 64 LINE",
"165 86 LINE",
"319 384 LINE",
"863 384 LINE",
"924 84 LINE",
"754 64 LINE",
"750 0 LINE",
"1240 0 LINE",
"1244 64 LINE",
"1087 88 LINE",
"826 1302 LINE",
"663 1302 LINE"
);
},
{
closed = 1;
nodes = (
"730 1066 LINE",
"847 475 LINE",
"362 475 LINE",
"716 1177 LINE"
);
}
);
width = 1267;
},
{
anchors = (
{
name = bottom;
position = "{527, 0}";
},
{
name = ogonek;
position = "{1066, 18}";
},
{
name = top;
position = "{738, 1292}";
}
);
layerId = "27298932-82AF-4578-9425-6304FDB19058";
paths = (
{
closed = 1;
nodes = (
"-17 123 LINE",
"-147 97 LINE",
"-153 0 LINE",
"375 0 LINE",
"381 97 LINE",
"205 123 LINE",
"310 345 LINE",
"761 345 LINE",
"802 123 LINE",
"655 97 LINE",
"653 0 LINE",
"1306 0 LINE",
"1310 97 LINE",
"1160 125 LINE",
"911 1294 LINE",
"579 1294 LINE"
);
},
{
closed = 1;
nodes = (
"662 915 LINE",
"740 484 LINE",
"368 484 LINE",
"652 1093 LINE"
);
}
);
width = 1276;
}
);
leftKerningGroup = a.sc;
rightKerningGroup = a.sc;
userData = {
RMXScaler = {
source = A;
};
};
},
{
color = 9;
glyphname = ae.sc;
lastChange = "2019-04-05 05:20:06 +0000";
layers = (
{
anchors = (
{
name = top;
position = "{1081, 1292}";
}
);
layerId = "0C3FD5EE-D923-4A4A-8FDE-164881635915";
paths = (
{
closed = 1;
nodes = (
"1602 0 LINE",
"1664 279 LINE",
"1576 298 LINE",
"1487 105 LINE",
"944 86 LINE",
"1010 619 LINE",
"1426 606 LINE",
"1438 735 LINE",
"1017 714 LINE",
"1083 1212 LINE",
"1521 1201 LINE",
"1555 1032 LINE",
"1645 1032 LINE",
"1650 1292 LINE",
"383 1292 LINE",
"373 1218 LINE",
"664 1201 LINE",
"11 84 LINE",
"-145 64 LINE",
"-155 0 LINE",
"374 0 LINE",
"378 64 LINE",
"168 86 LINE",
"350 411 LINE",
"823 411 LINE",
"783 84 LINE",
"658 64 LINE",
"649 0 LINE"
);
},
{
closed = 1;
nodes = (
"916 1201 LINE",
"831 502 LINE",
"398 502 LINE",
"783 1205 LINE"
);
}
);
width = 1731;
},
{
anchors = (
{
name = top;
position = "{1063, 1292}";
}
);
layerId = "27298932-82AF-4578-9425-6304FDB19058";
paths = (
{
closed = 1;
nodes = (
"1786 0 LINE",
"1846 417 LINE",
"1640 428 LINE",
"1533 156 LINE",
"1105 123 LINE",
"1171 601 LINE",
"1583 569 LINE",
"1614 784 LINE",
"1186 745 LINE",
"1251 1185 LINE",
"1561 1159 LINE",
"1597 964 LINE",
"1811 964 LINE",
"1842 1292 LINE",
"367 1292 LINE",
"351 1185 LINE",
"625 1159 LINE",
"-42 123 LINE",
"-189 97 LINE",
"-195 0 LINE",
"397 0 LINE",
"403 97 LINE",
"226 123 LINE",
"358 336 LINE",
"801 336 LINE",
"770 123 LINE",
"619 97 LINE",
"607 0 LINE"
);
},
{
closed = 1;
nodes = (
"910 1190 LINE",
"818 477 LINE",
"431 477 LINE",
"832 1189 LINE"
);
}
);
width = 1902;
}
);
leftKerningGroup = a.sc;
rightKerningGroup = e.sc;
userData = {
RMXScaler = {
source = AE;
};
};
},
{
color = 9;
glyphname = b.sc;
lastChange = "2019-04-05 05:20:06 +0000";
layers = (
{
anchors = (
{
name = bottom;
position = "{536, 0}";
},
{
name = top;
position = "{682, 1292}";
}
);
layerId = "0C3FD5EE-D923-4A4A-8FDE-164881635915";
paths = (
{
closed = 1;
nodes = (
"184 1292 LINE",
"178 1220 LINE",
"306 1202 LINE",
"154 86 LINE",
"14 64 LINE",
"8 0 LINE",
"218 0 LINE SMOOTH",
"286 0 OFFCURVE",
"398 -12 OFFCURVE",
"474 -12 CURVE SMOOTH",
"822 -12 OFFCURVE",
"1110 108 OFFCURVE",
"1104 418 CURVE SMOOTH",
"1102 564 OFFCURVE",
"974 670 OFFCURVE",
"810 686 CURVE",
"998 732 OFFCURVE",
"1114 848 OFFCURVE",
"1110 1034 CURVE SMOOTH",
"1108 1174 OFFCURVE",
"992 1306 OFFCURVE",
"691 1306 CURVE SMOOTH",
"593 1306 OFFCURVE",
"506 1294 OFFCURVE",
"420 1292 CURVE"
);
},
{
closed = 1;
nodes = (
"384 620 LINE",
"432 620 OFFCURVE",
"508 622 OFFCURVE",
"632 622 CURVE SMOOTH",
"826 622 OFFCURVE",
"930 550 OFFCURVE",
"934 402 CURVE SMOOTH",
"940 162 OFFCURVE",
"758 76 OFFCURVE",
"508 76 CURVE SMOOTH",
"462 76 OFFCURVE",
"350 82 OFFCURVE",
"314 92 CURVE"
);
},
{
closed = 1;
nodes = (
"464 1210 LINE",
"510 1216 OFFCURVE",
"612 1222 OFFCURVE",
"654 1222 CURVE SMOOTH",
"864 1222 OFFCURVE",
"948 1150 OFFCURVE",
"952 1016 CURVE SMOOTH",
"956 800 OFFCURVE",
"794 716 OFFCURVE",
"610 716 CURVE SMOOTH",
"548 716 OFFCURVE",
"460 714 OFFCURVE",
"396 716 CURVE"
);
}
);
width = 1217;
},
{
anchors = (
{
name = bottom;
position = "{602, 0}";
},
{
name = top;
position = "{736, 1292}";
}
);
layerId = "27298932-82AF-4578-9425-6304FDB19058";
paths = (
{
closed = 1;
nodes = (
"139 1292 LINE",
"128 1193 LINE",
"265 1171 LINE",
"123 123 LINE",
"-7 97 LINE",
"-13 0 LINE",
"269 0 LINE SMOOTH",
"354 0 OFFCURVE",
"480 -18 OFFCURVE",
"571 -18 CURVE SMOOTH",
"1022 -18 OFFCURVE",
"1254 104 OFFCURVE",
"1253 418 CURVE SMOOTH",
"1253 578 OFFCURVE",
"1102 691 OFFCURVE",
"903 682 CURVE",
"1145 736 OFFCURVE",
"1263 836 OFFCURVE",
"1251 1032 CURVE SMOOTH",
"1244 1164 OFFCURVE",
"1168 1308 OFFCURVE",
"798 1308 CURVE SMOOTH",
"675 1308 OFFCURVE",
"570 1294 OFFCURVE",
"461 1292 CURVE"
);
},
{
closed = 1;
nodes = (
"512 605 LINE",
"533 605 OFFCURVE",
"555 607 OFFCURVE",
"623 607 CURVE SMOOTH",
"820 607 OFFCURVE",
"892 540 OFFCURVE",
"901 387 CURVE SMOOTH",
"913 191 OFFCURVE",
"809 93 OFFCURVE",
"611 93 CURVE SMOOTH",
"569 93 OFFCURVE",
"490 103 OFFCURVE",
"444 115 CURVE"
);
},
{
closed = 1;
nodes = (
"590 1183 LINE",
"632 1191 OFFCURVE",
"693 1193 OFFCURVE",
"724 1193 CURVE SMOOTH",
"854 1193 OFFCURVE",
"927 1125 OFFCURVE",
"935 1002 CURVE",
"946 802 OFFCURVE",
"800 732 OFFCURVE",
"639 732 CURVE SMOOTH",
"601 732 OFFCURVE",
"565 730 OFFCURVE",
"528 732 CURVE"
);
}
);
width = 1330;
}
);
leftKerningGroup = b.sc;
rightKerningGroup = b.sc;
userData = {
RMXScaler = {
source = B;
};
};
},
{
color = 9;
glyphname = c.sc;
lastChange = "2019-04-05 05:20:06 +0000";
layers = (
{
anchors = (
{
name = bottom;
position = "{585, 0}";
},
{
name = btm;
position = "{590, -142}";
},
{
name = top;
position = "{708, 1306}";
}
);
layerId = "0C3FD5EE-D923-4A4A-8FDE-164881635915";
paths = (
{
closed = 1;
nodes = (
"986 942 LINE",
"1085 942 LINE",
"1139 1256 LINE",
"1099 1266 LINE",
"1043 1280 OFFCURVE",
"942 1306 OFFCURVE",
"767 1306 CURVE SMOOTH",
"382 1306 OFFCURVE",
"59 1004 OFFCURVE",
"74 535 CURVE SMOOTH",
"82 264 OFFCURVE",
"223 -14 OFFCURVE",
"580 -14 CURVE SMOOTH",
"777 -14 OFFCURVE",
"929 42 OFFCURVE",
"1005 70 CURVE",
"1039 343 LINE",
"941 343 LINE",
"889 174 OFFCURVE",
"903 222 OFFCURVE",
"882 158 CURVE",
"829 100 OFFCURVE",
"698 78 OFFCURVE",
"607 78 CURVE SMOOTH",
"352 78 OFFCURVE",
"254 309 OFFCURVE",
"246 549 CURVE SMOOTH",
"236 846 OFFCURVE",
"393 1220 OFFCURVE",
"749 1220 CURVE SMOOTH",
"867 1220 OFFCURVE",
"927 1203 OFFCURVE",
"972 1180 CURVE"
);
}
);
width = 1170;
},
{
anchors = (
{
name = bottom;
position = "{638, 0}";
},
{
name = btm;
position = "{648, -142}";
},
{
name = top;
position = "{756, 1292}";
}
);
layerId = "27298932-82AF-4578-9425-6304FDB19058";
paths = (
{
closed = 1;
nodes = (
"947 915 LINE",
"1192 915 LINE",
"1245 1264 LINE",
"1214 1268 LINE",
"1147 1282 OFFCURVE",
"1091 1308 OFFCURVE",
"876 1308 CURVE SMOOTH",
"374 1308 OFFCURVE",
"46 1039 OFFCURVE",
"47 557 CURVE SMOOTH",
"47 237 OFFCURVE",
"212 -14 OFFCURVE",
"640 -14 CURVE SMOOTH",
"917 -14 OFFCURVE",
"1042 65 OFFCURVE",
"1116 128 CURVE",
"1152 359 LINE",
"959 359 LINE",
"940 290 OFFCURVE",
"919 224 OFFCURVE",
"888 195 CURVE",
"816 131 OFFCURVE",
"731 136 OFFCURVE",
"687 136 CURVE SMOOTH",
"513 136 OFFCURVE",
"438 262 OFFCURVE",
"424 558 CURVE SMOOTH",
"412 842 OFFCURVE",
"526 1193 OFFCURVE",
"824 1193 CURVE SMOOTH",
"852 1193 OFFCURVE",
"880 1192 OFFCURVE",
"906 1186 CURVE"
);
}
);
width = 1230;
}
);
leftKerningGroup = o.sc;
rightKerningGroup = c.sc;
userData = {
RMXScaler = {
source = C;
};
};
},
{
color = 9;
glyphname = d.sc;
lastChange = "2019-04-05 05:20:06 +0000";
layers = (
{
anchors = (
{
name = bottom;
position = "{549, 0}";
},
{
name = top;
position = "{714, 1292}";
}
);
layerId = "0C3FD5EE-D923-4A4A-8FDE-164881635915";
paths = (
{
closed = 1;
nodes = (
"186 1292 LINE",
"180 1220 LINE",
"306 1202 LINE",
"154 86 LINE",
"14 64 LINE",
"6 0 LINE",
"230 0 LINE SMOOTH",
"284 0 OFFCURVE",
"362 -2 OFFCURVE",
"426 -8 CURVE SMOOTH",
"452 -10 OFFCURVE",
"518 -14 OFFCURVE",
"528 -14 CURVE SMOOTH",
"982 -24 OFFCURVE",
"1276 332 OFFCURVE",
"1264 782 CURVE",
"1260 1098 OFFCURVE",
"1103 1306 OFFCURVE",
"716 1306 CURVE SMOOTH",
"621 1306 OFFCURVE",
"528 1294 OFFCURVE",
"440 1292 CURVE"
);
},
{
closed = 1;
nodes = (
"468 1204 LINE",
"524 1212 OFFCURVE",
"610 1222 OFFCURVE",
"678 1222 CURVE SMOOTH",
"976 1222 OFFCURVE",
"1094 1088 OFFCURVE",
"1100 768 CURVE",
"1104 440 OFFCURVE",
"942 88 OFFCURVE",
"564 74 CURVE",
"506 74 OFFCURVE",
"388 82 OFFCURVE",
"316 96 CURVE"
);
}
);
width = 1349;
},
{
anchors = (
{
name = bottom;
position = "{565, 0}";
},
{
name = top;
position = "{772, 1294}";
}
);
layerId = "27298932-82AF-4578-9425-6304FDB19058";
paths = (
{
closed = 1;
nodes = (
"140 1292 LINE",
"132 1193 LINE",
"265 1171 LINE",
"123 123 LINE",
"-24 97 LINE",
"-34 0 LINE",
"318 0 LINE",
"381 0 OFFCURVE",
"465 -4 OFFCURVE",
"498 -6 CURVE",
"514 -10 OFFCURVE",
"544 -14 OFFCURVE",
"565 -14 CURVE SMOOTH",
"1161 -10 OFFCURVE",
"1400 299 OFFCURVE",
"1400 765 CURVE SMOOTH",
"1400 1121 OFFCURVE",
"1187 1306 OFFCURVE",
"776 1306 CURVE SMOOTH",
"665 1306 OFFCURVE",
"545 1294 OFFCURVE",
"440 1292 CURVE"
);
},
{
closed = 1;
nodes = (
"602 1171 LINE",
"619 1179 OFFCURVE",
"670 1193 OFFCURVE",
"748 1193 CURVE SMOOTH",
"947 1193 OFFCURVE",
"1036 1059 OFFCURVE",
"1036 737 CURVE SMOOTH",
"1036 465 OFFCURVE",
"923 96 OFFCURVE",
"584 99 CURVE SMOOTH",
"553 99 OFFCURVE",
"489 111 OFFCURVE",
"462 121 CURVE"
);
}
);
width = 1426;
}
);
leftKerningGroup = d.sc;
rightKerningGroup = d.sc;
userData = {
RMXScaler = {
source = D;
};
};
},
{
color = 0;
glyphname = eth.sc;
lastChange = "2019-04-05 05:37:06 +0000";
layers = (
{
components = (
{
name = d.sc;
}
);
layerId = "0C3FD5EE-D923-4A4A-8FDE-164881635915";
paths = (
{
closed = 1;
nodes = (
"790 616 LINE",
"800 716 LINE",
"104 716 LINE",
"94 616 LINE"
);
}
);
width = 1349;
},
{
components = (
{
name = d.sc;
transform = "{1, 0, 0, 1, 2, 0}";
}
);
layerId = "27298932-82AF-4578-9425-6304FDB19058";
paths = (
{
closed = 1;
nodes = (
"776 590 LINE",
"798 748 LINE",
"66 748 LINE",
"44 590 LINE"
);
}
);
width = 1428;
}
);
leftKerningGroup = d.sc;
leftMetricsKey = d.sc;
rightKerningGroup = d.sc;
rightMetricsKey = d.sc;
userData = {
RMXScaler = {
source = Eth;
};
};
},
{
color = 9;
glyphname = e.sc;
lastChange = "2019-04-05 05:20:06 +0000";
layers = (
{
anchors = (
{
name = bottom;
position = "{544, 0}";
},
{
name = btm;
position = "{635, -142}";
},
{
name = ogonek;
position = "{882, 0}";
},
{
name = top;
position = "{665, 1292}";
}
);
layerId = "0C3FD5EE-D923-4A4A-8FDE-164881635915";
paths = (
{
closed = 1;
nodes = (
"178 1220 LINE",
"306 1202 LINE",
"154 84 LINE",
"12 64 LINE",
"4 0 LINE",
"992 0 LINE",
"1074 290 LINE",
"986 312 LINE",
"880 108 LINE",
"314 90 LINE",
"388 622 LINE",
"840 608 LINE",
"848 730 LINE",
"400 720 LINE",
"470 1214 LINE",
"936 1202 LINE",
"968 1020 LINE",
"1058 1020 LINE",
"1066 1292 LINE",
"187 1292 LINE"
);
}
);
width = 1166;
},
{
anchors = (
{
name = bottom;
position = "{567, 0}";
},
{
name = btm;
position = "{710, -142}";
},
{
name = ogonek;
position = "{978, 0}";
},
{
name = top;
position = "{709, 1292}";
}
);
layerId = "27298932-82AF-4578-9425-6304FDB19058";
paths = (
{
closed = 1;
nodes = (
"132 1192 LINE",
"268 1172 LINE",
"125 123 LINE",
"-24 97 LINE",
"-36 0 LINE",
"1138 0 LINE",
"1198 414 LINE",
"994 424 LINE",
"896 174 LINE",
"469 140 LINE",
"526 614 LINE",
"941 585 LINE",
"972 802 LINE",
"548 756 LINE",
"608 1184 LINE",
"921 1159 LINE",
"962 968 LINE",
"1163 968 LINE",
"1192 1292 LINE",
"142 1292 LINE"
);
}
);
width = 1253;
}
);
leftKerningGroup = h.sc;
rightKerningGroup = e.sc;
userData = {
RMXScaler = {
source = E;
};
};
},
{
color = 9;
glyphname = schwa.sc;
lastChange = "2019-04-05 05:20:06 +0000";
layers = (
{
layerId = "0C3FD5EE-D923-4A4A-8FDE-164881635915";
paths = (
{
closed = 1;
nodes = (
"158 985 LINE",
"244 985 LINE",
"302 1139 LINE",
"353 1180 OFFCURVE",
"464 1227 OFFCURVE",
"633 1227 CURVE SMOOTH",
"837 1227 OFFCURVE",
"984 1058 OFFCURVE",
"983 745 CURVE SMOOTH",
"983 715 OFFCURVE",
"981 685 OFFCURVE",
"979 656 CURVE",
"98 655 LINE",
"78 609 OFFCURVE",
"64 514 OFFCURVE",
"64 420 CURVE SMOOTH",
"64 138 OFFCURVE",
"216 -20 OFFCURVE",
"473 -20 CURVE SMOOTH",
"841 -20 OFFCURVE",
"1147 314 OFFCURVE",
"1147 772 CURVE SMOOTH",
"1147 1102 OFFCURVE",
"965 1306 OFFCURVE",
"677 1306 CURVE SMOOTH",
"409 1306 OFFCURVE",
"304 1241 OFFCURVE",
"198 1237 CURVE"
);
},
{
closed = 1;
nodes = (
"969 574 LINE",
"920 230 OFFCURVE",
"738 66 OFFCURVE",
"516 66 CURVE SMOOTH",
"320 66 OFFCURVE",
"223 218 OFFCURVE",
"223 391 CURVE SMOOTH",
"223 455 OFFCURVE",
"235 515 OFFCURVE",
"249 574 CURVE"
);
}
);
width = 1233;
},
{
layerId = "27298932-82AF-4578-9425-6304FDB19058";
paths = (
{
closed = 1;
nodes = (
"160 936 LINE",
"339 936 LINE",
"428 1119 LINE SMOOTH",
"457 1174 OFFCURVE",
"503 1205 OFFCURVE",
"615 1205 CURVE SMOOTH",
"819 1205 OFFCURVE",
"887 971 OFFCURVE",
"876 663 CURVE",
"876 664 OFFCURVE",
"874 665 OFFCURVE",
"873 664 CURVE",
"102 664 LINE",
"84 618 OFFCURVE",
"60 516 OFFCURVE",
"60 416 CURVE SMOOTH",
"60 144 OFFCURVE",
"239 -20 OFFCURVE",
"542 -20 CURVE SMOOTH",
"910 -20 OFFCURVE",
"1218 314 OFFCURVE",
"1218 772 CURVE SMOOTH",
"1218 1100 OFFCURVE",
"1011 1306 OFFCURVE",
"719 1306 CURVE SMOOTH",
"363 1306 OFFCURVE",
"298 1226 OFFCURVE",
"198 1228 CURVE"
);
},
{
closed = 1;
nodes = (
"863 537 LINE",
"825 195 OFFCURVE",
"709 103 OFFCURVE",
"582 103 CURVE SMOOTH",
"448 103 OFFCURVE",
"391 189 OFFCURVE",
"391 382 CURVE SMOOTH",
"391 439 OFFCURVE",
"401 475 OFFCURVE",
"415 537 CURVE"
);
}
);
width = 1306;
}
);
leftKerningGroup = o.sc;
rightKerningGroup = o.sc;
userData = {
RMXScaler = {
source = Schwa;
};
};
},
{
color = 9;
glyphname = ezh.sc;
lastChange = "2019-04-05 05:20:06 +0000";
layers = (
{
layerId = "0C3FD5EE-D923-4A4A-8FDE-164881635915";
paths = (
{
closed = 1;
nodes = (
"1056 1214 LINE",
"1065 1292 LINE",
"236 1292 LINE",
"212 988 LINE",
"306 988 LINE",
"358 1174 LINE",
"871 1174 LINE",
"388 674 LINE",
"422 652 LINE SMOOTH",
"450 637 OFFCURVE",
"502 654 OFFCURVE",
"563 654 CURVE",
"749 652 OFFCURVE",
"857 568 OFFCURVE",
"861 422 CURVE",
"863 252 OFFCURVE",
"732 83 OFFCURVE",
"453 83 CURVE",
"293 83 OFFCURVE",
"216 123 OFFCURVE",
"216 131 CURVE SMOOTH",
"202 345 LINE",
"118 345 LINE",
"67 52 LINE SMOOTH",
"70 50 OFFCURVE",
"258 -10 OFFCURVE",
"425 -10 CURVE",
"798 -10 OFFCURVE",
"1038 185 OFFCURVE",
"1034 443 CURVE",
"1030 658 OFFCURVE",
"859 723 OFFCURVE",
"680 723 CURVE",
"628 723 OFFCURVE",
"578 727 OFFCURVE",
"551 701 CURVE SMOOTH"
);
}
);
width = 1125;
},
{
layerId = "27298932-82AF-4578-9425-6304FDB19058";
paths = (
{
closed = 1;
nodes = (
"1095 1156 LINE",
"1112 1292 LINE",
"176 1292 LINE",
"127 963 LINE",
"306 963 LINE",
"366 1108 LINE",
"789 1108 LINE",
"363 699 LINE",
"422 629 LINE",
"442 628 OFFCURVE",
"463 629 OFFCURVE",
"481 629 CURVE SMOOTH",
"645 629 OFFCURVE",
"726 539 OFFCURVE",
"726 391 CURVE SMOOTH",
"726 244 OFFCURVE",
"604 123 OFFCURVE",
"466 123 CURVE SMOOTH",
"346 123 OFFCURVE",
"280 176 OFFCURVE",
"274 184 CURVE",
"233 385 LINE",
"85 385 LINE",
"23 56 LINE",
"68 48 OFFCURVE",
"198 -10 OFFCURVE",
"436 -10 CURVE SMOOTH",
"854 -10 OFFCURVE",
"1067 200 OFFCURVE",
"1067 454 CURVE SMOOTH",
"1067 689 OFFCURVE",
"870 776 OFFCURVE",
"684 776 CURVE SMOOTH",
"667 776 OFFCURVE",
"646 776 OFFCURVE",
"629 776 CURVE"
);
}
);
width = 1134;
}
);
leftKerningGroup = ezh.sc;
rightKerningGroup = ezh.sc;
userData = {
RMXScaler = {
source = Ezh;
};
};
},
{
color = 9;
glyphname = f.sc;
lastChange = "2019-04-05 05:20:06 +0000";
layers = (
{
anchors = (
{
name = btm;
position = "{556, -142}";
},
{
name = top;
position = "{676, 1292}";
}
);
layerId = "0C3FD5EE-D923-4A4A-8FDE-164881635915";
paths = (
{
closed = 1;
nodes = (
"176 1220 LINE",
"306 1202 LINE",
"152 86 LINE",
"12 64 LINE",
"6 0 LINE",
"534 0 LINE",
"540 64 LINE",
"314 88 LINE",
"386 616 LINE",
"862 600 LINE",
"872 724 LINE",
"400 716 LINE",
"468 1212 LINE",
"958 1200 LINE",
"980 1018 LINE",
"1080 1018 LINE",
"1099 1292 LINE",
"185 1292 LINE"
);
}
);
width = 1094;
},
{
anchors = (
{
name = btm;
position = "{624, -142}";
},
{
name = top;
position = "{705, 1292}";
}
);
layerId = "27298932-82AF-4578-9425-6304FDB19058";
paths = (
{
closed = 1;
nodes = (
"130 1192 LINE",
"268 1172 LINE",
"125 123 LINE",
"-3 97 LINE",
"-13 0 LINE",
"718 0 LINE",
"726 97 LINE",
"460 122 LINE",
"520 588 LINE",
"963 552 LINE",
"992 761 LINE",
"542 733 LINE",
"604 1183 LINE",
"931 1161 LINE",
"961 952 LINE",
"1173 952 LINE",
"1208 1292 LINE",
"144 1292 LINE"
);
}
);
width = 1160;
}
);
leftKerningGroup = h.sc;
rightKerningGroup = f.sc;
userData = {
RMXScaler = {
source = F;
};
};
},
{
color = 9;
glyphname = g.sc;
lastChange = "2019-04-05 05:20:06 +0000";
layers = (
{
anchors = (
{
name = bottom;
position = "{635, 0}";
},
{
name = top;
position = "{770, 1292}";
}
);
layerId = "0C3FD5EE-D923-4A4A-8FDE-164881635915";
paths = (
{
closed = 1;
nodes = (
"1157 620 LINE",
"732 620 LINE",
"724 533 LINE",
"979 519 LINE",
"928 149 LINE",
"857 98 OFFCURVE",
"720 75 OFFCURVE",
"615 75 CURVE SMOOTH",
"368 75 OFFCURVE",
"260 305 OFFCURVE",
"252 552 CURVE",
"246 861 OFFCURVE",
"404 1222 OFFCURVE",
"759 1222 CURVE SMOOTH",
"902 1222 OFFCURVE",
"974 1201 OFFCURVE",
"1030 1168 CURVE",
"1036 992 LINE",
"1140 992 LINE",
"1191 1250 LINE",
"1152 1260 LINE SMOOTH",
"1089 1276 OFFCURVE",
"974 1306 OFFCURVE",
"774 1306 CURVE SMOOTH",
"387 1306 OFFCURVE",
"70 999 OFFCURVE",
"84 532 CURVE SMOOTH",
"92 264 OFFCURVE",
"235 -14 OFFCURVE",
"574 -14 CURVE SMOOTH",
"724 -14 OFFCURVE",
"857 24 OFFCURVE",
"952 50 CURVE SMOOTH",
"1002 64 OFFCURVE",
"1043 75 OFFCURVE",
"1079 78 CURVE"
);
}
);
width = 1272;
},
{
anchors = (
{
name = bottom;
position = "{615, 0}";
},
{
name = top;
position = "{826, 1292}";
}
);
layerId = "27298932-82AF-4578-9425-6304FDB19058";
paths = (
{
closed = 1;
nodes = (
"1264 647 LINE",
"738 647 LINE",
"722 511 LINE",
"908 497 LINE",
"864 136 LINE",
"810 127 OFFCURVE",
"747 126 OFFCURVE",
"662 126 CURVE SMOOTH",
"496 126 OFFCURVE",
"405 294 OFFCURVE",
"405 589 CURVE SMOOTH",
"405 932 OFFCURVE",
"497 1193 OFFCURVE",
"834 1193 CURVE SMOOTH",
"894 1193 OFFCURVE",
"951 1181 OFFCURVE",
"995 1160 CURVE",
"1007 961 LINE",
"1239 961 LINE",
"1297 1250 LINE",
"1237 1260 LINE",
"1158 1276 OFFCURVE",
"1067 1308 OFFCURVE",
"828 1308 CURVE SMOOTH",
"303 1308 OFFCURVE",
"31 1008 OFFCURVE",
"47 532 CURVE SMOOTH",
"57 237 OFFCURVE",
"217 -14 OFFCURVE",
"599 -14 CURVE SMOOTH",
"778 -14 OFFCURVE",
"901 16 OFFCURVE",
"1006 42 CURVE",
"1068 56 OFFCURVE",
"1154 66 OFFCURVE",
"1188 70 CURVE"
);
}
);
width = 1340;
}
);
leftKerningGroup = o.sc;
rightKerningGroup = g.sc;
userData = {
RMXScaler = {
source = G;
};
};
},
